<svg xmlns="http://www.w3.org/2000/svg" width="70" height="70" viewBox="0 0 70 70">
  <g id="course_icon-1" transform="translate(2229 -906)">
    <rect id="Rectangle_294" data-name="Rectangle 294" width="70" height="70" transform="translate(-2229 906)" fill="#fff" opacity="0"/>
    <g id="_038---Natural-Oil" data-name="038---Natural-Oil" transform="translate(-2222 912.018)">
      <path id="Shape" d="M24.763,18.326a2.8,2.8,0,0,0-2.37-4.264V4.732A3.732,3.732,0,0,0,18.661,1H9.33A3.732,3.732,0,0,0,5.6,4.732v9.33a2.8,2.8,0,0,0-2.37,4.264A5.6,5.6,0,0,0,0,23.393V51.384a5.6,5.6,0,0,0,5.6,5.6H22.393a5.6,5.6,0,0,0,5.6-5.6V23.393a5.6,5.6,0,0,0-3.228-5.066ZM7.464,4.732A1.866,1.866,0,0,1,9.33,2.866h9.33a1.866,1.866,0,0,1,1.866,1.866v9.33H7.464Zm-2.8,12.129a.933.933,0,0,1,.933-.933H22.393a.933.933,0,0,1,0,1.866H5.6A.933.933,0,0,1,4.665,16.862Zm21.46,34.522a3.732,3.732,0,0,1-3.732,3.732H5.6a3.732,3.732,0,0,1-3.732-3.732V23.393A3.732,3.732,0,0,1,5.6,19.661H22.393a3.732,3.732,0,0,1,3.732,3.732Z" transform="translate(0 -0.001)" fill="#707179" stroke="#f9efe5" stroke-width="0.5"/>
      <path id="Shape-2" data-name="Shape" d="M14.4,24A8.4,8.4,0,0,0,6,32.4v9.33a8.4,8.4,0,0,0,16.795,0V32.4A8.4,8.4,0,0,0,14.4,24Zm6.531,17.728a6.531,6.531,0,1,1-13.062,0V32.4a6.531,6.531,0,0,1,13.062,0Z" transform="translate(-0.402 -1.542)" fill="#707179" stroke="#f9efe5" stroke-width="0.5"/>
      <path id="Shape-3" data-name="Shape" d="M18.4,5H10.933a.933.933,0,1,0,0,1.866H18.4A.933.933,0,0,0,18.4,5Z" transform="translate(-0.67 -0.269)" fill="#707179" stroke="#f9efe5" stroke-width="0.5"/>
      <path id="Shape-4" data-name="Shape" d="M13.181,32.73C11.726,34.6,10,37.255,10,39.056a4.889,4.889,0,0,0,4.665,5.076,4.889,4.889,0,0,0,4.665-5.076c0-1.8-1.726-4.432-3.182-6.326a1.931,1.931,0,0,0-2.967,0Zm1.484,9.536a3.032,3.032,0,0,1-2.8-3.21c0-.933,1.045-2.911,2.8-5.188,1.754,2.277,2.8,4.227,2.8,5.188A3.032,3.032,0,0,1,14.665,42.266Z" transform="translate(-0.669 -2.08)" fill="#707179" stroke="#f9efe5" stroke-width="0.5"/>
      <path id="Shape-5" data-name="Shape" d="M16.33,54h-8.4a.933.933,0,0,0,0,1.866h8.4a.933.933,0,1,0,0-1.866Z" transform="translate(-0.469 -3.551)" fill="#707179" stroke="#f9efe5" stroke-width="0.5"/>
      <path id="Shape-6" data-name="Shape" d="M21.866,54h-.933a.933.933,0,1,0,0,1.866h.933a.933.933,0,0,0,0-1.866Z" transform="translate(-1.339 -3.551)" fill="#707179" stroke="#f9efe5" stroke-width="0.5"/>
      <path id="Shape-7" data-name="Shape" d="M33.808,32.928A1.866,1.866,0,0,0,32,34.719c-.121,2.855-.065,12.652,5.8,18.549,4.563,4.581,12.129,6.1,18.474,5.822A1.866,1.866,0,0,0,58.123,57.3c.093-2.846,0-12.652-5.831-18.549S36.663,32.8,33.808,32.928ZM56.257,57.252c-2.659.121-11.747.075-17.074-5.281s-5.4-14.509-5.318-17.177c5.831-.252,12.894,1.073,17.074,5.272C56.3,45.421,56.341,54.546,56.257,57.252Z" transform="translate(-2.141 -2.137)" fill="#707179" stroke="#f9efe5" stroke-width="0.5"/>
      <path id="Shape-8" data-name="Shape" d="M39.434,39.048a.933.933,0,1,0-1.082,1.521,50.458,50.458,0,0,1,12.913,12.96.92.92,0,0,0,1.5-1.064A52.306,52.306,0,0,0,39.434,39.048Z" transform="translate(-2.542 -2.538)" fill="#707179" stroke="#f9efe5" stroke-width="0.5"/>
      <path id="Shape-9" data-name="Shape" d="M56.314,1C53.458.905,43.7,1,37.83,6.849S31.905,22.542,32,25.4a1.866,1.866,0,0,0,1.782,1.791c6.363.28,13.93-1.25,18.483-5.822,5.906-5.9,5.953-15.7,5.859-18.5A1.866,1.866,0,0,0,56.314,1ZM50.967,20.051c-5.328,5.356-14.415,5.393-17.1,5.272-.112-2.668-.075-11.794,5.262-17.149,4.217-4.217,11.308-5.533,17.13-5.309C56.341,5.571,56.3,14.7,50.967,20.051Z" transform="translate(-2.142 0)" fill="#707179" stroke="#f9efe5" stroke-width="0.5"/>
      <path id="Shape-10" data-name="Shape" d="M51.452,7.184A81.248,81.248,0,0,0,38.166,20.527a.948.948,0,0,0,1.493,1.166,80.3,80.3,0,0,1,13-13.062.941.941,0,0,0-1.2-1.446Z" transform="translate(-2.542 -0.401)" fill="#707179" stroke="#f9efe5" stroke-width="0.5"/>
    </g>
  </g>
</svg>
