<svg xmlns="http://www.w3.org/2000/svg" width="70" height="70.25" viewBox="0 0 70 70.25">
  <g id="course_icon-2" transform="translate(2229 -996.75)">
    <rect id="Rectangle_295" data-name="Rectangle 295" width="70" height="70" transform="translate(-2229 997)" fill="#fff" opacity="0"/>
    <g id="open-book" transform="translate(-2226 994.841)">
      <path id="Path_41" data-name="Path 41" d="M283.332,285.151h15.113a1.053,1.053,0,0,0,0-2.106H283.332a1.053,1.053,0,0,0,0,2.106Z" transform="translate(-246.994 -245.775)" fill="#707179" stroke="#f9efe5" stroke-width="0.5"/>
      <path id="Path_42" data-name="Path 42" d="M299.532,320.6H286.805a1.922,1.922,0,0,0-1.92,1.92v9.545a1.922,1.922,0,0,0,1.92,1.92h12.727a1.922,1.922,0,0,0,1.92-1.92v-9.545A1.922,1.922,0,0,0,299.532,320.6Zm.045,11.465a.045.045,0,0,1-.045.045H286.805a.045.045,0,0,1-.045-.045v-9.545a.045.045,0,0,1,.045-.045h12.727a.045.045,0,0,1,.045.045Z" transform="translate(-249.274 -278.633)" fill="#707179" stroke="#f9efe5" stroke-width="0.5"/>
      <path id="Path_43" data-name="Path 43" d="M387.176,6.838a.938.938,0,0,0,.938-.937V3.1a.938.938,0,0,0-1.875,0V5.9A.937.937,0,0,0,387.176,6.838Z" transform="translate(-337.959)" fill="#707179" stroke="#f9efe5" stroke-width="0.5"/>
      <path id="Path_44" data-name="Path 44" d="M319.983,27.251a.937.937,0,0,0,1.326-1.326l-1.983-1.983A.937.937,0,1,0,318,25.268Z" transform="translate(-278.01 -18.82)" fill="#707179" stroke="#f9efe5" stroke-width="0.5"/>
      <path id="Path_45" data-name="Path 45" d="M440.491,27.251l1.983-1.983a.937.937,0,0,0-1.326-1.326l-1.983,1.983a.937.937,0,1,0,1.326,1.326Z" transform="translate(-384.029 -18.82)" fill="#707179" stroke="#f9efe5" stroke-width="0.5"/>
      <path id="Path_46" data-name="Path 46" d="M478.306,83.886h-2.8a.938.938,0,0,0,0,1.875h2.8a.938.938,0,1,0,0-1.875Z" transform="translate(-415.244 -71.511)" fill="#707179" stroke="#f9efe5" stroke-width="0.5"/>
      <path id="Path_47" data-name="Path 47" d="M276.417,85.761h2.8a.938.938,0,0,0,0-1.875h-2.8a.938.938,0,1,0,0,1.875Z" transform="translate(-241.044 -71.511)" fill="#707179" stroke="#f9efe5" stroke-width="0.5"/>
      <path id="Path_48" data-name="Path 48" d="M75.451,170.555H90.564a1.053,1.053,0,0,0,0-2.105H75.451a1.053,1.053,0,1,0,0,2.105Z" transform="translate(-65.098 -145.504)" fill="#707179" stroke="#f9efe5" stroke-width="0.5"/>
      <path id="Path_49" data-name="Path 49" d="M75.451,208.753H90.564a1.053,1.053,0,1,0,0-2.105H75.451a1.053,1.053,0,1,0,0,2.105Z" transform="translate(-65.098 -178.928)" fill="#707179" stroke="#f9efe5" stroke-width="0.5"/>
      <path id="Path_50" data-name="Path 50" d="M91.617,245.9a1.053,1.053,0,0,0-1.053-1.053H75.451a1.053,1.053,0,0,0,0,2.106H90.564A1.053,1.053,0,0,0,91.617,245.9Z" transform="translate(-65.098 -212.351)" fill="#707179" stroke="#f9efe5" stroke-width="0.5"/>
      <path id="Path_51" data-name="Path 51" d="M75.451,390.2H90.564a1.053,1.053,0,0,0,0-2.106H75.451a1.053,1.053,0,1,0,0,2.106Z" transform="translate(-65.098 -337.69)" fill="#707179" stroke="#f9efe5" stroke-width="0.5"/>
      <path id="Path_52" data-name="Path 52" d="M59.347,73.69H58.161a8.942,8.942,0,0,0-1.195-5.41.938.938,0,1,0-1.615.952,7.081,7.081,0,0,1-.481,7.893l-.029.038A13.048,13.048,0,0,0,52.1,81.145H46.332a10.726,10.726,0,0,0-2.211-3.375A7.12,7.12,0,0,1,49.5,65.711a6.97,6.97,0,0,1,3.106.86.937.937,0,1,0,.9-1.645A8.987,8.987,0,0,0,40.363,71.3H32.71a2.734,2.734,0,0,0-1.809.682,2.734,2.734,0,0,0-1.809-.682H5.761a1.784,1.784,0,0,0-1.782,1.782v.611H2.457A2.46,2.46,0,0,0,0,76.147V101a.938.938,0,1,0,1.875,0v-.151c.128.011.023.008,2.1.008v10.43a1.784,1.784,0,0,0,1.782,1.782H29.093c.545,0,.7.41.871.567v2.911a4.068,4.068,0,0,0-2.191-.644H2.457a.582.582,0,0,1-.582-.582V105.38a.938.938,0,1,0-1.875,0v9.946a2.459,2.459,0,0,0,2.457,2.457H27.773a2.2,2.2,0,0,1,1.891,1.084,1.432,1.432,0,0,0,2.475,0,2.2,2.2,0,0,1,1.891-1.085H59.347a2.459,2.459,0,0,0,2.457-2.457V76.147A2.459,2.459,0,0,0,59.347,73.69ZM46.619,84.978V83.02h5.2v1.958a2.6,2.6,0,1,1-5.2,0ZM32.71,73.173h7.529a9.055,9.055,0,0,0,.976,3.731H36.338a1.053,1.053,0,1,0,0,2.105h6.376a8.773,8.773,0,0,1,1.8,2.669H36.337a1.053,1.053,0,0,0,0,2.106h8.406v1.194A4.45,4.45,0,0,0,45,86.454H36.338a1.053,1.053,0,0,0,0,2.106l10.157-.036a4.47,4.47,0,0,0,7.2-3.546v-2.73a9.352,9.352,0,0,1,2.258-3.484V111.2H32.71a2.788,2.788,0,0,0-.854.136l-.017,0v-37.3a.872.872,0,0,1,.871-.871ZM1.875,76.147a.582.582,0,0,1,.582-.582H3.979v16.4H2.06q-.094,0-.186.008ZM2.06,98.988a.186.186,0,0,1-.186-.186V94.029a.186.186,0,0,1,.186-.186H5.6v5.144H2.06Zm17.67,1.875a.956.956,0,0,0,.535-.168l0,0,4.168-2.935a1.64,1.64,0,0,0,0-2.681L20.271,92.14l-.006,0a.934.934,0,0,0-.492-.165l-.043,0H5.854v-18.8H29.093a.872.872,0,0,1,.871.871v37.3a2.8,2.8,0,0,0-.871-.141H5.854V100.862H19.731Zm-.937-1.875H7.473V93.844h11.32Zm4.293-2.572-2.417,1.7v-3.4Zm36.843,18.91a.582.582,0,0,1-.582.582H34.03a4.069,4.069,0,0,0-2.191.644V113.64c.178-.169.32-.567.871-.567H56.043a1.784,1.784,0,0,0,1.781-1.782V75.565h1.522a.582.582,0,0,1,.582.582Z" transform="translate(0 -53.959)" fill="#707179" stroke="#f9efe5" stroke-width="0.5"/>
    </g>
  </g>
</svg>
