<svg xmlns="http://www.w3.org/2000/svg" width="160" height="212.716" viewBox="0 0 160 212.716">
  <g id="Group_490" data-name="Group 490" transform="translate(5459 -446.025)">
    <g id="Group_1" data-name="Group 1" transform="translate(-5434.84 454.406)">
      <path id="Exclusion_1" data-name="Exclusion 1" d="M48.192,98.829a6.677,6.677,0,0,1-1.627-.3l-1.02-1.189a3.894,3.894,0,0,1-1.083-.72c-.017-.026-.037-.059-.06-.1a3.018,3.018,0,0,0-1.78-1.542c-.952-.235-1.426-1.183-1.772-1.875-.06-.12-.115-.23-.168-.328a3.107,3.107,0,0,0-1.231-1.006,5.645,5.645,0,0,1-.521-.321,3.624,3.624,0,0,1-.826-2.009,6.318,6.318,0,0,0-.623-1.567c-.083-.172-.155-.321-.2-.429-.179-.45.481-1.076.488-1.083a11.169,11.169,0,0,1,1.1-1.277,3.2,3.2,0,0,0,.544-1.909c0-.1-.013-.246-.028-.417-.044-.5-.1-1.189.1-1.311.3-.192.192-1.136.188-1.176L39.338,79c0-.009.281-1.221.895-4.462a2.678,2.678,0,0,0-.381-2.3,2.861,2.861,0,0,0-2.067-.868c-8.667.8-15.822,7.566-15.894,7.635a27.41,27.41,0,0,0-2.2,1.977l-.052.065a14.76,14.76,0,0,0-1.906,2.763c-.073.478-.548.865-1.452,1.183-.826.253-1.192,1.88-1.2,1.9L14.8,88.9l-.645.72-.482.557v1.715l-.532.613-.72,1.02c-.048.218-.3,1.289-.557,1.289-.138,0-.293.226-.458.465-.185.268-.375.545-.574.574a1.058,1.058,0,0,1-.359.052,2.375,2.375,0,0,1-.9-.183.254.254,0,0,0-.158-.045,1.69,1.69,0,0,0-.55.162,1.715,1.715,0,0,1-.545.171.2.2,0,0,1-.118-.031l-.1-.063c-.383-.248-1.278-.827-1.2-1.389.087-.494-1.088-1.676-2.032-2.626-.27-.271-.517-.52-.7-.722a3.11,3.11,0,0,1-.71-2.314.964.964,0,0,1,.341-.709c.538-.365-.032-2.385-.275-3.247-.277-.956-.657-2.265-.294-2.641.438-.416,2.3-2.1,2.76-2.1s2.15-2.884,2.384-3.342c.274-.508,1.7-.871,2.466-1.066l.212-.054a5.787,5.787,0,0,1,1.208-.1c.232,0,.466.006.694.012s.445.012.646.012c.832,0,1.954-1.332,1.965-1.345l.031-.034c1.467-1.621,14.385-15.9,16.29-17.957.383-.409.535-.714.452-.906-.074-.17-.333-.256-.772-.256a15.727,15.727,0,0,0-2.9.479c-.315.072-.573.131-.732.158a23.019,23.019,0,0,0-3.83,1.6l-.682.945c-.008,0-.045.012-.109.027-.291.068-1.178.274-1.987.436-.925.163-3.581.79-3.955,1.37-.275.437-1.96.708-3.364.708-.247,0-.473-.009-.672-.026l-.117,0a3.384,3.384,0,0,0-1.627.519,2.591,2.591,0,0,1-1.179.41,2.622,2.622,0,0,1-2.3-.926,2.574,2.574,0,0,0-1.795-.436c-.141,0-.281,0-.416,0H5.857c-.148,0-.281.006-.4.006-.357,0-.693-.021-.728-.175-.086-.418-.7-.477-1.237-.53-.09-.009-.177-.017-.259-.027-.567-.091-1.715-.727-1.715-1.1s-.465-.7-.469-.707a6.009,6.009,0,0,1-.926-.544c-.182-.2-.119-.506-.057-.8A2.008,2.008,0,0,0,.12,56.13c0-.358.644-.66.651-.663l.907-.238a1.961,1.961,0,0,0,.451-1.02A4.564,4.564,0,0,1,4.25,52.144a5.791,5.791,0,0,0,1.341-.975,4.614,4.614,0,0,1,.6-.477,7.6,7.6,0,0,0,1.277-1.558c.286-.56,3.4-2.643,5.5-3.267a68.728,68.728,0,0,0,7.822-3.874c.085-.081,8.706-8.319,9.068-8.767a15.374,15.374,0,0,1,1.852-1.683,8.565,8.565,0,0,0,1.145-1.908c.115-.228.22-.436.307-.6a7.792,7.792,0,0,1,1.118-1.219A11.332,11.332,0,0,0,35.345,26.7a18.571,18.571,0,0,1,1.677-1.715c.491-.6,4.775-5.82,5.232-6.17a11.092,11.092,0,0,0,1.278-1.838c.158-.257.29-.473.375-.6a4.943,4.943,0,0,1,1.37-1.283c.338-.155.652-.822.839-1.221l.068-.143c.106-.193.417-.233.659-.233a2.864,2.864,0,0,1,.454.039l.639-.35.457-.795a7.423,7.423,0,0,0,.814-1.3,7.011,7.011,0,0,1,.87-1.2l.526.125.538-.207c.149-.044.888-.26,1.3-.357.343-.071.547-.466.7-.754a2.524,2.524,0,0,1,.131-.235,1.731,1.731,0,0,1,.463-.4,1.753,1.753,0,0,0,.564-.519c.109-.253.544-.284.928-.311a2.966,2.966,0,0,0,.442-.052c.174-.037.24-.252.31-.479s.142-.459.328-.509a1.274,1.274,0,0,0,.522-.4,1.109,1.109,0,0,1,.4-.329c.175-.055.193-.408.212-.75.007-.122.013-.237.026-.333.1-.356.892-.447.926-.451l.375-.907V2.044c0-.375.632-.636.638-.638A5.808,5.808,0,0,0,60.133.323.684.684,0,0,1,60.8,0a2.165,2.165,0,0,1,.636.11,3.849,3.849,0,0,1,2.009,2.553c0,.367.378,2.24.382,2.259v1.1a18.825,18.825,0,0,1-.476,2,11.417,11.417,0,0,1-1.164,2.447,15.341,15.341,0,0,0-.657,1.821.966.966,0,0,1-.965.811,3.474,3.474,0,0,0-.43.09c-.634.18-1,1.092-1.008,1.1l-.732,1.621-.826.094-.338.738a.978.978,0,0,1-.482.544c-.345.173-.443.9-.444.907l-.569,1.177.2,1.345-.732.751L54.738,22.7a3.207,3.207,0,0,1-.288,1.327,13.34,13.34,0,0,0-.745,2.046c.024.514.1,2.25.1,3.812a2.189,2.189,0,0,0,2.021,2.259.142.142,0,0,0,.132-.067c.159-.267-.36-1.232-.382-1.272l1,.088.444-.463.926-.813c.009,0,.057-.005.132-.01.258-.018.864-.059,1.051-.059.3,0,.853-1.166,1.008-1.658.211-.527,1.185-.823,1.2-.826h.035c.491-.02,1.369-.055,1.736-.055.414,0,6.954,1.9,7.232,1.977a5.748,5.748,0,0,1,.9,1.383c.285.588,2.4.967,2.491.982l.989-.544h.751l1.483.156a11.68,11.68,0,0,1,1.733.388,1.008,1.008,0,0,0,.388.067,2.67,2.67,0,0,0,.826-.161h2.929l.882-.181.839.088.939-.2h1.74l.651-.344h1.646l.907-.332.638-.219h1.289c.02,0,2.031.081,2.378.081s1.943.136,1.959.138,1.89.521,2.253.607a5.616,5.616,0,0,1,1.327.707c.042.036,1.014.857,1.552,1.383a2.117,2.117,0,0,0,1.383.563c.008,0,.035.03.082.074.939.865,1.492,1.4,1.645,1.6a2.36,2.36,0,0,1-.188,1.927c-.208.271-.866.312-1.24.312-.125,0-.208,0-.212,0s-1.366.673-1.771.882a2.051,2.051,0,0,0-.547.625,2.774,2.774,0,0,1-.561.665,1.471,1.471,0,0,1-.8.142,8.814,8.814,0,0,1-1.472-.142.312.312,0,0,0-.066-.007c-.434,0-.825.865-.841.9a3.443,3.443,0,0,1-1.2.626c-.375,0-.747-.458-.751-.463l-.826-.1-.707-.688h-1.32l-1.477-.138-1.984.482-1.3.175a18.774,18.774,0,0,1-3.217-.275,3.259,3.259,0,0,0-.663-.065,4.952,4.952,0,0,0-1.715.341l-2.027.732-1.277.263-.92-.056-.651.513-1.089-.169L74.951,41.5,74,42.332l-1.74.451-1.4.338-.238.482-1.183.181c-.02.006-2.253.721-3.874,1.352a9,9,0,0,0-2.884,2.281,5.006,5.006,0,0,1-.9.829,2.635,2.635,0,0,0-.73.645,2.926,2.926,0,0,1-.922.781c-.648.273-1.919,3.17-1.984,3.723a37.949,37.949,0,0,1-2.163,4.128c-.383.681-.71,1.265-.9,1.617-.63,1.149-3.916,10.246-3.949,10.338-.005.023-.538,2.372-.538,2.7a2.257,2.257,0,0,1-.807,1.64.337.337,0,0,0-.187.226c-.122.456.463,1.317.469,1.326a10.945,10.945,0,0,0-.282,1.452,5.552,5.552,0,0,1-.247.948,13.06,13.06,0,0,0-.6,2.582,29.931,29.931,0,0,0,.357,4.987l.013.047a4.057,4.057,0,0,1,.174,2.406,12.1,12.1,0,0,0-.323,2.284,6.687,6.687,0,0,1-.134,1.095c-.09.283.484,1.135.638,1.327a1.8,1.8,0,0,1,.3,1.439c-.081.26-.168.625-.251.977a11.311,11.311,0,0,1-.306,1.138,4.673,4.673,0,0,0-.2,1.025,4.508,4.508,0,0,1-.358,1.522C48.765,98.753,48.539,98.829,48.192,98.829ZM40.673,55.806a.432.432,0,0,0-.153.03c-.166.075-.337.142-.508.208a3.861,3.861,0,0,0-1.419.805,6.056,6.056,0,0,0-.547.685,6.483,6.483,0,0,1-.949,1.123,12.1,12.1,0,0,0-1.452,1.815c-.193.269-1.416,1.654-1.554,1.81-.032.03-2.754,2.573-3.133,3-.357.467-1.658,1.808-1.671,1.821a1.648,1.648,0,0,0-.538,1.126,1.416,1.416,0,0,0,.65,1.058c.842.671,1.28.908,1.673.908a2.01,2.01,0,0,0,.638-.146l.035-.012a7.95,7.95,0,0,1,1.871-.388l.726-.426a.191.191,0,0,1-.009-.182c.051-.094.225-.206.766-.206a5.319,5.319,0,0,0,3.3-1.84,7.861,7.861,0,0,0,1.37-3A6.81,6.81,0,0,1,40.959,61.3c.346-.173.885-1.508.907-1.564,0-.01.215-1.083-.094-1.527a6.136,6.136,0,0,1-.463-1.358C41.3,56.807,41.168,55.806,40.673,55.806ZM33.506,39.589a.512.512,0,0,1,.388.152.774.774,0,0,0,.54.156,3.509,3.509,0,0,0,.911-.156l1.408-.469c.01,0,.16.015.352.015a1.445,1.445,0,0,0,.831-.178,2.015,2.015,0,0,1,.536-.293c.406-.178.866-.38.866-.727a12.2,12.2,0,0,1,.532-2.184,2.567,2.567,0,0,1,.463-1.152l.123-.079c.394-.252,1.316-.842,1.316-1.091a4.833,4.833,0,0,0-.889-2.359,3.228,3.228,0,0,0-1.911-.723.494.494,0,0,0-.285.06l-2.879,1.733L30.6,37.732c-.006.01-.71,1.092-.452,1.667a.628.628,0,0,0,.527.341,13.206,13.206,0,0,0,1.535.1c.376,0,.59-.02.6-.021A1.548,1.548,0,0,1,33.506,39.589Z" transform="translate(0)" fill="#fff"/>
      <path id="Path_4" data-name="Path 4" d="M54.441,40.384s-.584,1.439.716,1.509c1.265.118,2.378.118,2.83.118a5.539,5.539,0,0,0,1.544-.3c.681-.16.751-.355,2.42.111,1.641.431,2.183.188,3.859.709,1.641.528,3.935,1.377,3.935,1.377l1.37.257.723.542,1.217.369a8.113,8.113,0,0,1,1.363.369c.375.181,1.481.522,1.481.522s1.286,1,1.641,1.189c.382.174,1.356,1.029,1.71,1.029.382,0,1.592.528,1.592.793s1.571,1.071,1.571,1.071a2.875,2.875,0,0,1,1.279.48c.369.348.459.987,1.113,1.258s1.286,1.113,1.71,1.279c.473.2,1.293,1.349,1.564,1.446a10.59,10.59,0,0,1,1.384.814l1.2.744a2.832,2.832,0,0,0,1.113.438c.64.1.64.369.925.459.243.076,1.544.188,2.663.362a15.83,15.83,0,0,0,2.67.278h2.079s2.663.542,3.018.542a28.61,28.61,0,0,1,3.039.362,20.824,20.824,0,0,0,2.489,0l1.544-.188s1.293-.271,1.481-.542c.167-.257-.431-.368.911-.549,1.384-.188,1.453-.723,1.453-.723a6.382,6.382,0,0,1,.827-.633,1.42,1.42,0,0,0,.751-1.071c0-.389-.466-1.008-1.391-1.377a9.532,9.532,0,0,0-3.108-.73,6.554,6.554,0,0,1-2.753-.64,6.892,6.892,0,0,0-2.934-1.008,16.8,16.8,0,0,1-3.122-.681,6.393,6.393,0,0,0-2.475-.577,7.269,7.269,0,0,1-2.392-.438l-.827-.841-1.356-.264a14.747,14.747,0,0,1-2.135-.542c-.285-.174-2.211-.911-2.211-.911s-1.265.445-1.523,0c-.285-.438-3.247-1.46-3.247-1.46s-1.1-.515-1.342-1.071c-.3-.535-3.219-1.092-3.219-1.37s-1.752-.883-1.752-.883l-1.655-.459-.723-.355L76.17,41.08,74.876,40.9l-1.738-.369-1.21-.375a6.59,6.59,0,0,1-1.912-.076,10.927,10.927,0,0,0-1.2-.549l-.925-.271h-1.53a20.932,20.932,0,0,1-2.677-.334,11.92,11.92,0,0,0-2.76-.278c-.473,0-2.4.514-2.74.514C57.82,39.161,55.241,39.619,54.441,40.384Z" transform="translate(2.785 28.836)" fill="#fff"/>
    </g>
    <path id="Exclusion_2" data-name="Exclusion 2" d="M117.578,212.716h0l-2.664-.882-2.046-.219-1.752.657-2.441-.225a8.585,8.585,0,0,0-1.357-.095,14.635,14.635,0,0,0-1.634.095h-1.715l-1.89-.432h-1.151l-1.3.219-1.683-.444-4.143.225-2.635-.457-1.915-.225.375-1.777-3.192.25-1.708.244-1.683.4a5.244,5.244,0,0,1-1.521-.225,1.54,1.54,0,0,0-.381-.031c-1.207,0-4.523.432-4.9.481h-2.82c-.551,0-2.791-.4-3.045-.45h0a9.646,9.646,0,0,0-3.394,1.107c-.019,0-2.255-.213-2.822-.213a7.114,7.114,0,0,1-1.067-.187,10.845,10.845,0,0,0-1.936-.3,1.343,1.343,0,0,0-.389.046,21.946,21.946,0,0,0-2.265.882L57,211.389l-3.792-.232-1.846-.225-1.345-.444-1.533.669-2.428.676-.782-1.114H42.278c-.469.335-.422.5-.4.586.007.024.011.041,0,.053-.023.031-.144.031-.542.031a26.111,26.111,0,0,1-2.828-.232c-.009-.011-.461-.7-.965-.7a.542.542,0,0,0-.187.033,1.969,1.969,0,0,1-.729.1,7.835,7.835,0,0,1-1.149-.1l-1.708.232-2.272.213-3.029.682a12.236,12.236,0,0,1-1.859.219c-.75,0-2.389-.21-2.458-.219a2.519,2.519,0,0,0-1.1-.2,6.783,6.783,0,0,0-1.528.2c-.007,0-.778.222-1.327.432a11.5,11.5,0,0,1-2.459.225l-3.586-.882a8.566,8.566,0,0,0-2.265-1.114,2.442,2.442,0,0,1-.967-.428,2.693,2.693,0,0,0-1.109-.478.439.439,0,0,0-.183.036.887.887,0,0,1-.35.066,3.143,3.143,0,0,1-1.089-.3c-.206-.083-.416-.167-.62-.227-.743-.2-4.307-4.388-4.343-4.431,0-.014-.223-1.093-.782-1.327-.552-.217-1.486-1.539-1.5-1.552l.738-1.545a.949.949,0,0,0,.343.1.174.174,0,0,0,.169-.084c.1-.2-.135-.724-.712-1.565-1.48-2.2-1.112-7.271-1.108-7.322a10.86,10.86,0,0,0,0-2.641l-.2-2.015v-2l.569-1.327L.188,180.6l.77-1.345.738-1.79a13.321,13.321,0,0,1-.2-3.523l.4-4.656-.4-2-.156-1.777-.2-1.752-.557-1.783L0,160.2a13.612,13.612,0,0,0,.388-3.323,3.74,3.74,0,0,1-.2-1.752,7.137,7.137,0,0,1,.769-1.564,10.056,10.056,0,0,0,1.7-3.11l.369-2.228-.169-2.847.382-1.8L2.653,140.7l-.2-2.447-.175-1.984.175-1.546,1.139-5.094.2-1.552.344-4.668a15.519,15.519,0,0,1,0-3.1v-1.1l-.344-4.65a7.109,7.109,0,0,0,2.046-2.891l.989-5.544-.015-.055c-.267-1.043-.463-1.86-.567-2.361a10.358,10.358,0,0,1,.181-2.879l.757-4.243c-.109-.079-.357-.346-.357-1.076v-1.79c-.4-1.1-2.092-6.6-2.109-6.658,0-1.253-.15-3-.156-3.071-.108-.344-.452-1.448-.613-2.016a4.3,4.3,0,0,1-.082-.533A1.247,1.247,0,0,0,3.4,80.432a4.45,4.45,0,0,1-.951-1.777c0-.856.4-6.57.4-6.627l-.776-2.434.2-2.015.175-4.9a12.23,12.23,0,0,0,.4-3.31L3.235,57.6,3.4,56.264l-.751-3.517-.2-1.783a5.953,5.953,0,0,1,0-2.653l1.139-.463a1.313,1.313,0,0,1-.074-.178c-.111-.289-.343-.891-.5-1.38-.167-.625-.367-2.819-.369-2.841l.369-1.564-.745-4.462-.2-1.527.2-1.777.576-1.308.169-1.552-.569-2.891A16.6,16.6,0,0,1,1.9,25.038l-.557-1.546v-2.9L1.7,18.817l.582-2.19L3.023,14.4l1.114-3.3H6.245L7.929,8.667,12.641,6l1.89-1.577L16.8,3.792l1.715-.476,1.871-.87,1.69-.219,2.466.219,4.9.87L34.168,4l2.647-.463h2.61l1.527.663,1.327.225L43.4,4.65,44.731,4.2,48.1,4.65l1.514.914L52.065,6h2.09a11.025,11.025,0,0,1,2.272-.682l1.7-.67,2.265.67,5.269-.232,1.915.232,2.991-.67L72.084,4.2l1.9.225L77.922,4h3.2l2.272.2L84.906,4l1.151-.463h4.725l1.277.257,3.054-.476,4.312-.87,1.74-.219H103.4a1.713,1.713,0,0,0,.933.181,10.354,10.354,0,0,0,1.689-.181l1.139-.244,1.333-.638a1.671,1.671,0,0,1,.611-.109,4.015,4.015,0,0,1,2.011.748l3.8-.638,2.666.194a4.031,4.031,0,0,0,1.859-.438l1.32-.87L121.909,0h1.508l1.871.451,4.543.651,1.314.438,2.265.444h1.865l2.278-.219,1.314,1.108h2.459l1.3.25,3.223.413c1.87,1.1,3.385,2.02,3.4,2.028l1.5.864a1.9,1.9,0,0,0,1.508,1.564l.557,1.527c.006.016.585,1.589.763,2.228.2.655,2.053,4.616,2.071,4.656.191,1.079.38,3.059.382,3.079l-.757,1.358.57,1.571-.194,3.279-.582,1.765-.163,5.569-.188,1.959-.363,2.028.363,2.222-.363,2.428v1.79l-.388,2.641-.188,3.736V53.2l-.2,1.952-.382.713-.181,1.733.181,1.552.77,1.564-.388,1.327-.563,1.1v3.11a3.593,3.593,0,0,0,.763,2.021l.188,2.19c-.183.652-.38,1.923-.388,1.977l-.382,1.552c.055.307.108.581.156.831a8.833,8.833,0,0,1,.226,1.647,1.78,1.78,0,0,0,.221.752,1.3,1.3,0,0,1,.167,1.006,21.29,21.29,0,0,0-.388,2.2l-.382,1.327a10.038,10.038,0,0,1,.382,2v5.3c0,.676-.18,2.659-.182,2.678l.782,1.99v2l.175,1.771-.388,1.133.751,1.308c-.006.017-.542,1.122-.37,1.586a.3.3,0,0,0,.163.179,2.2,2.2,0,0,0,.513.126c.422.068.82.133.82.769,0,.876-.192,3.708-.194,3.736l-.376,1.815c0,.013.375,1.952.57,2.653.182.644.56,2.589.576,2.671l-.181,1.991v1.552a4.617,4.617,0,0,1,.951,2.86l.557,1.758.181,2.015a14.485,14.485,0,0,1,.569,3.116l-.181,1.752-.388,1.333V131.2l-.563,1.314.951,1.984.544,1.777-.363,1.1-.382,2.215.2,1.777-.388,2.885c0,.017-.181,1.775-.181,2.428a2.711,2.711,0,0,0,.235.935,4.085,4.085,0,0,1,.334,1.512v2.441l.181,1.765.363,4.412-.544,1.564-.57,1.558.369,2.19.2,2.009c0,.013.181,1.37.181,2,0,.657-.18,2.212-.181,2.228s-.567,1.087-.2,1.765a2.4,2.4,0,0,1,.382,2.2c-.379.689-.183,6.382-.181,6.439a1.913,1.913,0,0,1,.369,1.114v2.66c0,.011-.257.937-.024,1.243a.239.239,0,0,0,.2.1c.572,0,1.133,1.1,1.139,1.114l-.757,1.539-.382,2.222-.363,1.765v1.114l.188,1.765-.369,2.24a10.017,10.017,0,0,0-.57,2.2v2.215l-.175,1.327-.763,1.327-.188,1.539-.97,1.8-1.139,1.564L153.4,210.05c-1.3,1.089-2.454,1.987-2.466,2a5.232,5.232,0,0,1-1.448.3,1.108,1.108,0,0,1-.429-.07,9.927,9.927,0,0,0-2.265-.225,4.688,4.688,0,0,0-2.249-1.137,1.033,1.033,0,0,0-.223.023c-.877.213-1.608.432-1.689.457l-8.862,1.127c-.726-.671-3.353-.9-3.379-.9a6.915,6.915,0,0,0-1.708-.457,6.376,6.376,0,0,0-1.884.232,12.051,12.051,0,0,1-2.635.225H123.6a4.116,4.116,0,0,0-1.9.432l-4.128.669Zm-6.965-5.757h0l1.845.231h2.929l1.308.219,2.553-.219,2.39-.914c.014,0,1.648.117,3.065.117a8.778,8.778,0,0,0,1.741-.117l1.834-.4,1.1-.914a13.351,13.351,0,0,0,2.409-.244,4.434,4.434,0,0,1,.6-.1,7.8,7.8,0,0,0,.887-.1l1.1-.2a7.4,7.4,0,0,1,1.287-.117,4.743,4.743,0,0,1,1.1.117l1.089-.688,2.779.225a12.577,12.577,0,0,1,1.809-1.1h2.566l.951-1.99.544-1.358,1.846-4.412c.038-.082.923-2,1.289-2.672.366-.634,1.075-1.989,1.082-2V188.11l-.344-2.666-.181-1.283,1.1-1.114.551-1.577-.194-1.333.194-1.777-.194-1.333a4.548,4.548,0,0,1-1.27-1.5,3.965,3.965,0,0,1-.091-1.02,3.964,3.964,0,0,0-.091-1.02,3.127,3.127,0,0,1,.067-1.361,4.811,4.811,0,0,0,.115-.873v-1.965l1.1-3.773.369-2.2.375-1.765.181-2.434-.557-1.37a6.468,6.468,0,0,0-1.289-2.9l-1.289-1.07.745-1.564.713-1.984.4-2.434.169-2.409-.376-1.352-.194-3.1a3.335,3.335,0,0,0-1.8-1.333c-.216-.044-.331-.116-.341-.213-.034-.337,1.223-.883,1.236-.889l.9-4.424c.016-.024,1.49-2.241.751-3.116a2.923,2.923,0,0,1-.354-2.159,3.168,3.168,0,0,0,0-.932,14.869,14.869,0,0,1-.211-2.246,19.264,19.264,0,0,0-.19-2.2,39.277,39.277,0,0,1,.4-5.288l-2.053-1.777-.72-3.786a9.745,9.745,0,0,0,.376-2.879,8.975,8.975,0,0,1,.513-3l.025-.087c.173-.655-.9-2.194-.914-2.209a19.3,19.3,0,0,1-1.464-2.441,3.519,3.519,0,0,1,0-2.441c.2-.653.752-3.953.757-3.986l.914-6.007,1.264-3.554-.382-4.406-.713-3.992-.57-3.993-.156-1.99.726-2.885c-.034,0-1.65-.213-2.222-.213a.108.108,0,0,1-.088-.046c-.334-.425.462-3.719.47-3.752a54.723,54.723,0,0,0-.751-5.526l1.308-2.66-1.483-2.2-.751-4.218.588-5.088.532-2.021.557-6.633L146.12,28.6V24.387l.751-1.777c0-.027-.2-3.308-.382-3.992-.172-.652-.906-2.658-.914-2.678,0,0-1.994-1.957-2.947-2.879a26.535,26.535,0,0,0-3.135-2.222l-3.123-.2-2.209.457-3.492-.257-4.224-.876-.951,1.133-4.036.651-3.479-1.32c-.02-.009-2.043-.911-2.591-1.1a1.209,1.209,0,0,0-.471-.074,6.9,6.9,0,0,0-1.569.268l-4.787.213h-1.627l-3.673.907H99.393l-4.237.67L94.6,9.731h-2.04L87.6,9.518,85.219,7.991,82.985,9.518l-3.661-.67h-3.68l-2.922.67-2.234.444-4.243.876H59.086l-2.947.907-1.508.225-4.743.213-.2-1.346-4.775-.632c-.718.053-3.019.219-3.5.219-.539,0-1.079,1.056-1.1,1.1l-4.781.882L32.2,11.746l-2.766.663-2.021-1.984-1.834,1.1H22.641l-2.591.219-2.409.438c-.013.016-1.633,2-1.633,3.335,0,1.32-2.348,3.538-2.372,3.561l-1.126,1.089-.576,1.539a20.448,20.448,0,0,1-.163,2.678l-.357,1.3.519,2.916-.72,1.758-.538,1.108v1.783l.538,1.521-.188,1.358a19.235,19.235,0,0,1,.544,3.1l.363,6.2.219,2.66L11.934,49.4v1.984l-.163,2.91-.2,2.653-.544,1.783.188,1.089.2,1.777v2.015l.519,2.184-.419.895-.3,2-.338,3.342.15,1.746.745,1.79v2.222l.163,1.533.576,2.441.363,1.345a12.686,12.686,0,0,1-.363,3.091c-.039.183-.95,4.476-1.3,5.313l-.338,1.352-.2,1.552v2.178l-.207,1.37.407,1.977.15,1.339-.15,1.32.15,1.984-.15,2.879.538,7.534.156,2.653.363,1.345a31.452,31.452,0,0,1-.163,3.317c-.015.092-.357,2.251-.357,2.879l-.2,2.234a15.591,15.591,0,0,1-.188,2.428l.188,1.564.357,1.765a5.123,5.123,0,0,1-.895,2.409,8.245,8.245,0,0,0,0,2.466,3.82,3.82,0,0,1-.388,2.647v5.119a4.348,4.348,0,0,0,.738,2.622l.745,4.887a3.1,3.1,0,0,0,.738,2,2.4,2.4,0,0,1-.576,2l-1.258.839-.207,1.821v1.765l-.35,2.228-.194,1.089a17.292,17.292,0,0,0,.194,2.66c.039.2.068.4.1.6a4.533,4.533,0,0,0,.659,2.045l-.951,5.77-.544,1.527a3.445,3.445,0,0,0,.206,1.821,3.978,3.978,0,0,1-.059,2.253c-.05.269-.1.549-.147.839a17.57,17.57,0,0,0,0,3.11,7.887,7.887,0,0,0,.544,1.539l-.338,1.99.15,1.352-.532,1.314,2.009,1.126c.017.03,2.048,3.774,2.6,4.643l1.083,1.1c.015.018,1.5,1.776,1.5,2.66l1.834,1.339,2.009,1.1.382.87a5,5,0,0,0,1.685.511.762.762,0,0,0,.342-.067,15.544,15.544,0,0,1,2.753-.2l1.834.488a2.771,2.771,0,0,1,1.471.426.589.589,0,0,0,.345.11,1.614,1.614,0,0,0,.951-.535,4.58,4.58,0,0,1,1.649-.336,3.153,3.153,0,0,1,.56.048,7.692,7.692,0,0,0,2.209-.444,6.451,6.451,0,0,1,2.4-.87l2.941-1.1c.013.007.125.091.306.227.488.367,1.482,1.114,2.285,1.738h0a11.108,11.108,0,0,0,1.206.066,5.3,5.3,0,0,0,1.9-.272,11.9,11.9,0,0,1,1.41-.089,6.4,6.4,0,0,1,1.143.089l1.683-.463a6.642,6.642,0,0,0,1.124.117,1.776,1.776,0,0,0,.728-.117.5.5,0,0,1,.178-.029,2.974,2.974,0,0,1,2.212,1.856l1.452.663,1.671.188,1.652.463h2.409a24.7,24.7,0,0,1,2.9-.3,1.719,1.719,0,0,1,.575.065.476.476,0,0,0,.188.032,8.484,8.484,0,0,0,2.409-.914H69.75l2.046.2a4.035,4.035,0,0,1,.488-.029c.478,0,1.1.083,1.321.48h3.5a4.475,4.475,0,0,1,1.339-.27,1.375,1.375,0,0,1,.507.082,6.34,6.34,0,0,0,1.5.188l1.821.463,2.766-.463,2.365.232a16.763,16.763,0,0,1,2.9-.48,1.113,1.113,0,0,1,.429.06,4.2,4.2,0,0,0,.971.076,12.781,12.781,0,0,0,3.247-.339,10.563,10.563,0,0,1,3.135.451l1.84.463,2.591-.232a30.461,30.461,0,0,1,3.861.232Z" transform="translate(-5459 446.025)" fill="#fff"/>
    <path id="Path_7" data-name="Path 7" d="M46.074,56.359c-.188.556-.57,1.37-.3,1.9.3.57,1.293,1.384,1.224,1.794-.1.5.716.855.716.855l.813.654.181.973s.1.57.16,1.022a3.6,3.6,0,0,0,.751,1.182,2.6,2.6,0,0,0,1.1.827c.431.174,1.085.271,1.37.654.3.348.911.257,1.467.348a2.844,2.844,0,0,1,1.655.466,3.944,3.944,0,0,0,2.26.73c.445-.1,1.829.508,1.912.911.1.355,1.085,1.453,1.085,1.836a12.2,12.2,0,0,0,.195,1.384s-1.279,2.239-1.481,2.781c-.153.549-.341,2.663-.341,2.663a6.258,6.258,0,0,1,.083,1.551c-.083.355-.64,1.85-.64,1.85l-.271,1.8-.181.807s.083,1.015-.188,1.356c-.285.382-.994,1.822-.994,1.822l-.716,1.843s-.668.556-.382,1.085c.271.563.382,1.738.925,2.288s.994,1.752,1.808,2.037c.841.257,1.822.6,1.912,1.14.1.57,1.655,1.314,1.655,1.773a1.111,1.111,0,0,0,1.092,1.168,2.592,2.592,0,0,0,2.093-2.009,24.371,24.371,0,0,1,.813-4.109,14.844,14.844,0,0,1,1.738-3.817A6.95,6.95,0,0,0,68.755,84.7c.118-.341.362-1.606.362-1.606l.925-1.669s1.022-1.085,1.467-1.453l1.1-.814a7.879,7.879,0,0,0,.911-1.37,13.022,13.022,0,0,0,.64-1.822,31.549,31.549,0,0,0,.355-4.186c0-1.571,0-3.762.556-4.832.542-1.113,1.627-3.393,2.023-4.005a17.623,17.623,0,0,0,.786-2.552l1.008-.556s.285-.827.487-1.293c.153-.445.966-1,.966-1S82.1,53.9,82.466,53.258a14.374,14.374,0,0,0,1.453-3.212c0-.521,1.363-3.616-2.023,0-3.365,3.664-2.183,2.753-2.468,3.484-.257.723-.723,2.107-1.238,2.336-.584.3-.654,1.279-1.029,1.578s-.807,1.564-1.182,1.982c-.369.5-1.092,2.009-1.648,2.239a3.528,3.528,0,0,0-1.557,1.078c-.056.271-1.982,1.815-2.19.445-.174-1.356-.243-3.261.3-3.977.528-.765.083-2.135.528-2.76a8.753,8.753,0,0,0,.807-2.468l-.438-1.1s-.716-.994-1.439-.7a22.174,22.174,0,0,0-2.308,1.071s-.626.452-.626.994a1.719,1.719,0,0,1-.827,1.467,1.486,1.486,0,0,0-.73.64s-.612.911-.813,1.272c-.181.355-.264,1.578-1.092,1.634a10.159,10.159,0,0,1-5.1.1,28.1,28.1,0,0,1-5.389-2.295,7.989,7.989,0,0,0-1.836-.445,2.146,2.146,0,0,0-1.279-.466,2.982,2.982,0,0,1-1.154-.077l-1.467-.452S46.345,55.636,46.074,56.359Z" transform="translate(-5483.429 540.811)" fill="#fff"/>
    <path id="Exclusion_3" data-name="Exclusion 3" d="M.789,56.137c-.431,0-.688-.133-.764-.394-.35-1.2,3.133-4.7,3.584-4.989.112-.079.3-.2.53-.358,1.116-.746,3.169-2.118,3.4-2.683a2.449,2.449,0,0,1,1.089-1.1l.063-.069c1.223-1.332,2.237-2.424,2.853-3.072a13.809,13.809,0,0,0,1.988-3.517,10.658,10.658,0,0,1,1.159-2.184,4.3,4.3,0,0,0,.9-1.821,7.179,7.179,0,0,0,.413-1.527,7.372,7.372,0,0,0-.054-.982,3.2,3.2,0,0,1,.035-1.427.478.478,0,0,1,.278-.22c.075-.03.139-.056.167-.126.05-.126-.024-.385-.258-.893a3.986,3.986,0,0,1,.1-2.81c.976-.495.31-2.849-.338-4.218-.723-1.52-.924-5.455-.926-5.494C14.893,3,26.26.353,26.375.328A14.082,14.082,0,0,1,29.3,0a9.088,9.088,0,0,1,8.534,5.426c1.132,2.3,1.323,4.551,1.1,4.846a17.84,17.84,0,0,1-1.357,1.6c0,.006.129,1.368.23,1.716.055.347-.922.813-.964.832a2.147,2.147,0,0,0,.294,1.5.4.4,0,0,1,.113.3c-.019.3-.393.63-.722.917-.12.1-.236.205-.329.3a3.333,3.333,0,0,1-1.327.926c-.385.127-1.125,1.541-1.567,2.386-.151.288-.269.515-.335.618-.213.432-.493,1.311-.207,1.483a4.4,4.4,0,0,0,1.348.243,1.309,1.309,0,0,0,.792-.2.308.308,0,0,1,.2-.069c.519,0,1.321,1.122,1.585,1.49l.044.062a2.958,2.958,0,0,0,.652.52,3.031,3.031,0,0,1,1.076.988,2.216,2.216,0,0,1-.162,1.491,1.486,1.486,0,0,1-.627.831,4.933,4.933,0,0,0-1.514,2.61c-.087.648-1.073,1.041-1.083,1.045s-.346-.022-.713-.022c-.218,0-.406.008-.557.022a5.288,5.288,0,0,0-2.334,1.308,6.571,6.571,0,0,1-3.429,1.383c-.238.026-.319.353-.406.7-.1.4-.211.846-.583.9-1.361.25-3.668,2.841-4.5,4.4-.028.041-2.792,4.047-2.522,5.5a.6.6,0,0,0,.244.407,2.969,2.969,0,0,0,1.73.615,5.046,5.046,0,0,0,1.129-.169l.145-.033c.917-.26,7.344-2.32,7.409-2.34,1.174-.342,2.166-.652,2.889-.879.557-.174.95-.3,1.185-.36A19.075,19.075,0,0,0,39.5,41.7a7.364,7.364,0,0,1,2.605-.626,5.932,5.932,0,0,0,2.213-.525,27.021,27.021,0,0,1,3.423-1.74,7.469,7.469,0,0,0,2.678-.5A7.843,7.843,0,0,1,53,37.578c.505-.09,1.077-.193,1.717-.335l2.028-.426,2.021-.77,1.308.238,1.521-.795,1.615-.332a13.282,13.282,0,0,0,1.994.164,7.477,7.477,0,0,0,1.022-.064,11.194,11.194,0,0,1,1.668-.1c.725,0,1.465.039,2.06.071l.036,0c.215.011.412.022.585.029.259.027.469.05.663.072.575.064,1.029.115,2.228.185l.265.023c1.731.147,6.328.539,7.526,1.079a1.887,1.887,0,0,1,1.266,1.34A1.075,1.075,0,0,1,82,38.963a8.346,8.346,0,0,1-3.321.43c-1.213,0-2.313-.072-2.324-.073a12.087,12.087,0,0,0-2.078.144,2.62,2.62,0,0,1-.623.05c-.505,0-1.1-.05-1.1-.05-.3.043-1.819.251-2.432.251a1.419,1.419,0,0,1-.159-.007c-.493-.025-2.223-.025-2.24-.025l-2.584.263a14.713,14.713,0,0,1-1.781.134c-.154,0-.306,0-.447-.015-.039,0-.079,0-.12,0a7.776,7.776,0,0,0-2.4.7h-.109c-1.415-.011-2.242-.026-2.456-.044a20.326,20.326,0,0,0-2.265.419c-.015,0-1.6.495-2.247.595a4.05,4.05,0,0,0-1.345.494l-2.334-.038c-.153.02-1.505.192-2.5.257a1.523,1.523,0,0,0-1.364.951l-1.721.444c-.017,0-1.751.477-2.4.582-.632.087-2.02.112-2.034.113L38,44.721l-2.9.532-1.94.181-1.7.826c-.439.053-1.526.176-2.71.269a18.049,18.049,0,0,0-4.317,2.04,12.175,12.175,0,0,1-2.47,1.233c-.047,0-.084,0-.124,0a28.967,28.967,0,0,0-4.059.641c-.45.089-1,.192-1.582.3-1.57.293-3.35.626-4.269.894A16.906,16.906,0,0,0,7,54.107c-1.3,1.07-1.3,1.07-5.476,1.94A3.691,3.691,0,0,1,.789,56.137ZM29.244,14.323A2.268,2.268,0,0,0,27.4,15.584c-.15.236-.3.473-.454.706a10.831,10.831,0,0,0-1.667,3.173,9.989,9.989,0,0,0-.087,1.448,4.033,4.033,0,0,1-.144,1.387,1.621,1.621,0,0,0,.047,1.192,1.008,1.008,0,0,0,.554.629.643.643,0,0,0,.193.027,4.681,4.681,0,0,0,1.788-.734c.187-.106.343-.2.459-.25.251-.108.248-.184.24-.369a2.25,2.25,0,0,1,.285-1.183,20.127,20.127,0,0,0,1.039-2.483l.025-.07c.1-.253.188-.45.266-.621a3.3,3.3,0,0,0,.348-1.131c.01-.111.031-.252.055-.413.106-.725.266-1.818-.163-2.314a.784.784,0,0,0-.624-.258,1.454,1.454,0,0,0-.181.012A.839.839,0,0,0,29.244,14.323Z" transform="translate(-5401.808 552.337)" fill="#fff"/>
    <path id="Exclusion_4" data-name="Exclusion 4" d="M18.78,50.369h-3.26a3.731,3.731,0,0,1-1.877-.494,8.1,8.1,0,0,0-2.272-.632c-.032-.01-3.195-1.008-3.717-1.1a13.167,13.167,0,0,1-1.809-.494c-.185-.06-.323-.1-.4-.125-.415-.136-1.852-.892-1.852-1.2,0-.194-1.118-.441-1.708-.544A7.119,7.119,0,0,1,.657,43.849a4.843,4.843,0,0,1-.626-2.184,2.234,2.234,0,0,1,1.126-1.17,3.383,3.383,0,0,1,.993-.113c.306,0,.552.018.559.019l1.483.175,1.683.181,1.677-.088,1.145.357h.995l.269-.914,1.026-.526h.644a2,2,0,0,1,.607-1.02,2.826,2.826,0,0,1,1.308-.314c.157-.015.309-.03.463-.049.717-.1,3.123-.275,3.542-.275a7.934,7.934,0,0,0,2.453-.82,1.769,1.769,0,0,1,.942-.187c.141,0,.284,0,.42.01s.245.009.353.009a1.055,1.055,0,0,0,.736-.465,1.338,1.338,0,0,1,.4-.348,3.367,3.367,0,0,1,1.182-.121c.437,0,.823.02.833.02h1.164l1.076-.457a6.516,6.516,0,0,1,1.126-.657c.387-.07,1.8-.175,2.14-.175a6.912,6.912,0,0,0,1.038-.15,5.926,5.926,0,0,0,.815-.87,2.741,2.741,0,0,1,1.589-.432c.316,0,.635-.4.944-.777a3.385,3.385,0,0,1,.646-.675,1.455,1.455,0,0,1,.914-.276c.1,0,.195.005.284.011s.154.009.222.009c.22,0,.378-.277.531-.546a2.17,2.17,0,0,1,.27-.406c.039-.043.079-.091.121-.14a1.217,1.217,0,0,1,.931-.573c.5,0,.615-.834.7-1.444l.013-.1a7.648,7.648,0,0,1,.579-1.57c.414-.973,1.04-2.442,1.968-4.925a5.351,5.351,0,0,0-.595-5.145,6.043,6.043,0,0,0-3.986-2.69,13.785,13.785,0,0,1-2.119-.115c-.185-.024-.38-.049-.635-.073q-.23-.022-.448-.022a3.64,3.64,0,0,0-1.848.479,4.307,4.307,0,0,0-.944.722l-.107.1c-.275.251-1.361.256-1.395.257,0,0,0,.012-.011.029a2.756,2.756,0,0,1-.916,1.266,2.33,2.33,0,0,0-1.139.732,7.834,7.834,0,0,1-.894.947c-.42.416-1.018,1.008-1.859,1.869-1.907,2.025-1.311,7.1-.695,8.2a12.164,12.164,0,0,0,2.134,2.378c-3.651-1.264-5.552-5.037-5.757-5.463a5.781,5.781,0,0,1,.163-4.556,13.837,13.837,0,0,0,1.521-4.374.622.622,0,0,0-.716-.75,4.229,4.229,0,0,0-.811.112l-.054.011a3.754,3.754,0,0,1-.669.1.537.537,0,0,1-.159-.02.286.286,0,0,0-.1-.016,4.6,4.6,0,0,0-1.654.935,5.5,5.5,0,0,1-1.126.708,6.449,6.449,0,0,0-1.368.968,4.712,4.712,0,0,1-1.436.972.122.122,0,0,1-.056-.012.178.178,0,0,0-.094-.024c-.379,0-1.114.894-1.146.932l-.419,1.007-1.533.926a5.95,5.95,0,0,1-1.252.788c-.334.093-.416,1.33-.419,1.383l-1.17.081a4.719,4.719,0,0,1-1.308.826,1.245,1.245,0,0,0-.363.1,2.233,2.233,0,0,1-.765.172,1.253,1.253,0,0,1-.255-.026l-.048,0a.259.259,0,0,0-.194.074c-.147.148-.146.5-.144.9a3.637,3.637,0,0,1-.1,1.057c-.192.639-.688.668-1.315.706-.174.01-.358.021-.55.045-.092.007-.175.01-.25.01-.628,0-.716-.237-.876-.667a2.3,2.3,0,0,0-.732-1.1A7.826,7.826,0,0,1,.031,25.181c-.172-.375.425-1.012.45-1.039h0a.572.572,0,0,1-.012-.08c-.025-.2-.082-.673-.082-.909a3.4,3.4,0,0,1,1.045-2.1,26.21,26.21,0,0,0,1.91-1.841c.878-.891,1.872-1.9,2.615-2.521,1.145-.962,4.79-5.3,6.346-7.151.369-.439.627-.746.726-.859l.763-.288a2.3,2.3,0,0,0,.5-.976c0-.365.322-.722,1.327-1.471a1.471,1.471,0,0,1,.861-.352.663.663,0,0,1,.53.236.578.578,0,0,1,.118.486l-.037.16c-.553,2.4-1.13,3.8-1.715,4.158a2.043,2.043,0,0,0-.907,1.683.712.712,0,0,0,.081.642,1.488,1.488,0,0,0,1.2.364,9.509,9.509,0,0,0,2.063-.3,9.725,9.725,0,0,1,1.058-.15,9.6,9.6,0,0,0,1.139-.188c.477-.237,2.839-1.4,3.454-1.564.7-.17,8.778-3.343,9.122-3.478.024-.011,2.235-.985,2.555-1.071.3-.07,7.086-1.564,7.691-1.564a6.974,6.974,0,0,0,2.046-.726L46.383,4.1l1.126-.2c.008,0,1.01-.088,1.621-.15A2.763,2.763,0,0,0,50.281,3.1l1.94-.069.064-.037c1.21-.678,1.579-.865,1.676-.9.2-.078,1.6-.318,2.736-.511.586-.1,1.08-.184,1.257-.221.524-.08,3.7-.887,3.73-.895.157-.01.934-.056,1.586-.056a4.417,4.417,0,0,1,.867.056.9.9,0,0,0,.13.008A10.28,10.28,0,0,0,66.358,0a31.159,31.159,0,0,1,3.116.163,2.659,2.659,0,0,1,1.84,1.014c.274.175,1.6,1.043,1.683,1.364.061.26.664.549,1.2.8.225.108.437.209.568.292.453.261,1.4.988,1.414.995L77.265,5.82a18.608,18.608,0,0,1,2.8,1.652,4.443,4.443,0,0,0,.515.4,14.005,14.005,0,0,1,4.51,4.865c1.385,2.832-.2,4.086-.951,4.493-.336.187-1.751,1.439-1.765,1.452l-1.427,1.008-.269,1.452c-.014.006-.094.02-.219.042-.328.058-1.01.179-1.44.233a8.685,8.685,0,0,0-1.615.538,6.371,6.371,0,0,1-1.145.732c-.242.112-2.109.757-2.128.763l-2.378,1.07c-.014,0-1.526.283-3.529.826-1.435.386-5.218,2.69-7.981,4.373-1.16.706-2.161,1.316-2.8,1.672a6.363,6.363,0,0,0-2.854,2.516,17.5,17.5,0,0,0-2.109,1.815,3.857,3.857,0,0,1-2.466,1.383c-.437,0-1.1.814-1.69,1.533a5.251,5.251,0,0,1-.876.945c-.5.249-2.331,1.39-2.409,1.439l-1.3.457-1.17,1.108-1.489.257-1.252.839a8.368,8.368,0,0,0-1.94.914c-.334.4-1.942.524-1.959.526l-.03.029a14.384,14.384,0,0,1-2.072,1.63,5.533,5.533,0,0,1-1.4.169,16,16,0,0,1-2.553.826,1.378,1.378,0,0,0-.667.256,3.973,3.973,0,0,1-1.11.5c-1.2.338-2.591.828-3.8,1.264A40.7,40.7,0,0,1,18.78,50.369ZM58.189,3.753c-1.618,0-3.5.114-4.647.227A4.882,4.882,0,0,0,49.51,7.645c-.227.828-.174,1.509.133,1.736a52.828,52.828,0,0,1,4.518,4.887c.906,1.073.718,6.138-.088,9.28a4.343,4.343,0,0,0,.294,3.616,2.184,2.184,0,0,0,1.671.877c.041,0,.083,0,.125,0a7.97,7.97,0,0,0,3.288-1.379,5.974,5.974,0,0,1,.836-.459,26.09,26.09,0,0,0,4.23-2.9,22.215,22.215,0,0,1,4.643-2.309c.329-.043.837-.69,1.375-1.376.561-.715,1.14-1.454,1.548-1.534.562-.119.458-1.141.375-1.962a4.619,4.619,0,0,1-.043-.829,2.371,2.371,0,0,0-.087-.918,2.27,2.27,0,0,1-.088-.853A6.2,6.2,0,0,0,72,10.451l-.075-.108a5.956,5.956,0,0,0-2.76-2.458A12.031,12.031,0,0,1,65.9,5.92c-.33-.248-.612-.46-.841-.613a13.541,13.541,0,0,0-3.9-1.327A13.846,13.846,0,0,0,58.189,3.753Z" transform="translate(-5406.766 603.009)" fill="#fff"/>
  </g>
</svg>
