<svg xmlns="http://www.w3.org/2000/svg" width="33.84" height="31.157" viewBox="0 0 33.84 31.157">
  <g id="Group_99" data-name="Group 99" transform="translate(-288.994 -375.11)">
    <path id="Path_53" data-name="Path 53" d="M296.2,375.11c-3.917,0-6.588,2.849-6.588,6.855,0,3.828,2.582,6.5,6.232,6.5a5.956,5.956,0,0,0,2.347-.519c-.444,6.141-3.746,10.82-9.2,13.96l2.4,4.362c8.012-4.1,12.819-11.484,12.819-20.386C304.217,379.116,300.834,375.11,296.2,375.11Z" transform="translate(0 0)" fill="#c9b5a5"/>
    <path id="Path_54" data-name="Path 54" d="M327.1,375.11c-3.916,0-6.587,2.849-6.587,6.855,0,3.828,2.582,6.5,6.231,6.5a5.958,5.958,0,0,0,2.348-.519c-.445,6.141-3.746,10.82-9.2,13.96l2.4,4.362c8.012-4.1,12.819-11.484,12.819-20.386C335.11,379.116,331.728,375.11,327.1,375.11Z" transform="translate(-12.277 0)" fill="#c9b5a5"/>
  </g>
</svg>
