<svg id="service-3" xmlns="http://www.w3.org/2000/svg" xmlns:xlink="http://www.w3.org/1999/xlink" width="61.037" height="80" viewBox="0 0 61.037 80">
  <defs>
    <clipPath id="clip-path">
      <rect id="Rectangle_246" data-name="Rectangle 246" width="61.037" height="80" fill="#c9b5a5" stroke="#fff" stroke-width="2"/>
    </clipPath>
  </defs>
  <g id="Group_425" data-name="Group 425" clip-path="url(#clip-path)">
    <path id="Path_1474" data-name="Path 1474" d="M61.037,66.214c-.178-10.872-11.294-14.084-19.411-16.43-.947-.274-1.858-.537-2.711-.8V44.5a15.983,15.983,0,0,0,4.286-3.94h4.944a4.393,4.393,0,0,0,4.388-4.388V30.859a5.634,5.634,0,0,0,.456-2.226V26.981a5.627,5.627,0,0,0-.456-2.225v-2.74a22.013,22.013,0,1,0-44.026,0v2.662c0,.021,0,.041,0,.062a5.626,5.626,0,0,0-.464,2.241v1.652A5.668,5.668,0,0,0,13.706,34.3H15a15.9,15.9,0,0,0,7.125,10.2v4.486c-.854.263-1.764.526-2.711.8C11.294,52.13.178,55.342,0,66.214c0,.009,0,.017,0,.026v12.2A1.563,1.563,0,0,0,1.563,80H6.2a1.563,1.563,0,0,0,0-3.125H3.125V66.253c.066-3.793,1.808-6.637,5.483-8.949a35.809,35.809,0,0,1,8.313-3.522L20.7,61.138a1.579,1.579,0,0,0,2.264.582l1.683-1.135,1.445,5.432L23.612,76.875H20.226a1.563,1.563,0,0,0,0,3.125H59.475a1.563,1.563,0,0,0,1.563-1.563V66.24c0-.008,0-.017,0-.026M40.759,52.786l.311.09-2.7,5.268-5.055-3.409L37.6,51.847c1,.313,2.053.619,3.162.94M30.52,56.621l3.133,2.113-1.514,5.692H28.9l-1.514-5.69Zm0-3.769L25.247,49.3V46.007a15.834,15.834,0,0,0,10.543,0V49.3ZM43.248,22.3l-.064-.041c-3.206-2.041-5.975-3.8-10.314-2.562-.04.012-.08.025-.119.039-.92.345-1.756.668-2.565.979-4.941,1.9-7.639,2.941-12.4,2.807V22.273a12.73,12.73,0,1,1,25.459,0V22.3Zm6.161,13.869a1.264,1.264,0,0,1-1.263,1.263H45.032A15.713,15.713,0,0,0,46.04,34.3h1.291a5.62,5.62,0,0,0,2.078-.4v2.272Zm.456-7.538a2.539,2.539,0,0,1-2.534,2.539h-.959c0-.039,0-6.725,0-6.725h.958a2.537,2.537,0,0,1,2.534,2.534v1.652ZM13.706,31.172a2.539,2.539,0,0,1-2.534-2.539V26.981a2.537,2.537,0,0,1,2.534-2.534h.958s0,6.686,0,6.725Zm.987-9.85h-.987a5.627,5.627,0,0,0-2.07.394,18.887,18.887,0,0,1,37.769,0,5.627,5.627,0,0,0-2.074-.4h-.987a15.854,15.854,0,0,0-31.651,0m3.19,11.254v0a12.8,12.8,0,0,1-.093-1.515V26.649c5.346.13,8.535-1.1,13.519-3.015.785-.3,1.6-.615,2.48-.947,2.952-.824,4.65.257,7.718,2.21.532.339,1.116.71,1.742,1.092v5.067a12.648,12.648,0,0,1-1.72,6.379H30.519a1.563,1.563,0,0,0,0,3.125h8.457a12.718,12.718,0,0,1-21.093-7.984m4.789,25.569-2.7-5.268.311-.09c1.108-.32,2.167-.627,3.162-.94l4.285,2.889Zm4.145,18.731,2.126-9.325h3.15l2.13,9.325Zm31.095,0H37.429l-2.48-10.859,1.446-5.434,1.687,1.138a1.578,1.578,0,0,0,2.264-.583l3.771-7.355A35.808,35.808,0,0,1,52.429,57.3c3.675,2.312,5.418,5.155,5.484,8.949V76.875Z" fill="#c9b5a5" stroke="#fff" stroke-width="2"/>
    <path id="Path_1475" data-name="Path 1475" d="M280.188,441.995h-7.875a1.563,1.563,0,0,0,0,3.125h7.875a1.563,1.563,0,0,0,0-3.125" transform="translate(-228.446 -372.933)" fill="#c9b5a5" stroke="#fff" stroke-width="2"/>
    <path id="Path_1476" data-name="Path 1476" d="M76.11,492a1.563,1.563,0,1,0,0,3.125h0a1.563,1.563,0,0,0,0-3.125" transform="translate(-62.899 -415.123)" fill="#c9b5a5" stroke="#fff" stroke-width="2"/>
  </g>
</svg>
