<svg id="service-2" xmlns="http://www.w3.org/2000/svg" xmlns:xlink="http://www.w3.org/1999/xlink" width="53.805" height="80" viewBox="0 0 53.805 80">
  <defs>
    <clipPath id="clip-path">
      <rect id="Rectangle_245" data-name="Rectangle 245" width="53.805" height="80" fill="#c9b5a5" stroke="#fff" stroke-width="1.5"/>
    </clipPath>
  </defs>
  <g id="Group_423" data-name="Group 423" clip-path="url(#clip-path)">
    <path id="Path_1465" data-name="Path 1465" d="M57.8,160.117a4.038,4.038,0,0,0,3.787,2.691h8.072a4.036,4.036,0,0,0,4.036-4.036V148.009a3.993,3.993,0,0,0-1.182-2.853,5.014,5.014,0,0,1-1.442-2.541,1.345,1.345,0,0,0,1.279-1.332V135.9a1.345,1.345,0,0,0-1.346-1.345H69.661v-2.691a4.036,4.036,0,0,0-7.7-1.66,21.959,21.959,0,0,0-2.175-2.263,23.5,23.5,0,0,1-7.609-17.6,1.345,1.345,0,0,0-1.345-1.345v-4.036a1.345,1.345,0,1,0-2.691,0v4.036H42.755v-6.727c0-.031-.014-.056-.017-.086s.013-.067.009-.1a1.181,1.181,0,0,0-.079-.241,1.033,1.033,0,0,0-.04-.127,1.345,1.345,0,0,0-1.368-.818,4.722,4.722,0,0,1-3.48-1.016,1.345,1.345,0,0,0-1.694,2.09,7.383,7.383,0,0,0,3.979,1.588v5.439a1.346,1.346,0,0,0-1.345,1.345A24.494,24.494,0,0,1,36.769,120a22.361,22.361,0,0,1-5.658,7.945,21.518,21.518,0,0,0-7.189,16.031,18.847,18.847,0,0,0,18.834,18.834h5.381a18.579,18.579,0,0,0,9.666-2.691m13.2-1.346a1.345,1.345,0,0,1-1.345,1.346H61.589a1.345,1.345,0,0,1-1.345-1.346v-1.345H71.007Zm0-4.036H60.244v-2.691H71.007Zm-.393-7.677a1.329,1.329,0,0,1,.393.95v1.345H60.244v-1.345a1.332,1.332,0,0,1,.394-.951,7.366,7.366,0,0,0,2.262-4.43h5.452a7.377,7.377,0,0,0,2.262,4.431M64.28,131.865a1.345,1.345,0,1,1,2.691,0v2.691H64.28Zm-1.345,5.381h6.726v2.691H61.589v-2.691ZM31.343,155.385a16.038,16.038,0,0,1-4.732-11.412,18.825,18.825,0,0,1,6.294-14.026,25.038,25.038,0,0,0,6.339-8.9,27.018,27.018,0,0,0,2.135-9.366h8.136a26.063,26.063,0,0,0,8.475,18.261,18.968,18.968,0,0,1,3.6,4.364v.245H60.244A1.345,1.345,0,0,0,58.9,135.9v5.381a1.346,1.346,0,0,0,1.279,1.332,5.017,5.017,0,0,1-1.44,2.539,4,4,0,0,0-1.185,2.855v9.054a15.905,15.905,0,0,1-9.417,3.054H42.755a16.036,16.036,0,0,1-11.412-4.732" transform="translate(-19.892 -82.807)" fill="#c9b5a5" stroke="#fff" stroke-width="1.5"/>
    <path id="Path_1466" data-name="Path 1466" d="M89.728,407.213a12.018,12.018,0,0,1-8.646-3.633,1.346,1.346,0,0,0-1.921,1.884A14.689,14.689,0,0,0,89.728,409.9a1.345,1.345,0,0,0,0-2.691" transform="translate(-65.52 -335.284)" fill="#c9b5a5" stroke="#fff" stroke-width="1.5"/>
    <path id="Path_1467" data-name="Path 1467" d="M58.947,356.391a1.345,1.345,0,1,0-2.677.269A14.708,14.708,0,0,0,57.43,361.1a1.346,1.346,0,0,0,1.234.807,1.324,1.324,0,0,0,.539-.113,1.345,1.345,0,0,0,.7-1.77,12.038,12.038,0,0,1-.95-3.633" transform="translate(-46.788 -295.36)" fill="#c9b5a5" stroke="#fff" stroke-width="1.5"/>
    <path id="Path_1468" data-name="Path 1468" d="M133.14,33.377a6.187,6.187,0,0,0-3.434-5.557,1.346,1.346,0,1,0-1.2,2.408,3.5,3.5,0,0,1,1.946,3.149V34.4a1.345,1.345,0,0,0,2.691,0Z" transform="translate(-106.241 -23.016)" fill="#c9b5a5" stroke="#fff" stroke-width="1.5"/>
    <path id="Path_1469" data-name="Path 1469" d="M265.547,12.936a1.345,1.345,0,0,0,1.864-.375A9.416,9.416,0,0,0,265.842.334a1.345,1.345,0,0,0-1.795,2,6.726,6.726,0,0,1,1.122,8.733,1.345,1.345,0,0,0,.377,1.864" transform="translate(-219.212 0)" fill="#c9b5a5" stroke="#fff" stroke-width="1.5"/>
    <path id="Path_1470" data-name="Path 1470" d="M187.13,71.409a1.346,1.346,0,0,0-.8,1.228v.112a4.707,4.707,0,0,1-2.095,3.86,1.346,1.346,0,1,0,1.5,2.235,7.4,7.4,0,0,0,2.932-3.881,9.516,9.516,0,0,0,7.533.556,1.345,1.345,0,0,0-.9-2.536,6.809,6.809,0,0,1-6.727-1.345,1.346,1.346,0,0,0-1.446-.229" transform="translate(-152.712 -59.286)" fill="#c9b5a5" stroke="#fff" stroke-width="1.5"/>
    <path id="Path_1471" data-name="Path 1471" d="M47.883,74.7a1.345,1.345,0,0,0,1.345,1.345,9.37,9.37,0,0,0,4.391-1.093c.02.065.043.135.066.2a1.346,1.346,0,0,0,1.269.9,1.368,1.368,0,0,0,.448-.077,1.345,1.345,0,0,0,.821-1.716,4.715,4.715,0,0,1-.269-1.513v-.112a1.345,1.345,0,0,0-2.245-1,6.7,6.7,0,0,1-4.48,1.729A1.345,1.345,0,0,0,47.883,74.7" transform="translate(-39.818 -59.277)" fill="#c9b5a5" stroke="#fff" stroke-width="1.5"/>
    <path id="Path_1472" data-name="Path 1472" d="M4.3,4.063a1.346,1.346,0,0,0-1.9.105,9.417,9.417,0,0,0,.74,13.3,1.345,1.345,0,0,0,1.795-2,6.726,6.726,0,0,1-.53-9.5,1.346,1.346,0,0,0-.105-1.9" transform="translate(0 -3.093)" fill="#c9b5a5" stroke="#fff" stroke-width="1.5"/>
    <rect id="Rectangle_239" data-name="Rectangle 239" width="2.691" height="2.691" transform="translate(16.136 4.662)" fill="#c9b5a5" stroke="#fff" stroke-width="1.5"/>
    <rect id="Rectangle_240" data-name="Rectangle 240" width="2.691" height="2.691" transform="translate(9.41 8.698)" fill="#c9b5a5" stroke="#fff" stroke-width="1.5"/>
    <rect id="Rectangle_241" data-name="Rectangle 241" width="2.691" height="2.691" transform="translate(10.755 1.972)" fill="#c9b5a5" stroke="#fff" stroke-width="1.5"/>
    <rect id="Rectangle_242" data-name="Rectangle 242" width="2.691" height="2.691" transform="translate(30.935 1.972)" fill="#c9b5a5" stroke="#fff" stroke-width="1.5"/>
    <rect id="Rectangle_243" data-name="Rectangle 243" width="2.691" height="2.691" transform="translate(34.971 7.353)" fill="#c9b5a5" stroke="#fff" stroke-width="1.5"/>
    <rect id="Rectangle_244" data-name="Rectangle 244" width="2.691" height="2.691" transform="translate(39.007 3.317)" fill="#c9b5a5" stroke="#fff" stroke-width="1.5"/>
    <path id="Path_1473" data-name="Path 1473" d="M145.082,83.6a1.345,1.345,0,0,0-1.345,1.345v1.345a1.345,1.345,0,0,0,2.691,0V84.943a1.345,1.345,0,0,0-1.345-1.345" transform="translate(-119.529 -69.518)" fill="#c9b5a5" stroke="#fff" stroke-width="1.5"/>
  </g>
</svg>
