<svg xmlns="http://www.w3.org/2000/svg" width="290" height="150" viewBox="0 0 290 150">
  <g id="Group_475" data-name="Group 475" transform="translate(-645 -324)">
    <rect id="Rectangle_280" data-name="Rectangle 280" width="290" height="150" transform="translate(645 324)" fill="#c9b5a5" opacity="0.5"/>
    <g id="Group_474" data-name="Group 474" transform="translate(710 382)">
      <g id="Group_2" data-name="Group 2" transform="translate(0 0)">
        <g id="Group_1" data-name="Group 1" transform="translate(3.922 1.36)">
          <path id="Exclusion_1" data-name="Exclusion 1" d="M7.822,16.042a1.084,1.084,0,0,1-.264-.049L7.393,15.8a.632.632,0,0,1-.176-.117l-.01-.016a.49.49,0,0,0-.289-.25c-.155-.038-.231-.192-.288-.3L6.6,15.059a.5.5,0,0,0-.2-.163.916.916,0,0,1-.085-.052.588.588,0,0,1-.134-.326,1.025,1.025,0,0,0-.1-.254c-.014-.028-.025-.052-.033-.07-.029-.073.078-.175.079-.176a1.813,1.813,0,0,1,.178-.207A.519.519,0,0,0,6.4,13.5c0-.016,0-.04,0-.068-.007-.082-.017-.193.016-.213.048-.031.031-.184.03-.191l-.053-.206s.046-.2.145-.724a.435.435,0,0,0-.062-.374.464.464,0,0,0-.336-.141,4.97,4.97,0,0,0-2.58,1.239,4.449,4.449,0,0,0-.358.321l-.008.011a2.4,2.4,0,0,0-.309.449c-.012.078-.089.14-.236.192s-.193.305-.194.308l-.046.326-.1.117-.078.09v.278l-.086.1-.117.166c-.008.035-.049.209-.09.209-.022,0-.048.037-.074.075s-.061.088-.093.093a.172.172,0,0,1-.058.008.385.385,0,0,1-.147-.03.041.041,0,0,0-.026-.007.274.274,0,0,0-.089.026.278.278,0,0,1-.088.028.032.032,0,0,1-.019-.005l-.016-.01c-.062-.04-.207-.134-.195-.225s-.177-.272-.33-.426c-.044-.044-.084-.084-.114-.117a.5.5,0,0,1-.115-.376.156.156,0,0,1,.055-.115c.087-.059-.005-.387-.045-.527-.045-.155-.107-.368-.048-.429a1.9,1.9,0,0,1,.448-.34c.076,0,.349-.468.387-.542s.276-.141.4-.173l.034-.009a.939.939,0,0,1,.2-.016l.113,0,.1,0c.135,0,.317-.216.319-.218l.005-.006c.238-.263,2.335-2.581,2.644-2.915.062-.066.087-.116.073-.147s-.054-.042-.125-.042a2.553,2.553,0,0,0-.471.078c-.051.012-.093.021-.119.026a3.736,3.736,0,0,0-.622.259L3.8,9.464l-.018,0c-.047.011-.191.045-.323.071a1.659,1.659,0,0,0-.642.222c-.045.071-.318.115-.546.115-.04,0-.077,0-.109,0H2.145a.549.549,0,0,0-.264.084.421.421,0,0,1-.191.067.426.426,0,0,1-.374-.15A.418.418,0,0,0,1.024,9.8H.885c-.058,0-.112,0-.118-.028C.753,9.707.654,9.7.566,9.689l-.042,0C.432,9.67.246,9.567.246,9.507S.171,9.393.17,9.392A.975.975,0,0,1,.019,9.3C-.01,9.272,0,9.222.01,9.174a.326.326,0,0,0,.009-.063c0-.058.1-.107.106-.108l.147-.039A.318.318,0,0,0,.346,8.8.741.741,0,0,1,.69,8.464a.94.94,0,0,0,.218-.158A.749.749,0,0,1,1,8.228a1.233,1.233,0,0,0,.207-.253,2.474,2.474,0,0,1,.893-.53,11.156,11.156,0,0,0,1.27-.629c.014-.013,1.413-1.35,1.472-1.423a2.5,2.5,0,0,1,.3-.273,1.39,1.39,0,0,0,.186-.31c.019-.037.036-.071.05-.1a1.265,1.265,0,0,1,.181-.2,1.839,1.839,0,0,0,.173-.182,3.015,3.015,0,0,1,.272-.278c.08-.1.775-.945.849-1a1.8,1.8,0,0,0,.207-.3c.026-.042.047-.077.061-.1a.8.8,0,0,1,.222-.208c.055-.025.106-.133.136-.2L7.5,2.229c.017-.031.068-.038.107-.038a.465.465,0,0,1,.074.006l.1-.057.074-.129a1.2,1.2,0,0,0,.132-.21,1.138,1.138,0,0,1,.141-.194l.085.02L8.3,1.594c.024-.007.144-.042.211-.058s.089-.076.113-.122a.41.41,0,0,1,.021-.038.281.281,0,0,1,.075-.065.285.285,0,0,0,.091-.084c.018-.041.088-.046.151-.051a.481.481,0,0,0,.072-.008c.028-.006.039-.041.05-.078s.023-.074.053-.083A.207.207,0,0,0,9.224.942.18.18,0,0,1,9.289.888c.028-.009.031-.066.034-.122,0-.02,0-.039,0-.054.016-.058.145-.073.15-.073L9.539.492V.332c0-.061.1-.1.1-.1A.943.943,0,0,0,9.761.052.111.111,0,0,1,9.869,0a.351.351,0,0,1,.1.018A.625.625,0,0,1,10.3.432c0,.06.061.364.062.367V.977a3.056,3.056,0,0,1-.077.325,1.853,1.853,0,0,1-.189.4,2.49,2.49,0,0,0-.107.3.157.157,0,0,1-.157.132.564.564,0,0,0-.07.015c-.1.029-.163.177-.164.179l-.119.263L9.344,2.6l-.055.12a.159.159,0,0,1-.078.088c-.056.028-.072.146-.072.147l-.092.191.033.218-.119.122-.075.2a.521.521,0,0,1-.047.215,2.165,2.165,0,0,0-.121.332c0,.083.016.365.016.619a.355.355,0,0,0,.328.367.023.023,0,0,0,.021-.011c.026-.043-.058-.2-.062-.207l.162.014.072-.075.15-.132.021,0c.042,0,.14-.01.171-.01.048,0,.138-.189.164-.269s.192-.134.194-.134H9.96c.08,0,.222-.009.282-.009s1.129.308,1.174.321a.933.933,0,0,1,.147.225c.046.1.39.157.4.159L12.127,5h.122l.241.025a1.9,1.9,0,0,1,.281.063.164.164,0,0,0,.063.011.433.433,0,0,0,.134-.026h.475l.143-.029.136.014.152-.033h.282l.106-.056h.267l.147-.054.1-.036h.209s.33.013.386.013.315.022.318.022.307.085.366.1a.912.912,0,0,1,.215.115c.007.006.165.139.252.224a.344.344,0,0,0,.224.091l.013.012c.152.14.242.228.267.259a.383.383,0,0,1-.03.313c-.034.044-.141.051-.2.051h-.034s-.222.109-.287.143a.333.333,0,0,0-.089.1.45.45,0,0,1-.091.108.239.239,0,0,1-.13.023,1.431,1.431,0,0,1-.239-.023h-.011c-.07,0-.134.14-.137.146a.559.559,0,0,1-.194.1c-.061,0-.121-.074-.122-.075l-.134-.016-.115-.112H15l-.24-.022-.322.078-.211.028a3.047,3.047,0,0,1-.522-.045A.529.529,0,0,0,13.6,6.5a.8.8,0,0,0-.278.055l-.329.119-.207.043-.149-.009-.106.083-.177-.027-.189-.031-.154.135-.282.073L11.5,7l-.039.078-.192.029s-.366.117-.629.219a1.461,1.461,0,0,0-.468.37.813.813,0,0,1-.145.135.428.428,0,0,0-.119.1.475.475,0,0,1-.15.127,1.509,1.509,0,0,0-.322.6,6.16,6.16,0,0,1-.351.67c-.062.111-.115.205-.146.262-.1.187-.636,1.663-.641,1.678s-.087.385-.087.439a.366.366,0,0,1-.131.266.055.055,0,0,0-.03.037c-.02.074.075.214.076.215a1.776,1.776,0,0,0-.046.236.9.9,0,0,1-.04.154,2.12,2.12,0,0,0-.1.419,4.858,4.858,0,0,0,.058.81l0,.008a.659.659,0,0,1,.028.391,1.964,1.964,0,0,0-.052.371,1.085,1.085,0,0,1-.022.178c-.015.046.078.184.1.215a.292.292,0,0,1,.049.234c-.013.042-.027.1-.041.159a1.836,1.836,0,0,1-.05.185.759.759,0,0,0-.032.166A.732.732,0,0,1,7.931,16C7.915,16.029,7.879,16.042,7.822,16.042ZM6.6,9.058a.07.07,0,0,0-.025,0c-.027.012-.055.023-.083.034a.627.627,0,0,0-.23.131.983.983,0,0,0-.089.111,1.052,1.052,0,0,1-.154.182,1.964,1.964,0,0,0-.236.295c-.031.044-.23.268-.252.294-.005,0-.447.418-.508.486s-.269.293-.271.3a.267.267,0,0,0-.087.183.23.23,0,0,0,.106.172c.137.109.208.147.272.147a.326.326,0,0,0,.1-.024l.006,0a1.29,1.29,0,0,1,.3-.063l.118-.069a.031.031,0,0,1,0-.029c.008-.015.036-.033.124-.033a.863.863,0,0,0,.536-.3,1.276,1.276,0,0,0,.222-.488,1.105,1.105,0,0,1,.192-.437c.056-.028.144-.245.147-.254s.035-.176-.015-.248a1,1,0,0,1-.075-.22C6.7,9.221,6.682,9.058,6.6,9.058ZM5.439,6.426a.083.083,0,0,1,.063.025.126.126,0,0,0,.088.025.57.57,0,0,0,.148-.025l.229-.076s.026,0,.057,0a.234.234,0,0,0,.135-.029A.327.327,0,0,1,6.245,6.3c.066-.029.141-.062.141-.118a1.98,1.98,0,0,1,.086-.354.417.417,0,0,1,.075-.187l.02-.013c.064-.041.214-.137.214-.177a.784.784,0,0,0-.144-.383.524.524,0,0,0-.31-.117.08.08,0,0,0-.046.01l-.467.281-.846.883s-.115.177-.073.271a.1.1,0,0,0,.086.055,2.144,2.144,0,0,0,.249.016c.061,0,.1,0,.1,0A.251.251,0,0,1,5.439,6.426Z" transform="translate(0)" fill="#fff"/>
          <path id="Path_4" data-name="Path 4" d="M54.331,38.928s-.095.234.116.245.386.019.459.019a.9.9,0,0,0,.251-.049c.111-.026.122-.058.393.018s.354.03.626.115.639.223.639.223l.222.042.117.088.2.06a1.317,1.317,0,0,1,.221.06c.061.029.24.085.24.085s.209.163.266.193.22.167.278.167.258.086.258.129.255.174.255.174a.467.467,0,0,1,.208.078c.06.056.074.16.181.2s.209.181.278.208.21.219.254.235a1.719,1.719,0,0,1,.225.132l.194.121a.46.46,0,0,0,.181.071c.1.016.1.06.15.074s.251.03.432.059a2.57,2.57,0,0,0,.433.045h.337s.432.088.49.088a4.645,4.645,0,0,1,.493.059,3.38,3.38,0,0,0,.4,0l.251-.03s.21-.044.24-.088-.07-.06.148-.089.236-.117.236-.117a1.037,1.037,0,0,1,.134-.1.231.231,0,0,0,.122-.174c0-.063-.076-.164-.226-.223a1.547,1.547,0,0,0-.5-.119,1.064,1.064,0,0,1-.447-.1,1.119,1.119,0,0,0-.476-.164,2.727,2.727,0,0,1-.507-.111,1.038,1.038,0,0,0-.4-.094,1.18,1.18,0,0,1-.388-.071l-.134-.137-.22-.043a2.393,2.393,0,0,1-.346-.088c-.046-.028-.359-.148-.359-.148s-.205.072-.247,0a2.415,2.415,0,0,0-.527-.237s-.178-.084-.218-.174-.523-.177-.523-.222-.284-.143-.284-.143l-.269-.074-.117-.058-.209-.019-.21-.029-.282-.06-.2-.061a1.07,1.07,0,0,1-.31-.012,1.773,1.773,0,0,0-.194-.089l-.15-.044h-.248a3.4,3.4,0,0,1-.435-.054,1.935,1.935,0,0,0-.448-.045c-.077,0-.389.084-.445.084A1.415,1.415,0,0,0,54.331,38.928Z" transform="translate(-45.043 -27.693)" fill="#fff"/>
        </g>
        <path id="Exclusion_2" data-name="Exclusion 2" d="M19.085,34.527h0l-.432-.143-.332-.036-.284.107-.4-.037a1.394,1.394,0,0,0-.22-.015,2.379,2.379,0,0,0-.265.015h-.278l-.307-.07h-.187l-.211.036-.273-.072-.672.037-.428-.074-.311-.037.061-.288-.518.041-.277.04-.273.065a.851.851,0,0,1-.247-.037.25.25,0,0,0-.062-.005c-.2,0-.734.07-.795.078h-.458c-.089,0-.453-.066-.494-.073h0a1.566,1.566,0,0,0-.551.18s-.366-.035-.458-.035a1.154,1.154,0,0,1-.173-.03,1.761,1.761,0,0,0-.314-.049.218.218,0,0,0-.063.008,3.562,3.562,0,0,0-.368.143l-.245.038-.616-.038-.3-.037-.218-.072-.249.109-.394.11L7.348,34.2H6.862c-.076.054-.068.082-.065.1s0,.007,0,.009-.023.005-.088.005a4.241,4.241,0,0,1-.459-.038s-.075-.114-.157-.114a.088.088,0,0,0-.03.005.32.32,0,0,1-.118.017,1.272,1.272,0,0,1-.186-.017l-.277.038-.369.035-.492.111a1.985,1.985,0,0,1-.3.036c-.122,0-.388-.034-.4-.036a.409.409,0,0,0-.178-.033,1.1,1.1,0,0,0-.248.033s-.126.036-.215.07a1.866,1.866,0,0,1-.4.037L2.3,34.312a1.39,1.39,0,0,0-.368-.181.4.4,0,0,1-.157-.07.437.437,0,0,0-.18-.078.071.071,0,0,0-.03.006A.144.144,0,0,1,1.507,34a.51.51,0,0,1-.177-.049c-.033-.013-.067-.027-.1-.037a5.305,5.305,0,0,1-.7-.719S.489,33.018.4,32.98s-.241-.25-.243-.252l.12-.251a.154.154,0,0,0,.056.016.028.028,0,0,0,.027-.014c.017-.032-.022-.118-.115-.254a2.482,2.482,0,0,1-.18-1.188,1.763,1.763,0,0,0,0-.429L.03,30.282v-.324l.092-.215L.03,29.315.155,29.1l.12-.291a2.162,2.162,0,0,1-.033-.572l.065-.756-.065-.324-.025-.288-.033-.284-.09-.289L0,26a2.21,2.21,0,0,0,.063-.539.607.607,0,0,1-.033-.284,1.159,1.159,0,0,1,.125-.254,1.632,1.632,0,0,0,.275-.5l.06-.362L.463,23.6l.062-.292-.094-.467-.032-.4L.37,22.119.4,21.868l.185-.827.033-.252.056-.758a2.519,2.519,0,0,1,0-.5V19.35L.616,18.6a1.154,1.154,0,0,0,.332-.469l.16-.9,0-.009c-.043-.169-.075-.3-.092-.383a1.681,1.681,0,0,1,.029-.467l.123-.689c-.018-.013-.058-.056-.058-.175v-.291c-.064-.178-.34-1.072-.342-1.081,0-.2-.024-.487-.025-.5-.017-.056-.073-.235-.1-.327a.7.7,0,0,1-.013-.086.2.2,0,0,0-.075-.164A.722.722,0,0,1,.4,12.767c0-.139.064-1.066.065-1.076l-.126-.4.033-.327.028-.8a1.985,1.985,0,0,0,.065-.537l.062-.287.027-.216L.431,8.562.4,8.272a.966.966,0,0,1,0-.431l.185-.075a.213.213,0,0,1-.012-.029c-.018-.047-.056-.145-.08-.224-.027-.1-.06-.458-.06-.461L.491,6.8.37,6.074.337,5.826.37,5.538l.093-.212.027-.252L.4,4.6a2.7,2.7,0,0,1-.09-.54l-.09-.251v-.47l.058-.288L.37,2.7l.121-.362L.671,1.8h.342l.273-.394L2.052.974,2.359.718l.368-.1L3,.538,3.308.4,3.583.362l.4.036.8.141.768.111.43-.075H6.4l.248.108.215.037.183.037L7.261.682l.547.073L8.054.9l.4.071H8.79A1.789,1.789,0,0,1,9.159.863L9.434.755,9.8.863l.855-.038.311.038.486-.109L11.7.682l.308.037.64-.069h.52l.369.033.245-.033.187-.075h.767l.207.042.5-.077.7-.141.282-.036h.363a.278.278,0,0,0,.151.029,1.681,1.681,0,0,0,.274-.029l.185-.04.216-.1a.271.271,0,0,1,.1-.018.652.652,0,0,1,.326.121l.617-.1.433.031a.654.654,0,0,0,.3-.071L19.6.038,19.788,0h.245l.3.073.737.106.213.071.368.072h.3l.37-.036.213.18h.4l.211.041.523.067c.3.179.549.328.552.329l.244.14a.309.309,0,0,0,.245.254l.09.248s.095.258.124.362.333.749.336.756c.031.175.062.5.062.5l-.123.22.092.255-.031.532-.094.286-.026.9-.03.318-.059.329.059.361-.059.394v.291l-.063.429-.03.606v.547l-.033.317-.062.116-.029.281.029.252.125.254-.063.215-.091.179v.5a.583.583,0,0,0,.124.328l.03.356c-.03.106-.062.312-.063.321l-.062.252c.009.05.017.094.025.135a1.434,1.434,0,0,1,.037.267.289.289,0,0,0,.036.122.212.212,0,0,1,.027.163,3.455,3.455,0,0,0-.063.358l-.062.215a1.63,1.63,0,0,1,.062.324v.86c0,.11-.029.432-.029.435l.127.323v.325l.028.287-.063.184.122.212s-.088.182-.06.257a.048.048,0,0,0,.026.029.358.358,0,0,0,.083.02c.069.011.133.022.133.125,0,.142-.031.6-.031.606l-.061.295s.061.317.092.431.091.42.093.434l-.029.323v.252a.749.749,0,0,1,.154.464l.09.285.029.327a2.351,2.351,0,0,1,.092.506l-.029.284-.063.216V21.3l-.091.213.154.322.088.288-.059.179-.062.36.033.288-.063.468s-.029.288-.029.394a.44.44,0,0,0,.038.152.663.663,0,0,1,.054.245v.4l.029.286.059.716-.088.254-.092.253.06.356.033.326s.029.222.029.324-.029.359-.029.362-.092.176-.033.286a.389.389,0,0,1,.062.357,6.161,6.161,0,0,0-.029,1.045.31.31,0,0,1,.06.181v.432s-.042.152,0,.2a.039.039,0,0,0,.032.016c.093,0,.184.179.185.181l-.123.25-.062.361-.059.286v.181l.03.286-.06.364a1.626,1.626,0,0,0-.092.357v.36l-.028.215-.124.215-.03.25-.157.292-.185.254-.181.248c-.212.177-.4.323-.4.324a.849.849,0,0,1-.235.048.18.18,0,0,1-.07-.011,1.611,1.611,0,0,0-.368-.037.761.761,0,0,0-.365-.185.168.168,0,0,0-.036,0c-.142.035-.261.07-.274.074l-1.438.183a1.389,1.389,0,0,0-.549-.146,1.122,1.122,0,0,0-.277-.074,1.035,1.035,0,0,0-.306.038,1.956,1.956,0,0,1-.428.037h-.09a.668.668,0,0,0-.308.07l-.67.109Zm-1.131-.934h0l.3.038h.475l.212.036.414-.036.388-.148s.268.019.5.019a1.425,1.425,0,0,0,.283-.019l.3-.065L21,33.269a2.167,2.167,0,0,0,.391-.04.72.72,0,0,1,.1-.017,1.266,1.266,0,0,0,.144-.017l.178-.033a1.2,1.2,0,0,1,.209-.019.77.77,0,0,1,.179.019l.177-.112.451.037a2.043,2.043,0,0,1,.294-.178h.416l.154-.323.088-.22.3-.716c.006-.013.15-.325.209-.434s.175-.323.176-.325v-.359l-.056-.433-.029-.208.178-.181.089-.256-.031-.216.031-.288-.031-.216a.738.738,0,0,1-.206-.244.644.644,0,0,1-.015-.166.643.643,0,0,0-.015-.166.507.507,0,0,1,.011-.221.781.781,0,0,0,.019-.142v-.319l.178-.612.06-.358.061-.286.029-.4-.09-.222a1.05,1.05,0,0,0-.209-.471l-.209-.174.121-.254.116-.322.065-.4.027-.391-.061-.219-.031-.5a.541.541,0,0,0-.292-.216c-.035-.007-.054-.019-.055-.035-.006-.055.2-.143.2-.144l.146-.718s.242-.364.122-.506a.474.474,0,0,1-.058-.35.514.514,0,0,0,0-.151,2.413,2.413,0,0,1-.034-.365,3.127,3.127,0,0,0-.031-.357,6.375,6.375,0,0,1,.065-.858l-.333-.288-.117-.615a1.582,1.582,0,0,0,.061-.467,1.457,1.457,0,0,1,.083-.488l0-.014c.028-.106-.147-.356-.148-.359a3.133,3.133,0,0,1-.238-.4.571.571,0,0,1,0-.4c.032-.106.122-.642.123-.647l.148-.975.205-.577-.062-.715-.116-.648-.092-.648-.025-.323.118-.468c-.006,0-.268-.035-.361-.035a.018.018,0,0,1-.014-.007c-.054-.069.075-.6.076-.609a8.882,8.882,0,0,0-.122-.9l.212-.432-.241-.357-.122-.685.1-.826.086-.328L23.84,5.9l-.122-1.254V3.958l.122-.288s-.032-.537-.062-.648-.147-.431-.148-.435-.324-.318-.478-.467a4.307,4.307,0,0,0-.509-.361l-.507-.033-.359.074-.567-.042-.686-.142L20.37,1.8l-.655.106-.565-.214s-.332-.148-.421-.179a.2.2,0,0,0-.076-.012,1.119,1.119,0,0,0-.255.043l-.777.035h-.264l-.6.147h-.628l-.688.109-.09-.256h-.331l-.8-.035L13.832,1.3l-.363.248-.594-.109h-.6l-.474.109-.363.072-.689.142H9.591l-.478.147-.245.037-.77.035-.033-.218-.775-.1c-.117.009-.49.036-.569.036s-.175.171-.179.179l-.776.143-.539-.108-.449.108L4.45,1.692l-.3.179H3.675l-.421.036-.391.071a1.208,1.208,0,0,0-.265.541c0,.214-.381.574-.385.578l-.183.177-.093.25a3.319,3.319,0,0,1-.026.435l-.058.211.084.473-.117.285-.087.18V5.4l.087.247-.03.22a3.122,3.122,0,0,1,.088.5l.059,1.007.036.432-.036.212V8.34l-.026.472-.033.431-.088.289.03.177L1.853,10v.327l.084.354-.068.145-.049.324-.055.542.024.283.121.291v.361l.026.249.093.4.059.218a2.059,2.059,0,0,1-.059.5c-.006.03-.154.726-.21.862l-.055.219-.033.252v.353L1.7,15.9l.066.321.024.217-.024.214.024.322-.024.467.087,1.223.025.431.059.218a5.105,5.105,0,0,1-.026.538c0,.015-.058.365-.058.467l-.033.363a2.531,2.531,0,0,1-.03.394l.03.254.058.286a.832.832,0,0,1-.145.391,1.338,1.338,0,0,0,0,.4.62.62,0,0,1-.063.43v.831a.706.706,0,0,0,.12.426l.121.793a.5.5,0,0,0,.12.324.39.39,0,0,1-.093.324l-.2.136-.034.3v.286l-.057.362-.031.177a2.807,2.807,0,0,0,.031.432c.006.032.011.065.016.1a.736.736,0,0,0,.107.332l-.154.937-.088.248a.559.559,0,0,0,.034.3.646.646,0,0,1-.01.366c-.008.044-.016.089-.024.136a2.852,2.852,0,0,0,0,.5,1.28,1.28,0,0,0,.088.25l-.055.323.024.219-.086.213.326.183s.332.613.422.754l.176.179s.243.288.243.432l.3.217.326.178.062.141a.811.811,0,0,0,.274.083.124.124,0,0,0,.056-.011,2.523,2.523,0,0,1,.447-.033l.3.079a.45.45,0,0,1,.239.069.1.1,0,0,0,.056.018.262.262,0,0,0,.154-.087.743.743,0,0,1,.268-.055.512.512,0,0,1,.091.008,1.248,1.248,0,0,0,.359-.072,1.047,1.047,0,0,1,.39-.141l.477-.178.05.037c.079.06.241.181.371.282h0a1.8,1.8,0,0,0,.2.011.86.86,0,0,0,.308-.044,1.931,1.931,0,0,1,.229-.014,1.039,1.039,0,0,1,.186.014l.273-.075a1.078,1.078,0,0,0,.183.019.288.288,0,0,0,.118-.019.081.081,0,0,1,.029,0,.483.483,0,0,1,.359.3l.236.108.271.03.268.075H9.92a4.009,4.009,0,0,1,.47-.048.279.279,0,0,1,.093.011.077.077,0,0,0,.031.005,1.377,1.377,0,0,0,.391-.148h.416l.332.033a.655.655,0,0,1,.079,0c.078,0,.178.014.214.078h.569a.726.726,0,0,1,.217-.044.223.223,0,0,1,.082.013,1.029,1.029,0,0,0,.243.03l.3.075.449-.075.384.038a2.721,2.721,0,0,1,.471-.078.181.181,0,0,1,.07.01.682.682,0,0,0,.158.012,2.075,2.075,0,0,0,.527-.055,1.715,1.715,0,0,1,.509.073l.3.075.421-.038a4.944,4.944,0,0,1,.627.038Z" fill="#fff"/>
        <path id="Path_7" data-name="Path 7" d="M45.744,49.622c-.03.09-.093.222-.049.308s.21.225.2.291.116.139.116.139l.132.106.029.158s.016.093.026.166a.584.584,0,0,0,.122.192.422.422,0,0,0,.178.134c.07.028.176.044.222.106s.148.042.238.056a.462.462,0,0,1,.269.076.64.64,0,0,0,.367.118c.072-.017.3.082.31.148s.176.236.176.3a1.98,1.98,0,0,0,.032.225s-.208.363-.24.451-.055.432-.055.432a1.016,1.016,0,0,1,.014.252c-.014.058-.1.3-.1.3l-.044.292L47.653,54s.014.165-.03.22-.161.3-.161.3l-.116.3s-.108.09-.062.176.062.282.15.371.161.284.293.331.3.1.31.185.269.213.269.288a.18.18,0,0,0,.177.19.421.421,0,0,0,.34-.326,3.956,3.956,0,0,1,.132-.667,2.409,2.409,0,0,1,.282-.62,1.128,1.128,0,0,0,.19-.523c.019-.055.059-.261.059-.261l.15-.271s.166-.176.238-.236l.178-.132A1.279,1.279,0,0,0,50.2,53.1a2.114,2.114,0,0,0,.1-.3,5.121,5.121,0,0,0,.058-.679,2.109,2.109,0,0,1,.09-.784c.088-.181.264-.551.328-.65a2.862,2.862,0,0,0,.128-.414l.164-.09s.046-.134.079-.21.157-.163.157-.163.287-.591.345-.7a2.334,2.334,0,0,0,.236-.521c0-.085.221-.587-.328,0s-.354.447-.4.565-.117.342-.2.379-.106.208-.167.256-.131.254-.192.322-.177.326-.267.363a.573.573,0,0,0-.253.175c-.009.044-.322.295-.356.072a1.139,1.139,0,0,1,.049-.646c.086-.124.014-.346.086-.448a1.421,1.421,0,0,0,.131-.4l-.071-.178s-.116-.161-.234-.113a3.6,3.6,0,0,0-.375.174s-.1.073-.1.161a.279.279,0,0,1-.134.238.241.241,0,0,0-.119.1s-.1.148-.132.207-.043.256-.177.265a1.649,1.649,0,0,1-.828.017,4.56,4.56,0,0,1-.875-.372,1.3,1.3,0,0,0-.3-.072.348.348,0,0,0-.208-.076.484.484,0,0,1-.187-.012l-.238-.073S45.788,49.5,45.744,49.622Z" transform="translate(-42.231 -25.088)" fill="#fff"/>
        <path id="Exclusion_3" data-name="Exclusion 3" d="M.128,9.112c-.07,0-.112-.022-.124-.064-.057-.195.509-.763.582-.81L.672,8.18a2.462,2.462,0,0,0,.552-.435A.4.4,0,0,1,1.4,7.566l.01-.011c.2-.216.363-.393.463-.5A2.242,2.242,0,0,0,2.2,6.485a1.73,1.73,0,0,1,.188-.354.7.7,0,0,0,.146-.3A1.165,1.165,0,0,0,2.6,5.587a1.2,1.2,0,0,0-.009-.159A.519.519,0,0,1,2.595,5.2.078.078,0,0,1,2.64,5.16c.012,0,.023-.009.027-.02s0-.062-.042-.145a.647.647,0,0,1,.016-.456c.158-.08.05-.462-.055-.685a3.464,3.464,0,0,1-.15-.892A2.7,2.7,0,0,1,4.281.053,2.286,2.286,0,0,1,4.756,0,1.475,1.475,0,0,1,6.141.881a1.371,1.371,0,0,1,.178.787,2.9,2.9,0,0,1-.22.26s.021.222.037.278-.15.132-.156.135a.349.349,0,0,0,.048.244.064.064,0,0,1,.018.048c0,.049-.064.1-.117.149-.02.017-.038.033-.053.049a.541.541,0,0,1-.215.15c-.063.021-.183.25-.254.387-.024.047-.044.084-.054.1-.035.07-.08.213-.034.241a.714.714,0,0,0,.219.039.213.213,0,0,0,.129-.032A.05.05,0,0,1,5.7,3.7c.084,0,.214.182.257.242l.007.01a.48.48,0,0,0,.106.084.492.492,0,0,1,.175.16.36.36,0,0,1-.026.242.241.241,0,0,1-.1.135A.8.8,0,0,0,5.868,5c-.014.105-.174.169-.176.17s-.056,0-.116,0c-.035,0-.066,0-.09,0a.858.858,0,0,0-.379.212,1.067,1.067,0,0,1-.557.224c-.039,0-.052.057-.066.114s-.034.137-.095.147c-.221.041-.6.461-.73.714,0,.007-.453.657-.409.893a.1.1,0,0,0,.04.066.482.482,0,0,0,.281.1.819.819,0,0,0,.183-.027l.023-.005c.149-.042,1.192-.377,1.2-.38.191-.056.351-.106.469-.143.09-.028.154-.048.192-.058a3.1,3.1,0,0,0,.77-.258,1.2,1.2,0,0,1,.423-.1.963.963,0,0,0,.359-.085A4.386,4.386,0,0,1,7.749,6.3a1.212,1.212,0,0,0,.435-.081A1.273,1.273,0,0,1,8.6,6.1c.082-.015.175-.031.279-.054l.329-.069.328-.125.212.039L10,5.761l.262-.054a2.156,2.156,0,0,0,.324.027,1.214,1.214,0,0,0,.166-.01,1.817,1.817,0,0,1,.271-.017c.118,0,.238.006.334.012h.006l.1,0,.108.012c.093.01.167.019.362.03l.043,0a6.74,6.74,0,0,1,1.222.175.306.306,0,0,1,.205.218.175.175,0,0,1-.085.163,1.355,1.355,0,0,1-.539.07c-.2,0-.375-.012-.377-.012a1.962,1.962,0,0,0-.337.023.425.425,0,0,1-.1.008c-.082,0-.178-.008-.179-.008-.049.007-.3.041-.395.041h-.026c-.08,0-.361,0-.364,0l-.42.043a2.388,2.388,0,0,1-.289.022l-.073,0h-.019a1.262,1.262,0,0,0-.39.113H9.784c-.23,0-.364,0-.4-.007a3.3,3.3,0,0,0-.368.068s-.26.08-.365.1a.657.657,0,0,0-.218.08l-.379-.006c-.025,0-.244.031-.405.042a.247.247,0,0,0-.221.154l-.279.072s-.284.077-.39.094-.328.018-.33.018l-.261.03L5.7,7.345l-.315.029-.275.134c-.071.009-.248.029-.44.044a2.93,2.93,0,0,0-.7.331,1.976,1.976,0,0,1-.4.2h-.02a4.7,4.7,0,0,0-.659.1l-.257.049c-.255.048-.544.1-.693.145a2.744,2.744,0,0,0-.8.4c-.211.174-.211.174-.889.315A.6.6,0,0,1,.128,9.112ZM4.747,2.325a.368.368,0,0,0-.3.2l-.074.115a1.758,1.758,0,0,0-.271.515,1.621,1.621,0,0,0-.014.235.655.655,0,0,1-.023.225.263.263,0,0,0,.008.193.164.164,0,0,0,.09.1.1.1,0,0,0,.031,0,.76.76,0,0,0,.29-.119c.03-.017.056-.032.075-.041.041-.017.04-.03.039-.06a.365.365,0,0,1,.046-.192,3.267,3.267,0,0,0,.169-.4l0-.011c.016-.041.031-.073.043-.1a.536.536,0,0,0,.056-.184c0-.018.005-.041.009-.067.017-.118.043-.3-.026-.376a.127.127,0,0,0-.1-.042l-.029,0Z" transform="translate(9.283 17.256)" fill="#fff"/>
        <path id="Exclusion_4" data-name="Exclusion 4" d="M3.048,8.176H2.519a.606.606,0,0,1-.3-.08,1.315,1.315,0,0,0-.369-.1c-.005,0-.519-.164-.6-.179a2.137,2.137,0,0,1-.294-.08l-.065-.02c-.067-.022-.3-.145-.3-.194,0-.032-.181-.072-.277-.088a1.156,1.156,0,0,1-.2-.314.786.786,0,0,1-.1-.354.363.363,0,0,1,.183-.19.549.549,0,0,1,.161-.018c.05,0,.09,0,.091,0l.241.028.273.029L1.226,6.6l.186.058h.162l.044-.148.167-.085h.1a.325.325,0,0,1,.1-.166A.459.459,0,0,1,2.2,6.209L2.274,6.2c.116-.016.507-.045.575-.045a1.288,1.288,0,0,0,.4-.133.287.287,0,0,1,.153-.03l.068,0h.057a.171.171,0,0,0,.119-.076.217.217,0,0,1,.065-.057.547.547,0,0,1,.192-.02c.071,0,.134,0,.135,0h.189L4.4,5.774a1.058,1.058,0,0,1,.183-.107c.063-.011.292-.028.347-.028A1.122,1.122,0,0,0,5.1,5.614a.962.962,0,0,0,.132-.141A.445.445,0,0,1,5.49,5.4c.051,0,.1-.064.153-.126a.549.549,0,0,1,.1-.109A.236.236,0,0,1,5.9,5.122l.046,0h.036c.036,0,.061-.045.086-.089a.352.352,0,0,1,.044-.066l.02-.023a.2.2,0,0,1,.151-.093c.081,0,.1-.135.114-.234l0-.016a1.241,1.241,0,0,1,.094-.255c.067-.158.169-.4.319-.8a.869.869,0,0,0-.1-.835.981.981,0,0,0-.647-.437,2.238,2.238,0,0,1-.344-.019l-.1-.012q-.037,0-.073,0a.591.591,0,0,0-.3.078.7.7,0,0,0-.153.117l-.017.017c-.045.041-.221.042-.226.042s0,0,0,0a.447.447,0,0,1-.149.205.378.378,0,0,0-.185.119,1.272,1.272,0,0,1-.145.154c-.068.068-.165.164-.3.3a1.563,1.563,0,0,0-.113,1.331A1.974,1.974,0,0,0,4.3,5a1.832,1.832,0,0,1-.934-.887.938.938,0,0,1,.026-.739,2.246,2.246,0,0,0,.247-.71.1.1,0,0,0-.116-.122.687.687,0,0,0-.132.018l-.009,0a.609.609,0,0,1-.109.017.087.087,0,0,1-.026,0l-.016,0a.746.746,0,0,0-.268.152.893.893,0,0,1-.183.115A1.047,1.047,0,0,0,2.558,3a.765.765,0,0,1-.233.158l-.009,0a.029.029,0,0,0-.015,0c-.062,0-.181.145-.186.151l-.068.164-.249.15a.966.966,0,0,1-.2.128c-.054.015-.068.216-.068.224l-.19.013a.766.766,0,0,1-.212.134.2.2,0,0,0-.059.016.362.362,0,0,1-.124.028.2.2,0,0,1-.041,0H.892a.042.042,0,0,0-.031.012c-.024.024-.024.08-.023.146a.59.59,0,0,1-.016.172c-.031.1-.112.108-.213.115-.028,0-.058,0-.089.007l-.041,0c-.1,0-.116-.038-.142-.108a.374.374,0,0,0-.119-.178,1.27,1.27,0,0,1-.212-.234c-.028-.061.069-.164.073-.169h0a.093.093,0,0,1,0-.013c0-.033-.013-.109-.013-.147a.551.551,0,0,1,.17-.341,4.254,4.254,0,0,0,.31-.3c.143-.145.3-.308.424-.409.186-.156.777-.86,1.03-1.161l.118-.139.124-.047A.373.373,0,0,0,2.32,1.2c0-.059.052-.117.215-.239a.239.239,0,0,1,.14-.057.108.108,0,0,1,.086.038.094.094,0,0,1,.019.079l-.006.026c-.09.39-.183.617-.278.675A.332.332,0,0,0,2.348,2a.116.116,0,0,0,.013.1.241.241,0,0,0,.194.059,1.544,1.544,0,0,0,.335-.049,1.579,1.579,0,0,1,.172-.024,1.558,1.558,0,0,0,.185-.03c.077-.038.461-.227.561-.254s1.425-.543,1.481-.565c0,0,.363-.16.415-.174S6.854.813,6.952.813A1.132,1.132,0,0,0,7.284.695L7.529.665,7.712.633,7.975.608A.448.448,0,0,0,8.162.5L8.476.492l.01-.006c.2-.11.256-.14.272-.146.032-.013.26-.052.444-.083l.2-.036c.085-.013.6-.144.605-.145.025,0,.152-.009.257-.009a.717.717,0,0,1,.141.009h.021A1.669,1.669,0,0,0,10.771,0a5.058,5.058,0,0,1,.506.026.432.432,0,0,1,.3.165c.044.028.26.169.273.221s.108.089.194.13c.037.017.071.034.092.047.074.042.228.16.23.161l.177.193A3.02,3.02,0,0,1,13,1.213a.721.721,0,0,0,.084.066,2.273,2.273,0,0,1,.732.79c.225.46-.033.663-.154.729-.055.03-.284.234-.286.236l-.232.164-.044.236-.035.007c-.053.009-.164.029-.234.038a1.41,1.41,0,0,0-.262.087,1.034,1.034,0,0,1-.186.119c-.039.018-.342.123-.345.124l-.386.174s-.248.046-.573.134a8.812,8.812,0,0,0-1.3.71c-.188.115-.351.214-.455.271A1.033,1.033,0,0,0,8.86,5.5a2.841,2.841,0,0,0-.342.295.626.626,0,0,1-.4.224c-.071,0-.179.132-.274.249a.852.852,0,0,1-.142.153c-.082.04-.378.226-.391.234L7.1,6.733l-.19.18-.242.042-.2.136a1.358,1.358,0,0,0-.315.148c-.054.064-.315.085-.318.085l0,0a2.335,2.335,0,0,1-.336.265.9.9,0,0,1-.228.027,2.6,2.6,0,0,1-.414.134A.224.224,0,0,0,4.74,7.8a.645.645,0,0,1-.18.081c-.194.055-.421.134-.617.205A6.607,6.607,0,0,1,3.048,8.176ZM9.445.609c-.263,0-.568.019-.754.037a.792.792,0,0,0-.654.595c-.037.134-.028.245.022.282a8.575,8.575,0,0,1,.733.793,2.73,2.73,0,0,1-.014,1.506.705.705,0,0,0,.048.587.354.354,0,0,0,.271.142h.02a1.294,1.294,0,0,0,.534-.224.97.97,0,0,1,.136-.075,4.235,4.235,0,0,0,.687-.471,3.606,3.606,0,0,1,.754-.375c.053-.007.136-.112.223-.223s.185-.236.251-.249c.091-.019.074-.185.061-.318a.75.75,0,0,1-.007-.135.385.385,0,0,0-.014-.149.368.368,0,0,1-.014-.138,1.006,1.006,0,0,0-.04-.5l-.012-.018a.967.967,0,0,0-.448-.4A1.953,1.953,0,0,1,10.7.961c-.054-.04-.1-.075-.136-.1A2.2,2.2,0,0,0,9.927.646,2.247,2.247,0,0,0,9.445.609Z" transform="translate(8.478 25.481)" fill="#fff"/>
      </g>
      <g id="Group_3" data-name="Group 3" transform="translate(32.577 1.825)">
        <path id="Path_12" data-name="Path 12" d="M80.089,36.036a16.9,16.9,0,0,0,6.04,5.4,6.245,6.245,0,0,0-.906,1.034,19.184,19.184,0,0,1-5.834-5.581v6.932H78.15V36.942a18.172,18.172,0,0,1-5.786,5.532,5.866,5.866,0,0,0-.875-1.018,16.221,16.221,0,0,0,5.977-5.42H71.84V34.859h6.31v-3.02c-1.781.222-3.609.4-5.309.509a4.392,4.392,0,0,0-.334-1.1,60.992,60.992,0,0,0,10.984-1.589l.985,1.033a47.386,47.386,0,0,1-5.087,1v3.162h6.39v1.177Z" transform="translate(-71.489 -29.312)" fill="#fff"/>
        <path id="Path_13" data-name="Path 13" d="M90.651,38.682c-1.6.811-3.338,1.653-4.672,2.289l-.46-1.16c.6-.255,1.35-.572,2.161-.938V33.9h-1.86V32.785h1.86V29.479h1.1v3.306h1.718V33.9H88.775v4.467l1.622-.732Zm2.957-1.827a9.821,9.821,0,0,1-.684,1.112H99.76a4.689,4.689,0,0,1-.049.477c-.238,3.274-.493,4.514-.938,4.975a1.289,1.289,0,0,1-.889.4c-.35.015-.938.015-1.574-.017a2.016,2.016,0,0,0-.27-.954c.587.047,1.112.064,1.351.064.222,0,.365-.017.476-.175.271-.286.509-1.288.716-3.784h-1.24A11.038,11.038,0,0,1,94.1,43.927a3.54,3.54,0,0,0-.842-.683,9.346,9.346,0,0,0,3.1-4.293H94.815a12.008,12.008,0,0,1-3.862,4.293,3.127,3.127,0,0,0-.779-.732,10.482,10.482,0,0,0,3.577-3.561h-1.6a10.935,10.935,0,0,1-2.066,1.814,5.283,5.283,0,0,0-.811-.732,9.014,9.014,0,0,0,3.148-3.178H90.19v-1h9.951v1Zm5.4-1.892H91.748V29.828h7.265Zm-1.1-4.245H92.829v1.255h5.087Zm0,2.082H92.829v1.272h5.087Z" transform="translate(-69.685 -29.336)" fill="#fff"/>
        <path id="Path_14" data-name="Path 14" d="M113.47,30.014V43.843h-1.161v-.731h-10.9v.731h-1.129V30.014Zm-1.161,12.033V31.1h-10.9V42.047Zm-5.388-2.416c-1.653.317-3.337.651-4.641.889l-.159-.889c1.208-.192,2.973-.509,4.753-.827Zm3.942-4.625A12.343,12.343,0,0,1,109.1,38.9c.334.842.763,1.383,1.287,1.463.223.063.381-.621.493-1.639a2.951,2.951,0,0,0,.764.525c-.208,1.732-.747,2.369-1.574,2.052a2.56,2.56,0,0,1-1.653-1.543,10,10,0,0,1-2.1,1.828,6.221,6.221,0,0,0-.7-.747,8.378,8.378,0,0,0,2.4-2.082,22.706,22.706,0,0,1-.875-4.689H102.28v-.89h4.784c-.047-.556-.1-1.113-.126-1.685h1.017c.03.572.063,1.129.095,1.685h3.465v.89h-3.386a23.417,23.417,0,0,0,.589,3.657,10.952,10.952,0,0,0,1.176-2.925Zm-4.514.062v3.084h-3.512V35.068Zm-.859.747h-1.827v1.59h1.827ZM110.545,33a6.432,6.432,0,0,0-1.7-1.112l.556-.589a6.8,6.8,0,0,1,1.718,1.081Z" transform="translate(-67.787 -29.267)" fill="#fff"/>
        <path id="Path_15" data-name="Path 15" d="M118.708,30.4c-.445,1.288-1.017,2.861-1.526,4.133a5.127,5.127,0,0,1,1.383,3.433,2.275,2.275,0,0,1-.6,1.844,1.722,1.722,0,0,1-.795.3,5.7,5.7,0,0,1-1.05.015,2.382,2.382,0,0,0-.286-1,9.058,9.058,0,0,0,.906.015.791.791,0,0,0,.46-.158,1.361,1.361,0,0,0,.334-1.1,4.82,4.82,0,0,0-1.367-3.227c.445-1.144.889-2.512,1.208-3.577h-2.034V43.844h-1.034V30.015h3.5l.176-.063Zm2.019,4.308a6.874,6.874,0,0,0,.6-.906,10.314,10.314,0,0,0-1.415-1.271,9.336,9.336,0,0,1-1.129,1.335,6.245,6.245,0,0,0-.779-.6,8.972,8.972,0,0,0,2.48-3.878l.923.207c-.112.35-.239.667-.381,1H122.7l.175-.032.62.222a11.413,11.413,0,0,1-2.336,4.913h4.593a14.361,14.361,0,0,1-2.241-4.579l.668-.175v-.716h2.987l.192-.047.667.4a12.152,12.152,0,0,1-2.114,3.623,7.507,7.507,0,0,0,2.4,2.448,3.536,3.536,0,0,0-.7.827,8.211,8.211,0,0,1-1.8-1.7v.906H120.9v-.684a8.209,8.209,0,0,1-1.684,1.431,3.5,3.5,0,0,0-.635-.732,8.11,8.11,0,0,0,2.114-1.955c-.811.143-1.542.255-2.274.381l-.142-.827c.7-.062,1.478-.158,2.431-.27Zm.827,5.58a19.62,19.62,0,0,1-2.21,2.924,7.268,7.268,0,0,0-.954-.62,14.425,14.425,0,0,0,2.114-2.656Zm2.384-1.146v4.738h-1.113V39.139h-3.481v-.985h8.074v.985ZM120.6,31.43c-.079.143-.174.287-.255.414a17.747,17.747,0,0,1,1.4,1.176,11.817,11.817,0,0,0,.62-1.59Zm3.878-.349a12.831,12.831,0,0,0,.938,2.257,10.846,10.846,0,0,0,1.288-2.257Zm1.51,8.742c.795.843,1.813,2,2.322,2.687l-.89.6c-.508-.7-1.51-1.908-2.289-2.782Z" transform="translate(-65.982 -29.348)" fill="#fff"/>
        <path id="Path_16" data-name="Path 16" d="M135.335,32.815a11.044,11.044,0,0,1,1.065,2.051h5.579v1.1h-8.186c-.079.635-.175,1.271-.3,1.892h6.819s-.033.366-.064.539c-.286,3.148-.588,4.452-1.112,4.96a1.7,1.7,0,0,1-1.24.46,23.474,23.474,0,0,1-2.5-.047,2.628,2.628,0,0,0-.4-1.112c1.033.095,2.082.111,2.448.111.35,0,.541-.016.7-.159.381-.3.635-1.335.875-3.671h-5.8a7.325,7.325,0,0,1-4.562,4.958,3.446,3.446,0,0,0-.763-.968c3.656-1.368,4.355-4.18,4.642-6.962h-4.229v-1.1h6.915a12.243,12.243,0,0,0-.89-1.764Zm-4.228-.731h-2.925V31.019h2.925V29.366h1.16v1.653h2.511v1.064h-2.511v1.51h-1.16Zm11.015-1.064v1.064H139.07v1.51h-1.16v-1.51h-2.481V31.019h2.481V29.366h1.16v1.653Z" transform="translate(-64.234 -29.35)" fill="#fff"/>
        <path id="Path_17" data-name="Path 17" d="M145.326,31.863v4.07c0,2.415-.318,5.786-2.274,7.979a3.8,3.8,0,0,0-.81-.795,8.539,8.539,0,0,0,1.86-4.865c-.637.413-1.288.8-1.908,1.146l-.4-1.05c.62-.287,1.477-.747,2.4-1.223.015-.413.015-.8.015-1.192v-5.1h5.58c-.126-.4-.286-.858-.413-1.223l1.144-.254a12.749,12.749,0,0,1,.541,1.477h5.4v1.034Zm-2.306,3.815a30.784,30.784,0,0,0-.985-3.131l.89-.334a27.592,27.592,0,0,1,1.033,3.036Zm12.954-.795a10.6,10.6,0,0,1-1.319,1.129,7.466,7.466,0,0,0,1.956,1.081,4.456,4.456,0,0,0-.7.842,7.5,7.5,0,0,1-1.336-.763v3.164h-3.035v2.416c0,.571-.112.826-.558,1a7.064,7.064,0,0,1-2.114.159,3.625,3.625,0,0,0-.38-.969c.778.032,1.446.016,1.636,0,.222,0,.27-.047.27-.223V40.336H147.44V37.2a14.191,14.191,0,0,1-1.351.795,2.634,2.634,0,0,0-.732-.78,10.454,10.454,0,0,0,1.987-1.208,12.168,12.168,0,0,0-1.24-1l.637-.539a10.454,10.454,0,0,1,1.272.953,7.148,7.148,0,0,0,1.033-1.191h-3v-.938h3.591a6.189,6.189,0,0,0,.541-1.367l1.113.158a12.9,12.9,0,0,1-.477,1.209h5.468v.938h-3.4a6.756,6.756,0,0,0,1.161,1.287,12.449,12.449,0,0,0,1.208-1.16ZM148.791,41a19.348,19.348,0,0,1-2.511,2.559c-.208-.175-.637-.524-.906-.7a13.657,13.657,0,0,0,2.384-2.21Zm4.721-4.166h-5.055v.971h5.055Zm0,1.717h-5.055v1h5.055Zm-.3-2.5a9.142,9.142,0,0,1-1.43-1.827h-1.5a8.567,8.567,0,0,1-1.463,1.827Zm.46,4.579c.811.747,1.908,1.78,2.464,2.415l-.889.589a34.013,34.013,0,0,0-2.416-2.512Z" transform="translate(-62.447 -29.352)" fill="#fff"/>
        <path id="Path_18" data-name="Path 18" d="M170.337,40.776h-6.359V42.6c0,.62-.128.889-.621,1.065a9.509,9.509,0,0,1-2.559.158,4.416,4.416,0,0,0-.413-1c.985.03,1.875.03,2.114.03.27-.016.334-.063.334-.286v-1.8h-6.628v-1h6.628v-.684a14.837,14.837,0,0,0,2.527-1.208h-6.214v-.889h7.47l.238-.064.714.587a15.938,15.938,0,0,1-3.591,1.973v.286h6.359Zm-12.653-2.893h-1.129V35.007h1.272l-.319-4.721a29.506,29.506,0,0,0,3.069-.78l.541.731a17.413,17.413,0,0,1-2.464.621l.063.779h2.3v.81h-2.256l.062.859h2.257v.81h-2.209l.063.89h8.711c.032-.287.063-.572.1-.89h-2.3v-.81h2.368l.08-.859h-2.353v-.81h2.4l.047-.858h-2.528v-.811h3.673c-.079,1.574-.222,3.624-.35,5.039h1.239v2.877h-1.16V35.913H157.684Zm6.8-3a8.735,8.735,0,0,0-1.144-.922,11.207,11.207,0,0,1-1.589,1.033,4.171,4.171,0,0,0-.651-.62,9.572,9.572,0,0,0,1.51-.874,11.546,11.546,0,0,0-1.146-.621l.589-.525c.4.176.809.414,1.223.637a5.647,5.647,0,0,0,.795-.842l.826.27a9.083,9.083,0,0,1-.921,1.017,7.145,7.145,0,0,1,1.143.875Zm-.03-2.829a7.871,7.871,0,0,0-1.1-.81,11.112,11.112,0,0,1-1.478.954,4.987,4.987,0,0,0-.666-.572,9.593,9.593,0,0,0,1.414-.811,11,11,0,0,0-1.113-.572l.572-.525c.381.16.778.367,1.192.589a6.807,6.807,0,0,0,.747-.779l.826.222a8.105,8.105,0,0,1-.874.969c.429.27.81.525,1.1.747Z" transform="translate(-60.593 -29.332)" fill="#fff"/>
        <path id="Path_19" data-name="Path 19" d="M176.836,34.447l.731.286c-.905,4.8-3.211,7.694-6.184,9.188a4.136,4.136,0,0,0-.795-.938,9.548,9.548,0,0,0,3.91-3.323,18.81,18.81,0,0,0-2.542-1.844,13.438,13.438,0,0,1-1.1,1.193,5.029,5.029,0,0,0-.923-.795,11.749,11.749,0,0,0,3.291-5.1l.875.223V31.92h-3.656v-1.1H174.1V29.408h1.159v1.414h1.814v1.1h-1.814v1.557h-.937c-.128.349-.254.667-.4,1h2.7Zm-3.4,1.08c-.27.493-.556.985-.859,1.431a21.035,21.035,0,0,1,2.512,1.717,12.49,12.49,0,0,0,1.16-3.148Zm6.151-3.607h-1.906v-1.1h1.906V29.408h1.161v1.414h3.56v1.1h-3.56v1.557h-1.161Zm3.275,10.6c.62,0,.73-.3.795-1.747a4.082,4.082,0,0,0,1.081.445c-.159,1.86-.509,2.416-1.8,2.416h-2.861c-1.478,0-1.939-.367-1.939-1.828V34.24h5.643v4.483c0,.6-.112.923-.556,1.1a6.42,6.42,0,0,1-2.193.192,4.324,4.324,0,0,0-.351-1.051c.811.017,1.479.017,1.685,0,.222-.016.27-.063.27-.238v-3.4H179.3v6.486c0,.6.128.714.906.714Z" transform="translate(-58.827 -29.345)" fill="#fff"/>
      </g>
      <g id="Group_4" data-name="Group 4" transform="translate(31.928 22.337)">
        <path id="Path_20" data-name="Path 20" d="M75.294,54.333l-1.22,2.99a2.853,2.853,0,0,0-.227,1.055q0,.8,1.078.947v.143H70.914v-.143a2.248,2.248,0,0,0,.634-.22,3.961,3.961,0,0,0,1.192-1.8l3.329-7.837a2.173,2.173,0,0,0,.209-.8q0-.44-.606-.583v-.144h4.352v.144c-.384.124-.577.322-.577.591a3.718,3.718,0,0,0,.292.989l3.15,8.151a4.6,4.6,0,0,0,.578,1.123,1.469,1.469,0,0,0,.729.388v.143H79.74v-.143a1.347,1.347,0,0,0,.729-.422,1.251,1.251,0,0,0,.227-.795,2.93,2.93,0,0,0-.832-1.892,5.311,5.311,0,0,0-2.724-1.6A12.1,12.1,0,0,0,75.294,54.333Zm.284-.878a5.708,5.708,0,0,1,3.982,1.394l-2.185-5.6Z" transform="translate(-70.914 -47.474)" fill="#fff"/>
        <path id="Path_21" data-name="Path 21" d="M86.52,52.423a3.563,3.563,0,0,1,.984-1.148,3.836,3.836,0,0,1,2.308-.837,6.545,6.545,0,0,1,.72.06l-.427,1.681a2.728,2.728,0,0,0-1.267-.363,2.153,2.153,0,0,0-1.513.6,2.911,2.911,0,0,0-.71,1.833A15.433,15.433,0,0,0,86.52,56.1v1.1a5.778,5.778,0,0,0,.058,1.038q.179.735,1.239.776v.135H83.4v-.135a1.436,1.436,0,0,0,.9-.4,1.071,1.071,0,0,0,.219-.625c.011-.062.018-.326.018-.793V52.677a5.8,5.8,0,0,0-.056-1.039q-.151-.659-1.079-.776v-.135l2.659-.228A4.571,4.571,0,0,1,86.52,52.423Z" transform="translate(-69.308 -47.153)" fill="#fff"/>
        <path id="Path_22" data-name="Path 22" d="M95.629,50.334a6.344,6.344,0,0,1,2.157.362,4.834,4.834,0,0,1,1.7,1.015,4.019,4.019,0,0,1,1.248,3.04,4.064,4.064,0,0,1-1.542,3.327A5.355,5.355,0,0,1,97.44,59a7.016,7.016,0,0,1-2.152.333,6.49,6.49,0,0,1-2.341-.406A4.484,4.484,0,0,1,91.2,57.775a4.188,4.188,0,0,1-1.1-2.931,4.082,4.082,0,0,1,1.458-3.21A5.959,5.959,0,0,1,95.629,50.334Zm-.331.835a3.248,3.248,0,0,0-1.334.279,2.714,2.714,0,0,0-1.021.77,3.607,3.607,0,0,0-.691,2.323,4.81,4.81,0,0,0,.643,2.492,2.756,2.756,0,0,0,2.554,1.436,3.1,3.1,0,0,0,1.911-.625,3.382,3.382,0,0,0,1.23-2.9,4.334,4.334,0,0,0-.681-2.474A2.947,2.947,0,0,0,95.3,51.169Z" transform="translate(-68.446 -47.166)" fill="#fff"/>
        <path id="Path_23" data-name="Path 23" d="M104.049,52.386a10.094,10.094,0,0,1,1.6-1.208,5.153,5.153,0,0,1,2.582-.836,2.25,2.25,0,0,1,1.8.71,2.814,2.814,0,0,1,.5,1.249,14.282,14.282,0,0,1,1.447-1.047,5.451,5.451,0,0,1,2.79-.92,2.318,2.318,0,0,1,1.027.236,2.133,2.133,0,0,1,.79.642,2.694,2.694,0,0,1,.444,1.638v4.36a5.669,5.669,0,0,0,.058,1.038q.161.711,1.164.776v.135h-4.314v-.135a1.457,1.457,0,0,0,.87-.4,1.071,1.071,0,0,0,.218-.625q.019-.093.019-.793V53.576a2.474,2.474,0,0,0-.313-1.469,1.42,1.42,0,0,0-1.153-.515,2.994,2.994,0,0,0-1.741.582,2.844,2.844,0,0,0-1.155,1.6,6.466,6.466,0,0,0-.15,1.6v1.842a5.858,5.858,0,0,0,.055,1.038q.171.719,1.183.776v.135h-4.361v-.135a1.445,1.445,0,0,0,.9-.4,1.079,1.079,0,0,0,.217-.625,7.685,7.685,0,0,0,.019-.793V53.576a2.372,2.372,0,0,0-.331-1.453,1.379,1.379,0,0,0-1.116-.515,3.052,3.052,0,0,0-1.977.776,2.961,2.961,0,0,0-1.07,2.416v2.407a5.779,5.779,0,0,0,.058,1.038q.151.675,1.1.776v.135h-4.3v-.135a1.436,1.436,0,0,0,.918-.4,1.071,1.071,0,0,0,.218-.625q.019-.093.019-.793V52.691a5.915,5.915,0,0,0-.056-1.039q-.152-.667-1.1-.776v-.135l2.63-.228a3.271,3.271,0,0,1,.388.879A5.592,5.592,0,0,1,104.049,52.386Z" transform="translate(-67.056 -47.166)" fill="#fff"/>
        <path id="Path_24" data-name="Path 24" d="M124.332,57.58a3.855,3.855,0,0,1-1.211,1.132,5.614,5.614,0,0,1-2.744.625,3.675,3.675,0,0,1-2.355-.651,1.808,1.808,0,0,1-.719-1.462,2.525,2.525,0,0,1,1.315-2.094,16.243,16.243,0,0,1,5.572-1.723c.006-.2.009-.343.009-.439a1.51,1.51,0,0,0-.463-1.249,2.414,2.414,0,0,0-1.533-.4,4.714,4.714,0,0,0-2.923.887,4.106,4.106,0,0,0-1.164,1.512L118,53.7l.3-2.862a.807.807,0,0,0,.568.211,7.275,7.275,0,0,0,1.344-.33,9.388,9.388,0,0,1,2.781-.38,4,4,0,0,1,2.639.71,1.616,1.616,0,0,1,.559.869,5.129,5.129,0,0,1,.1,1.15v3.724a2.535,2.535,0,0,0,.436,1.748,1.99,1.99,0,0,0,.956.481v.135h-2.677a3.644,3.644,0,0,1-.493-.743A3.355,3.355,0,0,1,124.332,57.58Zm-.076-3.455a13.85,13.85,0,0,0-2.6.735q-2.13.87-2.13,2.2a1.174,1.174,0,0,0,.625,1.047,1.9,1.9,0,0,0,.993.245,3.328,3.328,0,0,0,2.072-.693,2.332,2.332,0,0,0,.889-1.36,7.521,7.521,0,0,0,.151-1.681Z" transform="translate(-64.948 -47.165)" fill="#fff"/>
        <path id="Path_25" data-name="Path 25" d="M136.957,47.8l.784,3.48-.16.051a4.336,4.336,0,0,0-.634-1.056,4.42,4.42,0,0,0-.955-.793,4.876,4.876,0,0,0-2.706-.811A3.855,3.855,0,0,0,131.6,49a1.252,1.252,0,0,0-.842,1.116.933.933,0,0,0,.6.8,6.991,6.991,0,0,0,1.193.413l3.187.869a5.882,5.882,0,0,1,2.346,1.081,2.891,2.891,0,0,1,1,2.248,3.633,3.633,0,0,1-1.589,2.99,5.56,5.56,0,0,1-1.779.883,7.407,7.407,0,0,1-2.167.316,8.272,8.272,0,0,1-1.532-.143c-.132-.028-.48-.113-1.041-.253a7,7,0,0,0-.993-.17,1.018,1.018,0,0,0-.681.33L128.187,55.1l.172-.051a7.167,7.167,0,0,0,.8,1.537,5.021,5.021,0,0,0,2.035,1.647,5.377,5.377,0,0,0,2.25.473,4.42,4.42,0,0,0,2.856-.895,2.025,2.025,0,0,0,.87-1.6,1.766,1.766,0,0,0-1.021-1.546,7.491,7.491,0,0,0-1.674-.616l-3.055-.836q-2.621-.709-2.622-2.56a2.432,2.432,0,0,1,1.5-2.272,6.42,6.42,0,0,1,2.952-.65,12.02,12.02,0,0,1,2.27.287,3.769,3.769,0,0,0,.709.093A.973.973,0,0,0,136.957,47.8Z" transform="translate(-63.548 -47.5)" fill="#fff"/>
        <path id="Path_26" data-name="Path 26" d="M148.774,56.768l-1,2.483a1.351,1.351,0,0,0-.427-.085c-.044,0-.217.012-.52.034q-1.221.119-1.712.119a7.515,7.515,0,0,1-2.493-.406,5.665,5.665,0,0,1-1.972-1.131,4.211,4.211,0,0,1-1.41-3.227,3.755,3.755,0,0,1,1.438-3.082,4.867,4.867,0,0,1,3.178-1.056,17.614,17.614,0,0,1,1.779.143,7.5,7.5,0,0,0,.861.06,1.823,1.823,0,0,0,.823-.194l.577,2.668-.122.043a3.519,3.519,0,0,0-3.188-1.833,3.018,3.018,0,0,0-2.243.878,3.394,3.394,0,0,0-.974,2.484,3.512,3.512,0,0,0,.909,2.44,3.859,3.859,0,0,0,1.337.951,4.053,4.053,0,0,0,1.642.35,4.317,4.317,0,0,0,2.375-.684A3.536,3.536,0,0,0,148.64,56.7Z" transform="translate(-62.127 -47.155)" fill="#fff"/>
        <path id="Path_27" data-name="Path 27" d="M151.43,52.688a10.519,10.519,0,0,1,1.806-1.317,4.977,4.977,0,0,1,2.384-.676,2.222,2.222,0,0,1,1.9.861,2.863,2.863,0,0,1,.4,1.7v4.316a5.856,5.856,0,0,0,.055,1.038q.171.711,1.165.776v.135h-4.352v-.135a1.457,1.457,0,0,0,.909-.4,1.08,1.08,0,0,0,.217-.625,7.691,7.691,0,0,0,.019-.793V54.022a2.9,2.9,0,0,0-.246-1.411,1.237,1.237,0,0,0-1.153-.641,3.17,3.17,0,0,0-1.807.616,2.886,2.886,0,0,0-1.1,1.309,4.134,4.134,0,0,0-.2,1.411v2.264a5.858,5.858,0,0,0,.055,1.038q.152.675,1.1.776v.135h-4.238v-.135a1.445,1.445,0,0,0,.861-.4,1.079,1.079,0,0,0,.217-.625,7.691,7.691,0,0,0,.019-.793V49.943a5.816,5.816,0,0,0-.056-1.039q-.171-.718-1.193-.776v-.137l3.237-.464Z" transform="translate(-60.975 -47.527)" fill="#fff"/>
        <path id="Path_28" data-name="Path 28" d="M164.366,50.334a6.344,6.344,0,0,1,2.157.362,4.834,4.834,0,0,1,1.7,1.015,4.015,4.015,0,0,1,1.249,3.04,4.062,4.062,0,0,1-1.543,3.327,5.349,5.349,0,0,1-1.754.918,7.021,7.021,0,0,1-2.152.333,6.5,6.5,0,0,1-2.342-.406,4.484,4.484,0,0,1-1.746-1.148,4.187,4.187,0,0,1-1.1-2.931,4.081,4.081,0,0,1,1.457-3.21A5.96,5.96,0,0,1,164.366,50.334Zm-.331.835a3.239,3.239,0,0,0-1.333.279,2.718,2.718,0,0,0-1.023.77,3.607,3.607,0,0,0-.691,2.323,4.821,4.821,0,0,0,.643,2.492,2.758,2.758,0,0,0,2.554,1.436,3.1,3.1,0,0,0,1.911-.625,3.382,3.382,0,0,0,1.23-2.9,4.334,4.334,0,0,0-.681-2.474A2.947,2.947,0,0,0,164.036,51.169Z" transform="translate(-59.605 -47.166)" fill="#fff"/>
        <path id="Path_29" data-name="Path 29" d="M175.135,50.334a6.349,6.349,0,0,1,2.157.362,4.834,4.834,0,0,1,1.7,1.015,4.019,4.019,0,0,1,1.248,3.04,4.064,4.064,0,0,1-1.542,3.327,5.355,5.355,0,0,1-1.755.918,7.016,7.016,0,0,1-2.152.333,6.49,6.49,0,0,1-2.341-.406,4.476,4.476,0,0,1-1.746-1.148,4.188,4.188,0,0,1-1.1-2.931,4.084,4.084,0,0,1,1.457-3.21A5.962,5.962,0,0,1,175.135,50.334Zm-.331.835a3.244,3.244,0,0,0-1.334.279,2.7,2.7,0,0,0-1.021.77,3.607,3.607,0,0,0-.691,2.323,4.811,4.811,0,0,0,.643,2.492,2.756,2.756,0,0,0,2.554,1.436,3.1,3.1,0,0,0,1.911-.625,3.382,3.382,0,0,0,1.23-2.9,4.325,4.325,0,0,0-.682-2.474A2.945,2.945,0,0,0,174.8,51.169Z" transform="translate(-58.221 -47.166)" fill="#fff"/>
        <path id="Path_30" data-name="Path 30" d="M183.184,47.527V57.571a5.818,5.818,0,0,0,.056,1.038q.171.711,1.174.776v.135H180.09v-.135a1.46,1.46,0,0,0,.871-.4,1.079,1.079,0,0,0,.217-.625,7.694,7.694,0,0,0,.019-.793V49.943a5.814,5.814,0,0,0-.056-1.039c-.114-.484-.514-.743-1.2-.776v-.137Z" transform="translate(-56.892 -47.527)" fill="#fff"/>
      </g>
    </g>
  </g>
</svg>
