<svg xmlns="http://www.w3.org/2000/svg" width="315" height="210" viewBox="0 0 315 210">
  <g id="Group_514" data-name="Group 514" transform="translate(-645 -324)">
    <rect id="Rectangle_280" data-name="Rectangle 280" width="315" height="210" transform="translate(645 324)" fill="#c9b5a5"/>
    <g id="Group_474" data-name="Group 474" transform="translate(716.443 404.662)">
      <g id="Group_2" data-name="Group 2" transform="translate(0 0)">
        <g id="Group_1" data-name="Group 1" transform="translate(4.26 1.478)">
          <path id="Exclusion_1" data-name="Exclusion 1" d="M8.5,17.424a1.177,1.177,0,0,1-.287-.053l-.18-.21a.687.687,0,0,1-.191-.127l-.011-.017a.532.532,0,0,0-.314-.272c-.168-.042-.251-.209-.312-.331l-.03-.058a.548.548,0,0,0-.217-.177,1,1,0,0,1-.092-.057.639.639,0,0,1-.146-.354,1.114,1.114,0,0,0-.11-.276c-.015-.03-.027-.057-.036-.076-.032-.079.085-.19.086-.191A1.969,1.969,0,0,1,6.852,15a.564.564,0,0,0,.1-.337c0-.017,0-.043,0-.073-.008-.089-.018-.21.017-.231.053-.034.034-.2.033-.207l-.057-.224s.05-.215.158-.787a.472.472,0,0,0-.067-.406.5.5,0,0,0-.364-.153,5.4,5.4,0,0,0-2.8,1.346,4.833,4.833,0,0,0-.388.349l-.009.012a2.6,2.6,0,0,0-.336.487c-.013.084-.1.153-.256.209s-.21.331-.211.334l-.05.354L2.5,15.8l-.085.1v.3l-.094.108-.127.18c-.009.039-.053.227-.1.227-.024,0-.052.04-.081.082s-.066.1-.1.1a.187.187,0,0,1-.063.009.419.419,0,0,1-.16-.032.045.045,0,0,0-.028-.008.3.3,0,0,0-.1.029.3.3,0,0,1-.1.03.035.035,0,0,1-.021-.006l-.017-.011c-.067-.044-.225-.146-.211-.245s-.192-.3-.358-.463c-.048-.048-.091-.092-.124-.127a.548.548,0,0,1-.125-.408.17.17,0,0,1,.06-.125c.095-.064-.006-.42-.049-.573C.572,14.8.505,14.57.569,14.5a2.067,2.067,0,0,1,.487-.37c.083,0,.379-.508.42-.589s.3-.154.435-.188l.037-.01a1.02,1.02,0,0,1,.213-.017l.122,0,.114,0c.147,0,.344-.235.346-.237l.005-.006c.259-.286,2.536-2.8,2.872-3.166.068-.072.094-.126.08-.16s-.059-.045-.136-.045a2.773,2.773,0,0,0-.512.084c-.056.013-.1.023-.129.028a4.058,4.058,0,0,0-.675.281l-.12.167-.019,0c-.051.012-.208.048-.35.077a1.8,1.8,0,0,0-.7.242c-.048.077-.346.125-.593.125-.044,0-.083,0-.119,0H2.33a.6.6,0,0,0-.287.091.457.457,0,0,1-.208.072.462.462,0,0,1-.406-.163.454.454,0,0,0-.316-.077H.961c-.063,0-.122,0-.128-.031-.015-.074-.123-.084-.218-.093l-.046,0c-.1-.016-.3-.128-.3-.193S.185,10.2.184,10.2a1.059,1.059,0,0,1-.163-.1c-.032-.035-.021-.089-.01-.141A.354.354,0,0,0,.021,9.9c0-.063.114-.116.115-.117L.3,9.737a.346.346,0,0,0,.079-.18.8.8,0,0,1,.374-.364,1.021,1.021,0,0,0,.236-.172.813.813,0,0,1,.106-.084,1.34,1.34,0,0,0,.225-.275,2.687,2.687,0,0,1,.97-.576A12.117,12.117,0,0,0,3.665,7.4C3.68,7.39,5.2,5.937,5.264,5.858a2.711,2.711,0,0,1,.327-.3,1.51,1.51,0,0,0,.2-.336c.02-.04.039-.077.054-.105a1.374,1.374,0,0,1,.2-.215,2,2,0,0,0,.188-.2,3.274,3.274,0,0,1,.3-.3c.087-.106.842-1.026.922-1.088a1.956,1.956,0,0,0,.225-.324c.028-.045.051-.083.066-.105a.872.872,0,0,1,.242-.226c.06-.027.115-.145.148-.215l.012-.025c.019-.034.074-.041.116-.041a.5.5,0,0,1,.08.007l.113-.062.081-.14a1.309,1.309,0,0,0,.143-.228,1.236,1.236,0,0,1,.153-.211l.093.022.095-.036c.026-.008.157-.046.229-.063s.1-.082.123-.133a.445.445,0,0,1,.023-.041.305.305,0,0,1,.082-.071.309.309,0,0,0,.1-.091c.019-.045.1-.05.164-.055a.523.523,0,0,0,.078-.009c.031-.007.042-.044.055-.085s.025-.081.058-.09a.225.225,0,0,0,.092-.071A.2.2,0,0,1,10.09.965c.031-.01.034-.072.037-.132,0-.022,0-.042,0-.059.017-.063.157-.079.163-.079l.066-.16V.36c0-.066.111-.112.113-.113A1.024,1.024,0,0,0,10.6.057.121.121,0,0,1,10.719,0a.382.382,0,0,1,.112.019.679.679,0,0,1,.354.45c0,.065.067.395.067.4v.193a3.319,3.319,0,0,1-.084.353,2.013,2.013,0,0,1-.205.431,2.705,2.705,0,0,0-.116.321.17.17,0,0,1-.17.143.613.613,0,0,0-.076.016c-.112.032-.177.193-.178.194l-.129.286-.146.017-.06.13a.172.172,0,0,1-.085.1c-.061.03-.078.159-.078.16l-.1.207.035.237-.129.132L9.651,4a.565.565,0,0,1-.051.234,2.352,2.352,0,0,0-.131.361c0,.091.018.4.018.672a.386.386,0,0,0,.356.4.025.025,0,0,0,.023-.012c.028-.047-.063-.217-.067-.224l.175.015.078-.082.163-.143.023,0c.046,0,.152-.01.185-.01.053,0,.15-.206.178-.292s.209-.145.211-.146h.006c.087,0,.241-.01.306-.01s1.226.334,1.275.349a1.014,1.014,0,0,1,.159.244c.05.1.423.17.439.173l.174-.1h.132l.261.028a2.059,2.059,0,0,1,.306.068.178.178,0,0,0,.068.012.471.471,0,0,0,.146-.028H14.6l.156-.032.148.015.165-.035h.307l.115-.061h.29l.16-.058.113-.039h.227s.358.014.419.014.343.024.345.024.333.092.4.107a.99.99,0,0,1,.234.125c.007.006.179.151.274.244a.373.373,0,0,0,.244.1l.015.013c.166.152.263.247.29.282a.416.416,0,0,1-.033.34c-.037.048-.153.055-.219.055h-.037s-.241.119-.312.156a.362.362,0,0,0-.1.11.489.489,0,0,1-.1.117.259.259,0,0,1-.141.025,1.554,1.554,0,0,1-.26-.025h-.012c-.077,0-.145.153-.148.159a.607.607,0,0,1-.211.11c-.066,0-.132-.081-.132-.082l-.146-.018-.125-.121H16.3l-.26-.024-.35.085-.229.031a3.31,3.31,0,0,1-.567-.049.575.575,0,0,0-.117-.011.873.873,0,0,0-.3.06l-.357.129-.225.046-.162-.01-.115.09-.192-.03-.205-.034-.168.147-.307.079-.247.06-.042.085-.209.032s-.4.127-.683.238a1.587,1.587,0,0,0-.508.4.882.882,0,0,1-.158.146.465.465,0,0,0-.129.114.516.516,0,0,1-.162.138,1.639,1.639,0,0,0-.35.656,6.691,6.691,0,0,1-.381.728c-.067.12-.125.223-.158.285-.111.2-.69,1.806-.7,1.823s-.095.418-.095.477a.4.4,0,0,1-.142.289.059.059,0,0,0-.033.04c-.022.08.082.232.083.234a1.93,1.93,0,0,0-.05.256.979.979,0,0,1-.043.167,2.3,2.3,0,0,0-.105.455,5.277,5.277,0,0,0,.063.879l0,.008a.715.715,0,0,1,.031.424,2.133,2.133,0,0,0-.057.4,1.179,1.179,0,0,1-.024.193c-.016.05.085.2.113.234a.317.317,0,0,1,.053.254c-.014.046-.03.11-.044.172a2,2,0,0,1-.054.2.824.824,0,0,0-.035.181.8.8,0,0,1-.063.268C8.6,17.411,8.558,17.424,8.5,17.424ZM7.171,9.839a.076.076,0,0,0-.027.005c-.029.013-.059.025-.09.037a.681.681,0,0,0-.25.142,1.068,1.068,0,0,0-.1.121,1.143,1.143,0,0,1-.167.2,2.134,2.134,0,0,0-.256.32c-.034.047-.25.292-.274.319-.006.005-.486.454-.552.528s-.292.319-.295.321a.29.29,0,0,0-.095.2.25.25,0,0,0,.115.187c.148.118.226.16.3.16a.354.354,0,0,0,.113-.026l.006,0a1.4,1.4,0,0,1,.33-.068l.128-.075a.034.034,0,0,1,0-.032c.009-.017.04-.036.135-.036a.938.938,0,0,0,.583-.324,1.386,1.386,0,0,0,.242-.53,1.2,1.2,0,0,1,.209-.474c.061-.03.156-.266.16-.276s.038-.191-.017-.269a1.082,1.082,0,0,1-.082-.239C7.282,10.016,7.258,9.839,7.171,9.839ZM5.907,6.98a.09.09,0,0,1,.068.027.137.137,0,0,0,.1.027.619.619,0,0,0,.161-.027l.248-.083s.028,0,.062,0A.255.255,0,0,0,6.688,6.9a.355.355,0,0,1,.094-.052c.072-.031.153-.067.153-.128a2.151,2.151,0,0,1,.094-.385.453.453,0,0,1,.082-.2l.022-.014c.069-.044.232-.148.232-.192a.852.852,0,0,0-.157-.416.569.569,0,0,0-.337-.127.087.087,0,0,0-.05.011l-.508.306-.919.959s-.125.193-.08.294a.111.111,0,0,0,.093.06,2.328,2.328,0,0,0,.271.017c.066,0,.1,0,.106,0A.273.273,0,0,1,5.907,6.98Z" transform="translate(0)" fill="#fff"/>
          <path id="Path_4" data-name="Path 4" d="M54.333,38.952s-.1.254.126.266.419.021.5.021a.977.977,0,0,0,.272-.053c.12-.028.132-.063.427.02s.385.033.68.125.694.243.694.243l.242.045.127.1.215.065a1.431,1.431,0,0,1,.24.065c.066.032.261.092.261.092s.227.177.289.21.239.181.3.181.281.093.281.14.277.189.277.189a.507.507,0,0,1,.226.085c.065.061.081.174.2.222s.227.2.3.226.228.238.276.255a1.868,1.868,0,0,1,.244.143l.211.131a.5.5,0,0,0,.2.077c.113.017.113.065.163.081s.272.033.47.064a2.791,2.791,0,0,0,.471.049h.367s.47.1.532.1a5.044,5.044,0,0,1,.536.064,3.672,3.672,0,0,0,.439,0l.272-.033s.228-.048.261-.1-.076-.065.161-.1.256-.127.256-.127a1.126,1.126,0,0,1,.146-.112.25.25,0,0,0,.132-.189c0-.069-.082-.178-.245-.243a1.68,1.68,0,0,0-.548-.129,1.156,1.156,0,0,1-.485-.113,1.215,1.215,0,0,0-.517-.178,2.962,2.962,0,0,1-.55-.12,1.127,1.127,0,0,0-.436-.1,1.282,1.282,0,0,1-.422-.077l-.146-.148-.239-.047a2.6,2.6,0,0,1-.376-.1c-.05-.031-.39-.161-.39-.161s-.223.078-.268,0a2.623,2.623,0,0,0-.572-.257s-.194-.091-.237-.189-.568-.192-.568-.242-.309-.156-.309-.156l-.292-.081-.127-.063-.227-.021-.228-.032-.306-.065-.213-.066a1.162,1.162,0,0,1-.337-.013,1.927,1.927,0,0,0-.211-.1l-.163-.048h-.27a3.69,3.69,0,0,1-.472-.059,2.1,2.1,0,0,0-.487-.049c-.083,0-.423.091-.483.091A1.537,1.537,0,0,0,54.333,38.952Z" transform="translate(-44.244 -26.748)" fill="#fff"/>
        </g>
        <path id="Exclusion_2" data-name="Exclusion 2" d="M20.73,37.5h0l-.47-.155L19.9,37.31l-.309.116-.43-.04a1.514,1.514,0,0,0-.239-.017,2.584,2.584,0,0,0-.288.017h-.3L18,37.31h-.2l-.229.039-.3-.078-.73.04-.464-.081-.338-.04.066-.313-.563.044-.3.043-.3.071a.925.925,0,0,1-.268-.04.271.271,0,0,0-.067-.005c-.213,0-.8.076-.863.085h-.5c-.1,0-.492-.071-.537-.079h0a1.7,1.7,0,0,0-.6.2s-.4-.038-.5-.038a1.254,1.254,0,0,1-.188-.033,1.912,1.912,0,0,0-.341-.054.237.237,0,0,0-.069.008,3.87,3.87,0,0,0-.4.156l-.266.041-.669-.041-.325-.04-.237-.078-.27.118-.428.119-.138-.2H7.454c-.083.059-.074.089-.07.1s0,.007,0,.009-.025.005-.1.005a4.606,4.606,0,0,1-.5-.041s-.081-.124-.17-.124a.1.1,0,0,0-.033.006.347.347,0,0,1-.128.018,1.381,1.381,0,0,1-.2-.018l-.3.041-.4.038-.534.12a2.156,2.156,0,0,1-.328.039c-.132,0-.421-.037-.433-.039a.444.444,0,0,0-.193-.036,1.2,1.2,0,0,0-.269.036s-.137.039-.234.076a2.027,2.027,0,0,1-.434.04L2.5,37.27a1.51,1.51,0,0,0-.4-.2A.431.431,0,0,1,1.927,37a.475.475,0,0,0-.2-.084.077.077,0,0,0-.032.006.156.156,0,0,1-.062.012.554.554,0,0,1-.192-.053c-.036-.015-.073-.029-.109-.04a5.763,5.763,0,0,1-.766-.781s-.039-.193-.138-.234S.17,35.552.169,35.55l.13-.272a.167.167,0,0,0,.06.017.031.031,0,0,0,.03-.015C.407,35.245.365,35.152.264,35a2.7,2.7,0,0,1-.2-1.291,1.915,1.915,0,0,0,0-.466l-.035-.355V32.54l.1-.234-.1-.464L.169,31.6l.13-.316a2.349,2.349,0,0,1-.035-.621l.071-.821-.071-.352-.028-.313L.2,28.873l-.1-.314L0,28.245a2.4,2.4,0,0,0,.068-.586.659.659,0,0,1-.035-.309,1.258,1.258,0,0,1,.136-.276,1.773,1.773,0,0,0,.3-.548l.065-.393-.03-.5.067-.317-.1-.508-.035-.431L.4,24.026l.031-.273.2-.9.035-.274.061-.823a2.736,2.736,0,0,1,0-.546v-.194L.669,20.2a1.253,1.253,0,0,0,.361-.51l.174-.978,0-.01c-.047-.184-.082-.328-.1-.416a1.826,1.826,0,0,1,.032-.508l.134-.748c-.019-.014-.063-.061-.063-.19v-.316c-.07-.193-.369-1.164-.372-1.174,0-.221-.026-.529-.028-.542-.019-.061-.08-.255-.108-.355a.758.758,0,0,1-.014-.094A.22.22,0,0,0,.6,14.181a.785.785,0,0,1-.168-.313c0-.151.07-1.158.071-1.168L.366,12.27.4,11.915l.031-.864A2.156,2.156,0,0,0,.5,10.467l.067-.312L.6,9.92.468,9.3.433,8.985a1.05,1.05,0,0,1,0-.468l.2-.082A.231.231,0,0,1,.62,8.4C.6,8.353.56,8.247.533,8.161c-.029-.11-.065-.5-.065-.5l.065-.276L.4,6.6.366,6.329.4,6.015l.1-.231.03-.274L.433,5a2.927,2.927,0,0,1-.1-.587l-.1-.273V3.631L.3,3.318l.1-.386.131-.393.2-.583H1.1l.3-.428.831-.47L2.562.78l.4-.111.3-.084.33-.153.3-.039.435.039L5.19.585l.834.12L6.491.623h.46L7.22.74l.234.04.2.04L7.886.74,8.481.82l.267.161.431.077h.369a1.944,1.944,0,0,1,.4-.12l.3-.118.4.118L11.576.9l.338.041L12.441.82,12.709.74l.334.04.7-.075H14.3l.4.035L14.97.705l.2-.082h.833l.225.045.538-.084.76-.153.307-.039h.394a.3.3,0,0,0,.164.032,1.826,1.826,0,0,0,.3-.032l.2-.043.235-.113a.3.3,0,0,1,.108-.019A.708.708,0,0,1,19.59.35l.67-.113.47.034a.711.711,0,0,0,.328-.077l.233-.153.2-.041h.266l.33.079.8.115.232.077.4.078h.329l.4-.039.232.2h.434l.229.044.568.073c.33.194.6.356.6.357l.265.152a.336.336,0,0,0,.266.276l.1.269s.1.28.135.393.362.814.365.821c.034.19.067.539.067.543l-.133.239.1.277-.034.578-.1.311-.029.982-.033.345-.064.357.064.392-.064.428V7.66l-.068.466-.033.659v.595l-.035.344-.067.126-.032.306.032.274.136.276-.068.234-.1.194v.548a.633.633,0,0,0,.135.356l.033.386c-.032.115-.067.339-.068.349l-.067.274c.01.054.019.1.028.147a1.557,1.557,0,0,1,.04.29.314.314,0,0,0,.039.133.23.23,0,0,1,.03.177,3.754,3.754,0,0,0-.068.388l-.067.234a1.77,1.77,0,0,1,.067.352V15.7c0,.119-.032.469-.032.472l.138.351v.353l.031.312-.068.2.132.231s-.1.2-.065.28a.052.052,0,0,0,.029.031.389.389,0,0,0,.09.022c.074.012.145.023.145.136,0,.155-.034.654-.034.659l-.066.32s.066.344.1.468.1.456.1.471l-.032.351v.274a.814.814,0,0,1,.168.5l.1.31.032.355a2.554,2.554,0,0,1,.1.549l-.032.309-.068.235v.237l-.1.232.168.35.1.313-.064.194-.067.391.035.313-.068.509s-.032.313-.032.428a.478.478,0,0,0,.041.165.72.72,0,0,1,.059.267v.43l.032.311.064.778-.1.276-.1.275.065.386.035.354s.032.242.032.352-.032.39-.032.393-.1.192-.035.311a.423.423,0,0,1,.067.387,6.692,6.692,0,0,0-.032,1.135.337.337,0,0,1,.065.2v.469s-.045.165,0,.219a.042.042,0,0,0,.035.017c.1,0,.2.194.2.2l-.133.271-.067.392-.064.311v.2l.033.311-.065.395a1.766,1.766,0,0,0-.1.387v.391l-.031.234-.135.234-.033.271-.171.317-.2.276-.2.269c-.23.192-.433.35-.435.352a.922.922,0,0,1-.255.052.2.2,0,0,1-.076-.012,1.75,1.75,0,0,0-.4-.04.827.827,0,0,0-.4-.2.182.182,0,0,0-.039,0c-.155.038-.284.076-.3.08l-1.562.2a1.509,1.509,0,0,0-.6-.159,1.219,1.219,0,0,0-.3-.081,1.124,1.124,0,0,0-.332.041,2.125,2.125,0,0,1-.464.04h-.1a.726.726,0,0,0-.334.076l-.728.118ZM19.5,36.489h0l.325.041h.516l.231.039.45-.039.421-.161s.291.021.54.021a1.548,1.548,0,0,0,.307-.021l.323-.071.193-.161a2.354,2.354,0,0,0,.425-.043.782.782,0,0,1,.105-.018,1.375,1.375,0,0,0,.156-.018l.193-.035A1.3,1.3,0,0,1,23.916,36a.836.836,0,0,1,.195.021L24.3,35.9l.49.04a2.219,2.219,0,0,1,.319-.193h.452l.168-.351.1-.239.325-.778c.007-.014.163-.353.227-.471s.19-.351.191-.353v-.389l-.061-.47-.032-.226.193-.2.1-.278-.034-.235.034-.313-.034-.235a.8.8,0,0,1-.224-.265.7.7,0,0,1-.016-.18.7.7,0,0,0-.016-.18.551.551,0,0,1,.012-.24.848.848,0,0,0,.02-.154v-.346l.193-.665.065-.388.066-.311.032-.429-.1-.242a1.14,1.14,0,0,0-.227-.512l-.227-.189.131-.276.126-.35.071-.429.03-.425-.066-.238-.034-.547a.588.588,0,0,0-.317-.235c-.038-.008-.058-.02-.06-.038-.006-.059.216-.156.218-.157l.159-.78s.263-.4.132-.549a.515.515,0,0,1-.062-.381.558.558,0,0,0,0-.164,2.621,2.621,0,0,1-.037-.4,3.4,3.4,0,0,0-.033-.387,6.924,6.924,0,0,1,.071-.932l-.362-.313-.127-.668a1.718,1.718,0,0,0,.066-.508,1.583,1.583,0,0,1,.091-.53l0-.015c.031-.116-.159-.387-.161-.389a3.4,3.4,0,0,1-.258-.43.62.62,0,0,1,0-.43c.035-.115.133-.7.133-.7l.161-1.059.223-.627-.067-.777-.126-.7-.1-.7-.028-.351.128-.509c-.006,0-.291-.038-.392-.038a.019.019,0,0,1-.016-.008c-.059-.075.081-.656.083-.662a9.648,9.648,0,0,0-.132-.974l.231-.469-.261-.387L25.6,8.829l.1-.9.094-.356.1-1.17-.132-1.363V4.3l.132-.313s-.034-.583-.067-.7-.16-.469-.161-.472-.352-.345-.52-.508a4.678,4.678,0,0,0-.553-.392l-.551-.035-.389.081-.616-.045-.745-.154-.168.2-.712.115L20.8,1.838s-.36-.161-.457-.194a.213.213,0,0,0-.083-.013,1.216,1.216,0,0,0-.277.047l-.844.038h-.287l-.648.16h-.682l-.747.118-.1-.278h-.36l-.874-.038-.42-.269-.394.269-.645-.118h-.649l-.515.118-.394.078-.748.154H10.417l-.52.16-.266.04L8.8,2.148,8.76,1.911,7.918,1.8c-.127.009-.532.039-.618.039s-.19.186-.194.194l-.843.156-.586-.117-.488.117-.356-.35-.323.194H3.992l-.457.039-.425.077a1.312,1.312,0,0,0-.288.588c0,.233-.414.624-.418.628l-.2.192-.1.271a3.605,3.605,0,0,1-.029.472l-.063.229.092.514-.127.31-.095.2v.314l.095.268-.033.239a3.391,3.391,0,0,1,.1.546L2.1,8.01l.039.469L2.1,8.71v.35l-.029.513-.035.468-.1.314.033.192.035.313v.355L2.1,11.6l-.074.158-.053.352-.06.589.026.308.131.316v.392l.029.27.1.43.064.237a2.237,2.237,0,0,1-.064.545c-.007.032-.167.789-.228.937l-.06.238-.035.274v.384l-.036.242.072.349.026.236-.026.233.026.35-.026.508.095,1.328.028.468.064.237a5.545,5.545,0,0,1-.029.585c0,.016-.063.4-.063.508l-.035.394a2.749,2.749,0,0,1-.033.428l.033.276.063.311a.9.9,0,0,1-.158.425,1.454,1.454,0,0,0,0,.435.673.673,0,0,1-.068.467v.9a.767.767,0,0,0,.13.462l.131.862a.546.546,0,0,0,.13.352.424.424,0,0,1-.1.352l-.222.148-.036.321v.311l-.062.393L1.75,29.1a3.049,3.049,0,0,0,.034.469c.007.035.012.07.017.106a.8.8,0,0,0,.116.361L1.75,31.055l-.1.269a.607.607,0,0,0,.036.321.7.7,0,0,1-.01.4c-.009.047-.018.1-.026.148a3.1,3.1,0,0,0,0,.548,1.39,1.39,0,0,0,.1.271l-.06.351.026.238-.094.232.354.2c0,.005.361.665.458.819l.191.194s.264.313.264.469l.323.236.354.193.067.153a.881.881,0,0,0,.3.09.134.134,0,0,0,.06-.012,2.741,2.741,0,0,1,.485-.035l.323.086a.488.488,0,0,1,.259.075.1.1,0,0,0,.061.019.285.285,0,0,0,.168-.094.807.807,0,0,1,.291-.059.556.556,0,0,1,.1.009,1.356,1.356,0,0,0,.389-.078,1.137,1.137,0,0,1,.424-.153l.519-.193.054.04c.086.065.261.2.4.306h0a1.959,1.959,0,0,0,.213.012.934.934,0,0,0,.335-.048,2.1,2.1,0,0,1,.249-.016,1.129,1.129,0,0,1,.2.016l.3-.082a1.171,1.171,0,0,0,.2.021.313.313,0,0,0,.128-.021.088.088,0,0,1,.031-.005.524.524,0,0,1,.39.327l.256.117.295.033.291.082h.425a4.356,4.356,0,0,1,.511-.052.3.3,0,0,1,.1.011.084.084,0,0,0,.033.006,1.5,1.5,0,0,0,.425-.161H12.3l.361.035a.712.712,0,0,1,.086-.005c.084,0,.193.015.233.085H13.6a.789.789,0,0,1,.236-.048.242.242,0,0,1,.089.015,1.118,1.118,0,0,0,.264.033l.321.082.488-.082.417.041a2.955,2.955,0,0,1,.511-.085.2.2,0,0,1,.076.011.741.741,0,0,0,.171.013,2.254,2.254,0,0,0,.572-.06,1.862,1.862,0,0,1,.553.079l.324.082.457-.041a5.37,5.37,0,0,1,.681.041Z" fill="#fff"/>
        <path id="Path_7" data-name="Path 7" d="M45.75,49.734c-.033.1-.1.242-.053.335s.228.244.216.316c-.017.088.126.151.126.151l.143.115.032.172s.017.1.028.18a.634.634,0,0,0,.132.208.458.458,0,0,0,.194.146c.076.031.191.048.242.115s.161.045.259.061a.5.5,0,0,1,.292.082.7.7,0,0,0,.4.129c.078-.018.322.089.337.161s.191.256.191.324a2.151,2.151,0,0,0,.034.244s-.226.395-.261.49-.06.47-.06.47a1.1,1.1,0,0,1,.015.273c-.015.063-.113.326-.113.326l-.048.318-.032.142s.015.179-.033.239-.175.321-.175.321l-.126.325s-.118.1-.067.191.067.306.163.4.175.309.319.359.321.107.337.2.292.232.292.313a.2.2,0,0,0,.192.206.457.457,0,0,0,.369-.354,4.3,4.3,0,0,1,.143-.725,2.617,2.617,0,0,1,.306-.673,1.225,1.225,0,0,0,.206-.568c.021-.06.064-.283.064-.283l.163-.294s.18-.191.259-.256l.194-.143a1.389,1.389,0,0,0,.161-.242,2.3,2.3,0,0,0,.113-.321,5.562,5.562,0,0,0,.063-.738,2.291,2.291,0,0,1,.1-.852c.1-.2.287-.6.357-.706a3.108,3.108,0,0,0,.139-.45l.178-.1s.05-.146.086-.228.17-.177.17-.177.311-.642.375-.755a2.535,2.535,0,0,0,.256-.566c0-.092.24-.637-.357,0s-.385.485-.435.614-.127.371-.218.412-.115.226-.181.278-.142.276-.208.349-.192.354-.291.395a.622.622,0,0,0-.275.19c-.01.048-.349.32-.386.078a1.238,1.238,0,0,1,.053-.7c.093-.135.015-.376.093-.487a1.543,1.543,0,0,0,.142-.435l-.077-.194s-.126-.175-.254-.123a3.909,3.909,0,0,0-.407.189s-.11.08-.11.175a.3.3,0,0,1-.146.259.262.262,0,0,0-.129.113s-.108.161-.143.224-.047.278-.192.288a1.791,1.791,0,0,1-.9.018,4.954,4.954,0,0,1-.95-.4,1.408,1.408,0,0,0-.324-.078A.378.378,0,0,0,46.5,49.7a.526.526,0,0,1-.2-.013l-.259-.08S45.8,49.607,45.75,49.734Z" transform="translate(-41.934 -23.086)" fill="#fff"/>
        <path id="Exclusion_3" data-name="Exclusion 3" d="M.139,9.9C.063,9.9.018,9.874,0,9.828c-.062-.211.552-.829.632-.88L.73,8.885a2.674,2.674,0,0,0,.6-.473.432.432,0,0,1,.192-.194l.011-.012c.216-.235.394-.427.5-.542a2.435,2.435,0,0,0,.351-.62,1.879,1.879,0,0,1,.2-.385.759.759,0,0,0,.159-.321,1.266,1.266,0,0,0,.073-.269,1.3,1.3,0,0,0-.01-.173.564.564,0,0,1,.006-.252A.084.084,0,0,1,2.868,5.6c.013-.005.025-.01.029-.022s0-.068-.045-.157a.7.7,0,0,1,.018-.5c.172-.087.055-.5-.06-.744a3.763,3.763,0,0,1-.163-.969C2.626.529,4.63.062,4.65.058A2.483,2.483,0,0,1,5.166,0a1.6,1.6,0,0,1,1.5.957,1.489,1.489,0,0,1,.193.854,3.146,3.146,0,0,1-.239.282s.023.241.041.3-.163.143-.17.147a.379.379,0,0,0,.052.265.07.07,0,0,1,.02.053c0,.054-.069.111-.127.162-.021.018-.042.036-.058.053a.588.588,0,0,1-.234.163c-.068.022-.2.272-.276.421-.027.051-.047.091-.059.109-.038.076-.087.231-.036.261a.776.776,0,0,0,.238.043.231.231,0,0,0,.14-.035.054.054,0,0,1,.035-.012c.092,0,.233.2.279.263l.008.011a.522.522,0,0,0,.115.092.534.534,0,0,1,.19.174.391.391,0,0,1-.028.263.262.262,0,0,1-.111.146.87.87,0,0,0-.267.46c-.015.114-.189.184-.191.184s-.061,0-.126,0c-.038,0-.072,0-.1,0a.932.932,0,0,0-.412.231,1.159,1.159,0,0,1-.6.244c-.042,0-.056.062-.072.123s-.037.149-.1.159c-.24.044-.647.5-.793.776-.005.007-.492.714-.445.97a.106.106,0,0,0,.043.072.523.523,0,0,0,.305.108.89.89,0,0,0,.2-.03L4.1,8.264c.162-.046,1.295-.409,1.306-.413.207-.06.382-.115.509-.155.1-.031.167-.052.209-.064a3.363,3.363,0,0,0,.836-.28,1.3,1.3,0,0,1,.459-.11,1.046,1.046,0,0,0,.39-.093,4.764,4.764,0,0,1,.6-.307,1.317,1.317,0,0,0,.472-.088,1.383,1.383,0,0,1,.455-.13c.089-.016.19-.034.3-.059L10,6.491l.356-.136.231.042.268-.14.285-.058a2.342,2.342,0,0,0,.352.029,1.319,1.319,0,0,0,.18-.011A1.973,1.973,0,0,1,11.97,6.2c.128,0,.258.007.363.013h.006l.1.005.117.013c.1.011.181.02.393.033l.047,0a7.321,7.321,0,0,1,1.327.19.333.333,0,0,1,.223.236.19.19,0,0,1-.092.177,1.472,1.472,0,0,1-.586.076c-.214,0-.408-.013-.41-.013a2.131,2.131,0,0,0-.366.025.462.462,0,0,1-.11.009c-.089,0-.194-.009-.195-.009-.054.008-.321.044-.429.044h-.028c-.087,0-.392,0-.395,0l-.456.046a2.594,2.594,0,0,1-.314.024c-.027,0-.054,0-.079,0H11.07a1.371,1.371,0,0,0-.424.123h-.019c-.25,0-.4,0-.433-.008a3.584,3.584,0,0,0-.4.074s-.282.087-.4.1a.714.714,0,0,0-.237.087L8.75,7.438c-.027,0-.265.034-.44.045a.268.268,0,0,0-.241.168l-.3.078s-.309.084-.424.1-.356.02-.359.02L6.7,7.885l-.512.094-.342.032-.3.146c-.077.009-.269.031-.478.047a3.182,3.182,0,0,0-.761.36,2.147,2.147,0,0,1-.436.217H3.851a5.107,5.107,0,0,0-.716.113l-.279.053c-.277.052-.591.11-.753.158a2.981,2.981,0,0,0-.869.436C1,9.728,1,9.728.269,9.882A.651.651,0,0,1,.139,9.9ZM5.156,2.525a.4.4,0,0,0-.325.222l-.08.125a1.91,1.91,0,0,0-.294.559,1.761,1.761,0,0,0-.015.255.711.711,0,0,1-.025.244.286.286,0,0,0,.008.21.178.178,0,0,0,.1.111.113.113,0,0,0,.034,0,.825.825,0,0,0,.315-.129c.033-.019.061-.034.081-.044C5,4.065,5,4.051,4.995,4.019a.4.4,0,0,1,.05-.209,3.548,3.548,0,0,0,.183-.438l0-.012c.018-.045.033-.079.047-.11a.582.582,0,0,0,.061-.2c0-.019.005-.044.01-.073.019-.128.047-.321-.029-.408a.138.138,0,0,0-.11-.045l-.032,0Z" transform="translate(10.084 18.744)" fill="#fff"/>
        <path id="Exclusion_4" data-name="Exclusion 4" d="M3.311,8.881H2.736a.658.658,0,0,1-.331-.087A1.428,1.428,0,0,0,2,8.682c-.006,0-.563-.178-.655-.194A2.321,2.321,0,0,1,1.03,8.4L.96,8.379C.887,8.355.633,8.221.633,8.168c0-.034-.2-.078-.3-.1a1.255,1.255,0,0,1-.216-.341.854.854,0,0,1-.11-.385A.394.394,0,0,1,.2,7.14a.6.6,0,0,1,.175-.02c.054,0,.1,0,.1,0l.262.031.3.032.3-.015.2.063h.175l.047-.161.181-.093h.114a.353.353,0,0,1,.107-.18.5.5,0,0,1,.231-.055l.082-.009c.126-.018.551-.049.624-.049a1.4,1.4,0,0,0,.432-.145.312.312,0,0,1,.166-.033l.074,0H3.83a.186.186,0,0,0,.13-.082.236.236,0,0,1,.071-.061.594.594,0,0,1,.208-.021c.077,0,.145,0,.147,0h.205l.19-.081a1.149,1.149,0,0,1,.2-.116c.068-.012.318-.031.377-.031A1.218,1.218,0,0,0,5.54,6.1a1.045,1.045,0,0,0,.144-.153.483.483,0,0,1,.28-.076c.056,0,.112-.07.166-.137a.6.6,0,0,1,.114-.119A.257.257,0,0,1,6.4,5.564l.05,0,.039,0c.039,0,.067-.049.094-.1A.383.383,0,0,1,6.635,5.4l.021-.025a.215.215,0,0,1,.164-.1c.088,0,.108-.147.123-.255l0-.017a1.348,1.348,0,0,1,.1-.277c.073-.172.183-.431.347-.868a.943.943,0,0,0-.1-.907,1.065,1.065,0,0,0-.7-.474,2.431,2.431,0,0,1-.374-.02L6.1,2.443q-.041,0-.079,0a.642.642,0,0,0-.326.084.759.759,0,0,0-.166.127l-.019.018c-.049.044-.24.045-.246.045s0,0,0,.005a.486.486,0,0,1-.162.223.411.411,0,0,0-.2.129,1.381,1.381,0,0,1-.158.167c-.074.073-.179.178-.328.329a1.7,1.7,0,0,0-.122,1.445,2.145,2.145,0,0,0,.376.419A1.989,1.989,0,0,1,3.655,4.47a1.019,1.019,0,0,1,.029-.8A2.44,2.44,0,0,0,3.952,2.9a.11.11,0,0,0-.126-.132.746.746,0,0,0-.143.02l-.01,0a.662.662,0,0,1-.118.018.1.1,0,0,1-.028,0,.051.051,0,0,0-.017,0,.81.81,0,0,0-.292.165.97.97,0,0,1-.2.125,1.137,1.137,0,0,0-.241.171.831.831,0,0,1-.253.171l-.01,0a.031.031,0,0,0-.016,0c-.067,0-.2.158-.2.164l-.074.178-.27.163a1.049,1.049,0,0,1-.221.139c-.059.016-.073.235-.074.244l-.206.014a.832.832,0,0,1-.231.146.22.22,0,0,0-.064.017.394.394,0,0,1-.135.03.221.221,0,0,1-.045,0H.969a.046.046,0,0,0-.034.013c-.026.026-.026.087-.025.158a.641.641,0,0,1-.017.186c-.034.113-.121.118-.232.124C.63,5,.6,5,.564,5L.52,5C.409,5,.393,4.962.365,4.887a.406.406,0,0,0-.129-.193A1.38,1.38,0,0,1,.005,4.44c-.03-.066.075-.178.079-.183h0a.1.1,0,0,1,0-.014c0-.036-.014-.119-.014-.16a.6.6,0,0,1,.184-.371,4.621,4.621,0,0,0,.337-.325c.155-.157.33-.335.461-.444.2-.17.844-.934,1.119-1.261L2.3,1.53l.135-.051a.4.4,0,0,0,.088-.172c0-.064.057-.127.234-.259A.259.259,0,0,1,2.906.986.117.117,0,0,1,3,1.028a.1.1,0,0,1,.021.086l-.007.028c-.1.424-.2.67-.3.733a.36.36,0,0,0-.16.3.125.125,0,0,0,.014.113.262.262,0,0,0,.211.064A1.677,1.677,0,0,0,3.14,2.3a1.715,1.715,0,0,1,.186-.026,1.693,1.693,0,0,0,.2-.033c.084-.042.5-.247.609-.276s1.548-.589,1.608-.613c0,0,.394-.174.451-.189S7.444.883,7.551.883A1.23,1.23,0,0,0,7.912.755L8.178.723l.2-.035s.178-.015.286-.026a.487.487,0,0,0,.2-.115L9.207.534,9.218.528c.213-.12.278-.153.3-.159C9.549.355,9.8.312,10,.278l.222-.039c.092-.014.652-.156.658-.158.028,0,.165-.01.28-.01a.779.779,0,0,1,.153.01h.023A1.812,1.812,0,0,0,11.7,0a5.494,5.494,0,0,1,.549.029.469.469,0,0,1,.324.179c.048.031.283.184.3.241s.117.1.211.142c.04.019.077.037.1.051.08.046.248.174.249.175l.192.21a3.281,3.281,0,0,1,.493.291.783.783,0,0,0,.091.071,2.469,2.469,0,0,1,.8.858c.244.5-.036.72-.168.792-.059.033-.309.254-.311.256l-.252.178-.047.256-.039.007c-.058.01-.178.032-.254.041a1.531,1.531,0,0,0-.285.095,1.123,1.123,0,0,1-.2.129c-.043.02-.372.133-.375.135l-.419.189s-.269.05-.622.146a9.572,9.572,0,0,0-1.407.771c-.2.125-.381.232-.494.295a1.122,1.122,0,0,0-.5.444,3.086,3.086,0,0,0-.372.32.68.68,0,0,1-.435.244c-.077,0-.194.144-.3.27a.926.926,0,0,1-.154.167c-.089.044-.411.245-.425.254l-.23.081-.206.2-.263.045L7.021,7.7a1.475,1.475,0,0,0-.342.161c-.059.07-.342.092-.345.093l-.005.005a2.536,2.536,0,0,1-.365.287.976.976,0,0,1-.247.03,2.82,2.82,0,0,1-.45.146.243.243,0,0,0-.118.045.7.7,0,0,1-.2.088c-.211.06-.457.146-.67.223A7.176,7.176,0,0,1,3.311,8.881ZM10.259.662c-.285,0-.617.02-.819.04a.861.861,0,0,0-.711.646c-.04.146-.031.266.023.306a9.314,9.314,0,0,1,.8.862,2.966,2.966,0,0,1-.015,1.636.766.766,0,0,0,.052.637.385.385,0,0,0,.295.155H9.9a1.405,1.405,0,0,0,.58-.243,1.053,1.053,0,0,1,.147-.081,4.6,4.6,0,0,0,.746-.512,3.917,3.917,0,0,1,.819-.407c.058-.008.148-.122.242-.243s.2-.256.273-.271c.1-.021.081-.2.066-.346a.814.814,0,0,1-.008-.146.418.418,0,0,0-.015-.162.4.4,0,0,1-.016-.15,1.093,1.093,0,0,0-.043-.542l-.013-.019a1.05,1.05,0,0,0-.487-.433,2.121,2.121,0,0,1-.576-.346C11.56,1,11.51.963,11.47.936A2.387,2.387,0,0,0,10.783.7,2.441,2.441,0,0,0,10.259.662Z" transform="translate(9.209 27.678)" fill="#fff"/>
      </g>
      <g id="Group_3" data-name="Group 3" transform="translate(35.386 1.982)">
        <path id="Path_12" data-name="Path 12" d="M80.83,36.586a18.361,18.361,0,0,0,6.561,5.87,6.783,6.783,0,0,0-.984,1.123,20.838,20.838,0,0,1-6.337-6.062v7.53H78.724V37.569a19.739,19.739,0,0,1-6.285,6.009,6.372,6.372,0,0,0-.95-1.106,17.62,17.62,0,0,0,6.492-5.887H71.87V35.307h6.854V32.027c-1.934.242-3.92.432-5.767.553a4.77,4.77,0,0,0-.363-1.192,66.25,66.25,0,0,0,11.931-1.726l1.07,1.122a51.472,51.472,0,0,1-5.525,1.089v3.435h6.941v1.279Z" transform="translate(-71.489 -29.282)" fill="#fff"/>
        <path id="Path_13" data-name="Path 13" d="M91.093,39.475c-1.743.881-3.626,1.8-5.075,2.486l-.5-1.26c.656-.277,1.466-.622,2.348-1.019v-5.4h-2.02V33.07h2.02V29.479h1.19V33.07h1.866v1.209H89.056v4.852l1.762-.8Zm3.212-1.985a10.668,10.668,0,0,1-.743,1.208h7.425a5.093,5.093,0,0,1-.053.519c-.259,3.556-.536,4.9-1.019,5.4a1.4,1.4,0,0,1-.966.433c-.38.016-1.019.016-1.71-.018A2.19,2.19,0,0,0,96.947,44c.637.051,1.208.07,1.467.07.242,0,.4-.018.517-.19.294-.31.553-1.4.777-4.11H98.362a11.99,11.99,0,0,1-3.522,5.405,3.845,3.845,0,0,0-.915-.742,10.151,10.151,0,0,0,3.366-4.663H95.617a13.043,13.043,0,0,1-4.2,4.663,3.4,3.4,0,0,0-.846-.8,11.386,11.386,0,0,0,3.885-3.868H92.718a11.877,11.877,0,0,1-2.245,1.97,5.739,5.739,0,0,0-.881-.8,9.792,9.792,0,0,0,3.419-3.452H90.593V36.4H101.4V37.49Zm5.871-2.055H92.285V29.858h7.891Zm-1.192-4.611H93.459v1.363h5.525Zm0,2.262H93.459v1.382h5.525Z" transform="translate(-68.32 -29.323)" fill="#fff"/>
        <path id="Path_14" data-name="Path 14" d="M114.608,30.014V45.035h-1.261v-.794H101.5v.794h-1.226V30.014Zm-1.261,13.071v-11.9H101.5v11.9Zm-5.852-2.625c-1.8.344-3.625.707-5.041.966l-.173-.966c1.312-.208,3.229-.553,5.162-.9Zm4.282-5.024a13.408,13.408,0,0,1-1.916,4.229c.363.915.829,1.5,1.4,1.589.243.069.414-.674.536-1.78a3.205,3.205,0,0,0,.83.57c-.226,1.882-.812,2.573-1.71,2.229a2.78,2.78,0,0,1-1.8-1.676,10.858,10.858,0,0,1-2.279,1.986,6.758,6.758,0,0,0-.759-.812,9.1,9.1,0,0,0,2.606-2.262,24.663,24.663,0,0,1-.95-5.094h-5.282v-.967h5.2c-.051-.6-.1-1.209-.137-1.83h1.1c.033.622.069,1.226.1,1.83h3.764v.967h-3.678a25.436,25.436,0,0,0,.64,3.972,11.9,11.9,0,0,0,1.277-3.178Zm-4.9.067v3.35h-3.815V35.5Zm-.933.812h-1.985v1.727h1.985Zm5.491-3.056a6.987,6.987,0,0,0-1.847-1.208l.6-.64a7.391,7.391,0,0,1,1.866,1.174Z" transform="translate(-64.986 -29.202)" fill="#fff"/>
        <path id="Path_15" data-name="Path 15" d="M119.087,30.485c-.483,1.4-1.1,3.108-1.657,4.489a5.569,5.569,0,0,1,1.5,3.729,2.471,2.471,0,0,1-.656,2,1.871,1.871,0,0,1-.863.329,6.192,6.192,0,0,1-1.14.016,2.588,2.588,0,0,0-.31-1.086,9.839,9.839,0,0,0,.984.016.859.859,0,0,0,.5-.172,1.479,1.479,0,0,0,.363-1.192,5.235,5.235,0,0,0-1.485-3.5c.483-1.243.966-2.729,1.312-3.885h-2.209V45.091h-1.123V30.07h3.8l.191-.069Zm2.193,4.679a7.467,7.467,0,0,0,.656-.984A11.2,11.2,0,0,0,120.4,32.8a10.139,10.139,0,0,1-1.226,1.45,6.784,6.784,0,0,0-.846-.657,9.746,9.746,0,0,0,2.693-4.212l1,.224c-.121.38-.26.725-.414,1.087h1.812l.19-.034.673.241a12.4,12.4,0,0,1-2.538,5.336h4.989a15.6,15.6,0,0,1-2.435-4.973l.726-.19v-.777h3.245l.208-.051.725.433a13.2,13.2,0,0,1-2.3,3.935,8.154,8.154,0,0,0,2.607,2.659,3.841,3.841,0,0,0-.76.9,8.918,8.918,0,0,1-1.95-1.847v.984h-5.336v-.743a8.916,8.916,0,0,1-1.829,1.554,3.8,3.8,0,0,0-.69-.8,8.809,8.809,0,0,0,2.3-2.123c-.881.156-1.675.277-2.47.414l-.154-.9c.759-.067,1.606-.172,2.641-.293Zm.9,6.061a21.311,21.311,0,0,1-2.4,3.176,7.9,7.9,0,0,0-1.036-.673,15.668,15.668,0,0,0,2.3-2.885Zm2.589-1.244v5.146h-1.209V39.98h-3.781V38.91h8.77v1.07Zm-3.626-8.374c-.086.156-.189.311-.277.45a19.276,19.276,0,0,1,1.52,1.277,12.838,12.838,0,0,0,.673-1.727Zm4.212-.379a13.938,13.938,0,0,0,1.019,2.452,11.781,11.781,0,0,0,1.4-2.452Zm1.64,9.5c.863.916,1.969,2.176,2.522,2.919l-.967.656c-.552-.76-1.64-2.073-2.486-3.022Z" transform="translate(-61.817 -29.346)" fill="#fff"/>
        <path id="Path_16" data-name="Path 16" d="M135.976,33.112a12,12,0,0,1,1.157,2.227h6.06v1.192H134.3c-.086.69-.19,1.38-.327,2.055h7.407s-.036.4-.07.586c-.31,3.419-.639,4.836-1.208,5.388a1.848,1.848,0,0,1-1.347.5,25.5,25.5,0,0,1-2.71-.051,2.855,2.855,0,0,0-.433-1.208c1.122.1,2.262.12,2.659.12.38,0,.587-.017.76-.173.414-.329.69-1.45.95-3.988h-6.3a7.956,7.956,0,0,1-4.955,5.385,3.743,3.743,0,0,0-.829-1.052c3.971-1.486,4.731-4.541,5.042-7.563h-4.593V35.34h7.511a13.3,13.3,0,0,0-.967-1.916Zm-4.592-.794h-3.178V31.162h3.178v-1.8h1.26v1.8h2.728v1.156h-2.728v1.64h-1.26Zm11.965-1.156v1.156h-3.315v1.64h-1.26v-1.64h-2.695V31.162h2.695v-1.8h1.26v1.8Z" transform="translate(-58.746 -29.349)" fill="#fff"/>
        <path id="Path_17" data-name="Path 17" d="M145.63,32.08V36.5c0,2.623-.346,6.285-2.47,8.667a4.13,4.13,0,0,0-.88-.863,9.275,9.275,0,0,0,2.02-5.285c-.691.449-1.4.864-2.073,1.244l-.43-1.14c.673-.311,1.6-.812,2.608-1.329.016-.449.016-.864.016-1.295V30.957h6.061c-.137-.43-.31-.932-.449-1.329l1.243-.276a13.845,13.845,0,0,1,.587,1.6h5.87V32.08Zm-2.5,4.144a33.442,33.442,0,0,0-1.07-3.4l.967-.363a29.967,29.967,0,0,1,1.122,3.3ZM157.2,35.36a11.516,11.516,0,0,1-1.433,1.226,8.11,8.11,0,0,0,2.124,1.174,4.84,4.84,0,0,0-.759.915,8.15,8.15,0,0,1-1.451-.829v3.436h-3.3v2.625c0,.62-.121.9-.606,1.087a7.673,7.673,0,0,1-2.3.173,3.939,3.939,0,0,0-.413-1.053c.845.034,1.57.017,1.778,0,.241,0,.293-.051.293-.243V41.283h-3.211v-3.4a15.412,15.412,0,0,1-1.467.863,2.861,2.861,0,0,0-.8-.847,11.355,11.355,0,0,0,2.159-1.312,13.218,13.218,0,0,0-1.347-1.089l.691-.586a11.356,11.356,0,0,1,1.382,1.035,7.765,7.765,0,0,0,1.122-1.293h-3.262V33.634h3.9a6.722,6.722,0,0,0,.587-1.485l1.209.172a14.007,14.007,0,0,1-.519,1.313h5.94v1.019h-3.695a7.338,7.338,0,0,0,1.261,1.4,13.523,13.523,0,0,0,1.312-1.26Zm-7.8,6.648a21.015,21.015,0,0,1-2.728,2.779c-.226-.19-.691-.569-.984-.76a14.834,14.834,0,0,0,2.589-2.4Zm5.128-4.525h-5.491v1.054h5.491Zm0,1.865h-5.491v1.089h5.491Zm-.329-2.71a9.93,9.93,0,0,1-1.553-1.985h-1.624a9.306,9.306,0,0,1-1.589,1.985Zm.5,4.974c.881.812,2.073,1.933,2.676,2.623l-.966.64a36.945,36.945,0,0,0-2.625-2.729Z" transform="translate(-55.606 -29.352)" fill="#fff"/>
        <path id="Path_18" data-name="Path 18" d="M171.556,41.748h-6.907v1.986c0,.673-.139.966-.674,1.157a10.329,10.329,0,0,1-2.779.172,4.8,4.8,0,0,0-.449-1.086c1.07.033,2.036.033,2.3.033.293-.017.363-.069.363-.31V41.748h-7.2V40.661h7.2v-.743a16.116,16.116,0,0,0,2.745-1.312H159.4V37.64h8.114l.259-.07.776.637a17.312,17.312,0,0,1-3.9,2.143v.31h6.907Zm-13.744-3.142h-1.226V35.481h1.382l-.347-5.128a32.051,32.051,0,0,0,3.333-.847l.587.794a18.914,18.914,0,0,1-2.676.674l.069.846h2.5v.88h-2.451l.067.933h2.452v.88h-2.4l.069.967h9.462c.034-.311.069-.622.1-.967h-2.5v-.88h2.572l.087-.933h-2.556v-.88h2.608l.051-.932h-2.746v-.881h3.989c-.086,1.71-.242,3.936-.38,5.474h1.346v3.125h-1.26v-2.14H157.812Zm7.389-3.263a9.488,9.488,0,0,0-1.243-1,12.175,12.175,0,0,1-1.726,1.122,4.531,4.531,0,0,0-.707-.673,10.4,10.4,0,0,0,1.64-.949,12.538,12.538,0,0,0-1.244-.674l.64-.57c.43.191.879.45,1.329.691a6.134,6.134,0,0,0,.863-.915l.9.293a9.864,9.864,0,0,1-1,1.1,7.761,7.761,0,0,1,1.242.95Zm-.033-3.073a8.55,8.55,0,0,0-1.193-.88,12.07,12.07,0,0,1-1.606,1.036,5.417,5.417,0,0,0-.723-.622,10.42,10.42,0,0,0,1.536-.881,11.949,11.949,0,0,0-1.209-.622l.622-.57c.414.174.845.4,1.295.64a7.394,7.394,0,0,0,.812-.846l.9.242a8.8,8.8,0,0,1-.949,1.053c.466.293.88.57,1.19.812Z" transform="translate(-52.351 -29.317)" fill="#fff"/>
        <path id="Path_19" data-name="Path 19" d="M177.431,34.882l.794.31c-.983,5.215-3.488,8.357-6.717,9.98a4.493,4.493,0,0,0-.863-1.019,10.371,10.371,0,0,0,4.247-3.609,20.432,20.432,0,0,0-2.761-2,14.6,14.6,0,0,1-1.192,1.3,5.463,5.463,0,0,0-1-.863,12.761,12.761,0,0,0,3.575-5.544l.95.243V32.137h-3.971V30.944h3.971V29.408h1.259v1.536h1.97v1.193h-1.97v1.692H174.7c-.139.379-.276.725-.432,1.086h2.935Zm-3.695,1.173c-.293.536-.6,1.07-.933,1.554a22.85,22.85,0,0,1,2.729,1.865,13.568,13.568,0,0,0,1.26-3.419Zm6.681-3.918h-2.071V30.944h2.071V29.408h1.261v1.536h3.866v1.193h-3.866v1.692h-1.261Zm3.558,11.515c.673,0,.793-.327.863-1.9a4.434,4.434,0,0,0,1.174.483c-.173,2.02-.553,2.625-1.952,2.625h-3.108c-1.606,0-2.106-.4-2.106-1.986v-8.22h6.13v4.869c0,.656-.121,1-.6,1.192a6.973,6.973,0,0,1-2.382.208,4.7,4.7,0,0,0-.381-1.141c.881.018,1.606.018,1.83,0,.241-.017.293-.069.293-.259V35.831h-3.625v7.045c0,.656.139.776.984.776Z" transform="translate(-49.249 -29.339)" fill="#fff"/>
      </g>
      <g id="Group_4" data-name="Group 4" transform="translate(34.681 24.263)">
        <path id="Path_20" data-name="Path 20" d="M75.672,54.884l-1.325,3.247a3.1,3.1,0,0,0-.246,1.146q0,.864,1.171,1.029v.156H70.914v-.156a2.442,2.442,0,0,0,.689-.239A4.3,4.3,0,0,0,72.9,58.113L76.514,49.6a2.36,2.36,0,0,0,.227-.872q0-.478-.658-.634v-.157H80.81v.157c-.417.135-.626.349-.626.642a4.038,4.038,0,0,0,.318,1.074l3.422,8.853a4.994,4.994,0,0,0,.628,1.22,1.6,1.6,0,0,0,.792.422v.156H80.5v-.156a1.463,1.463,0,0,0,.792-.458,1.359,1.359,0,0,0,.246-.863,3.182,3.182,0,0,0-.9-2.055A5.769,5.769,0,0,0,77.676,55.2,13.144,13.144,0,0,0,75.672,54.884Zm.309-.954a6.2,6.2,0,0,1,4.325,1.514l-2.373-6.083Z" transform="translate(-70.914 -47.434)" fill="#fff"/>
        <path id="Path_21" data-name="Path 21" d="M86.789,52.594a3.87,3.87,0,0,1,1.069-1.247,4.167,4.167,0,0,1,2.507-.91,7.109,7.109,0,0,1,.782.065l-.463,1.825a2.964,2.964,0,0,0-1.377-.395,2.338,2.338,0,0,0-1.644.651,3.162,3.162,0,0,0-.771,1.991,16.764,16.764,0,0,0-.1,2.01v1.193a6.276,6.276,0,0,0,.063,1.128q.195.8,1.346.843V59.9H83.4V59.75a1.56,1.56,0,0,0,.976-.43,1.164,1.164,0,0,0,.238-.679c.012-.067.02-.354.02-.862V52.87a6.3,6.3,0,0,0-.061-1.129q-.164-.715-1.172-.843v-.147l2.888-.248A4.965,4.965,0,0,1,86.789,52.594Z" transform="translate(-68.094 -46.869)" fill="#fff"/>
        <path id="Path_22" data-name="Path 22" d="M96.1,50.334a6.891,6.891,0,0,1,2.343.394,5.251,5.251,0,0,1,1.85,1.1,4.365,4.365,0,0,1,1.356,3.3,4.414,4.414,0,0,1-1.675,3.614,5.817,5.817,0,0,1-1.906,1,7.621,7.621,0,0,1-2.338.362,7.05,7.05,0,0,1-2.543-.441,4.871,4.871,0,0,1-1.9-1.247A4.549,4.549,0,0,1,90.1,55.233a4.434,4.434,0,0,1,1.584-3.486A6.472,6.472,0,0,1,96.1,50.334Zm-.359.907a3.528,3.528,0,0,0-1.449.3,2.948,2.948,0,0,0-1.109.836,3.918,3.918,0,0,0-.75,2.523,5.225,5.225,0,0,0,.7,2.707,2.993,2.993,0,0,0,2.774,1.559,3.364,3.364,0,0,0,2.075-.679,3.673,3.673,0,0,0,1.336-3.147,4.707,4.707,0,0,0-.739-2.687A3.2,3.2,0,0,0,95.746,51.241Z" transform="translate(-66.579 -46.893)" fill="#fff"/>
        <path id="Path_23" data-name="Path 23" d="M104.319,52.563a10.964,10.964,0,0,1,1.737-1.312,5.6,5.6,0,0,1,2.8-.908,2.444,2.444,0,0,1,1.953.771,3.057,3.057,0,0,1,.546,1.357,15.516,15.516,0,0,1,1.572-1.138,5.921,5.921,0,0,1,3.03-1,2.517,2.517,0,0,1,1.116.256,2.317,2.317,0,0,1,.858.7,2.926,2.926,0,0,1,.482,1.779V57.8a6.159,6.159,0,0,0,.063,1.128q.175.772,1.264.843v.147h-4.685v-.147a1.582,1.582,0,0,0,.945-.43,1.164,1.164,0,0,0,.237-.679q.02-.1.021-.862V53.856a2.687,2.687,0,0,0-.34-1.6,1.543,1.543,0,0,0-1.253-.559,3.252,3.252,0,0,0-1.892.633,3.089,3.089,0,0,0-1.254,1.735,7.024,7.024,0,0,0-.163,1.733v2a6.363,6.363,0,0,0,.06,1.128q.186.782,1.285.843v.147h-4.737v-.147a1.57,1.57,0,0,0,.977-.43,1.172,1.172,0,0,0,.235-.679,8.35,8.35,0,0,0,.021-.862V53.856a2.576,2.576,0,0,0-.359-1.578,1.5,1.5,0,0,0-1.212-.559,3.316,3.316,0,0,0-2.148.843,3.216,3.216,0,0,0-1.162,2.625V57.8a6.277,6.277,0,0,0,.063,1.128q.164.734,1.193.843v.147h-4.666v-.147a1.559,1.559,0,0,0,1-.43,1.164,1.164,0,0,0,.237-.679q.02-.1.021-.862V52.894a6.425,6.425,0,0,0-.061-1.129q-.166-.725-1.193-.843v-.147l2.856-.248a3.554,3.554,0,0,1,.422.955A6.073,6.073,0,0,1,104.319,52.563Z" transform="translate(-64.138 -46.893)" fill="#fff"/>
        <path id="Path_24" data-name="Path 24" d="M124.938,58.2a4.188,4.188,0,0,1-1.315,1.23,6.1,6.1,0,0,1-2.98.679,3.992,3.992,0,0,1-2.558-.707,1.964,1.964,0,0,1-.781-1.588,2.742,2.742,0,0,1,1.428-2.274q1.561-1.055,6.052-1.872c.006-.215.01-.373.01-.477a1.641,1.641,0,0,0-.5-1.357,2.622,2.622,0,0,0-1.665-.433,5.12,5.12,0,0,0-3.175.964,4.46,4.46,0,0,0-1.264,1.643l-.123-.02.327-3.109a.877.877,0,0,0,.617.229,7.9,7.9,0,0,0,1.46-.358,10.2,10.2,0,0,1,3.021-.413,4.346,4.346,0,0,1,2.866.771,1.755,1.755,0,0,1,.607.944,5.571,5.571,0,0,1,.113,1.249v4.045a2.753,2.753,0,0,0,.473,1.9,2.161,2.161,0,0,0,1.038.522v.147h-2.908a3.957,3.957,0,0,1-.536-.807A3.644,3.644,0,0,1,124.938,58.2Zm-.082-3.753a15.043,15.043,0,0,0-2.826.8q-2.313.945-2.313,2.386a1.275,1.275,0,0,0,.679,1.138,2.061,2.061,0,0,0,1.079.266,3.615,3.615,0,0,0,2.251-.753,2.533,2.533,0,0,0,.966-1.477,8.169,8.169,0,0,0,.164-1.825Z" transform="translate(-60.434 -46.891)" fill="#fff"/>
        <path id="Path_25" data-name="Path 25" d="M137.713,47.811l.852,3.779-.174.055A4.71,4.71,0,0,0,137.7,50.5a4.8,4.8,0,0,0-1.037-.862,5.3,5.3,0,0,0-2.94-.881,4.187,4.187,0,0,0-1.828.358,1.36,1.36,0,0,0-.915,1.212,1.014,1.014,0,0,0,.657.872,7.594,7.594,0,0,0,1.3.449l3.462.944a6.389,6.389,0,0,1,2.549,1.174,3.141,3.141,0,0,1,1.089,2.442,3.946,3.946,0,0,1-1.726,3.247,6.039,6.039,0,0,1-1.932.959,8.045,8.045,0,0,1-2.354.343,8.985,8.985,0,0,1-1.664-.156c-.143-.031-.521-.123-1.13-.275a7.606,7.606,0,0,0-1.079-.185,1.105,1.105,0,0,0-.739.358l-1.225-4.76.186-.055a7.786,7.786,0,0,0,.873,1.67,5.454,5.454,0,0,0,2.21,1.789,5.84,5.84,0,0,0,2.444.514,4.8,4.8,0,0,0,3.1-.972,2.2,2.2,0,0,0,.945-1.733,1.918,1.918,0,0,0-1.109-1.679,8.136,8.136,0,0,0-1.818-.669l-3.319-.908q-2.847-.77-2.848-2.78a2.642,2.642,0,0,1,1.634-2.468,6.973,6.973,0,0,1,3.207-.706,13.056,13.056,0,0,1,2.465.311,4.094,4.094,0,0,0,.77.1A1.057,1.057,0,0,0,137.713,47.811Z" transform="translate(-57.976 -47.48)" fill="#fff"/>
        <path id="Path_26" data-name="Path 26" d="M149.6,57.315l-1.089,2.7a1.467,1.467,0,0,0-.463-.092c-.048,0-.235.013-.565.037q-1.326.129-1.86.129a8.163,8.163,0,0,1-2.708-.441,6.154,6.154,0,0,1-2.142-1.228,4.573,4.573,0,0,1-1.531-3.5,4.079,4.079,0,0,1,1.562-3.348,5.287,5.287,0,0,1,3.452-1.147,19.131,19.131,0,0,1,1.932.156,8.145,8.145,0,0,0,.935.065,1.98,1.98,0,0,0,.894-.211l.626,2.9-.132.047a3.822,3.822,0,0,0-3.463-1.991,3.279,3.279,0,0,0-2.436.954,3.687,3.687,0,0,0-1.058,2.7,3.815,3.815,0,0,0,.987,2.65,4.191,4.191,0,0,0,1.453,1.033,4.4,4.4,0,0,0,1.784.38,4.689,4.689,0,0,0,2.579-.743,3.841,3.841,0,0,0,1.1-1.111Z" transform="translate(-55.479 -46.874)" fill="#fff"/>
        <path id="Path_27" data-name="Path 27" d="M151.709,53.133A11.426,11.426,0,0,1,153.67,51.7a5.406,5.406,0,0,1,2.589-.734,2.414,2.414,0,0,1,2.066.935,3.11,3.11,0,0,1,.433,1.845v4.688a6.363,6.363,0,0,0,.06,1.128q.186.772,1.265.843v.147h-4.727v-.147a1.583,1.583,0,0,0,.987-.43,1.173,1.173,0,0,0,.235-.679,8.355,8.355,0,0,0,.021-.862V54.582a3.148,3.148,0,0,0-.267-1.532,1.344,1.344,0,0,0-1.253-.7,3.444,3.444,0,0,0-1.963.669,3.135,3.135,0,0,0-1.193,1.422,4.49,4.49,0,0,0-.215,1.532v2.459a6.362,6.362,0,0,0,.06,1.128q.165.734,1.193.843v.147h-4.6v-.147a1.57,1.57,0,0,0,.935-.43,1.173,1.173,0,0,0,.235-.679,8.358,8.358,0,0,0,.021-.862V50.152a6.316,6.316,0,0,0-.061-1.129q-.186-.78-1.3-.843v-.148l3.516-.5Z" transform="translate(-53.456 -47.527)" fill="#fff"/>
        <path id="Path_28" data-name="Path 28" d="M164.843,50.334a6.891,6.891,0,0,1,2.343.394,5.251,5.251,0,0,1,1.85,1.1,4.362,4.362,0,0,1,1.357,3.3,4.412,4.412,0,0,1-1.676,3.614,5.811,5.811,0,0,1-1.905,1,7.626,7.626,0,0,1-2.338.362,7.056,7.056,0,0,1-2.544-.441,4.871,4.871,0,0,1-1.9-1.247,4.548,4.548,0,0,1-1.19-3.184,4.432,4.432,0,0,1,1.583-3.486A6.474,6.474,0,0,1,164.843,50.334Zm-.359.907a3.518,3.518,0,0,0-1.448.3,2.953,2.953,0,0,0-1.111.836,3.918,3.918,0,0,0-.75,2.523,5.237,5.237,0,0,0,.7,2.707,3,3,0,0,0,2.774,1.559,3.364,3.364,0,0,0,2.075-.679,3.673,3.673,0,0,0,1.336-3.147,4.707,4.707,0,0,0-.739-2.687A3.2,3.2,0,0,0,164.483,51.241Z" transform="translate(-51.05 -46.893)" fill="#fff"/>
        <path id="Path_29" data-name="Path 29" d="M175.611,50.334a6.9,6.9,0,0,1,2.343.394,5.251,5.251,0,0,1,1.85,1.1,4.365,4.365,0,0,1,1.356,3.3,4.414,4.414,0,0,1-1.675,3.614,5.817,5.817,0,0,1-1.906,1,7.621,7.621,0,0,1-2.338.362,7.05,7.05,0,0,1-2.543-.441,4.862,4.862,0,0,1-1.9-1.247,4.549,4.549,0,0,1-1.192-3.184,4.436,4.436,0,0,1,1.583-3.486A6.476,6.476,0,0,1,175.611,50.334Zm-.359.907a3.524,3.524,0,0,0-1.449.3,2.938,2.938,0,0,0-1.109.836,3.918,3.918,0,0,0-.75,2.523,5.225,5.225,0,0,0,.7,2.707,2.993,2.993,0,0,0,2.774,1.559,3.367,3.367,0,0,0,2.075-.679,3.673,3.673,0,0,0,1.336-3.147,4.7,4.7,0,0,0-.74-2.687A3.2,3.2,0,0,0,175.252,51.241Z" transform="translate(-48.618 -46.893)" fill="#fff"/>
        <path id="Path_30" data-name="Path 30" d="M183.463,47.527V58.436a6.321,6.321,0,0,0,.061,1.128q.186.772,1.275.843v.147h-4.7v-.147a1.586,1.586,0,0,0,.946-.43,1.172,1.172,0,0,0,.235-.679,8.358,8.358,0,0,0,.021-.862V50.152a6.316,6.316,0,0,0-.061-1.129c-.124-.526-.558-.807-1.306-.843v-.148Z" transform="translate(-46.285 -47.527)" fill="#fff"/>
      </g>
    </g>
  </g>
</svg>
