<svg xmlns="http://www.w3.org/2000/svg" width="170" height="36.845" viewBox="0 0 170 36.845">
  <g id="logo_white" transform="translate(-42.624 -27.735)">
    <g id="Group_2" data-name="Group 2" transform="translate(42.624 27.735)">
      <g id="Group_1" data-name="Group 1" transform="translate(4.181 1.45)">
        <path id="Exclusion_1" data-name="Exclusion 1" d="M8.34,17.1a1.155,1.155,0,0,1-.282-.052l-.177-.206a.674.674,0,0,1-.187-.125l-.01-.017a.522.522,0,0,0-.308-.267c-.165-.041-.247-.2-.307-.324l-.029-.057a.538.538,0,0,0-.213-.174.976.976,0,0,1-.09-.056.627.627,0,0,1-.143-.348,1.093,1.093,0,0,0-.108-.271c-.014-.03-.027-.056-.035-.074-.031-.078.083-.186.084-.187a1.933,1.933,0,0,1,.19-.221.553.553,0,0,0,.094-.33c0-.017,0-.043,0-.072-.008-.087-.018-.206.017-.227.052-.033.033-.2.032-.2l-.056-.22s.049-.211.155-.772a.463.463,0,0,0-.066-.4.5.5,0,0,0-.358-.15,5.3,5.3,0,0,0-2.751,1.321,4.744,4.744,0,0,0-.381.342l-.009.011a2.554,2.554,0,0,0-.33.478c-.013.083-.095.15-.251.2s-.206.325-.207.328l-.049.348-.112.125-.083.1v.3l-.092.106-.125.177c-.008.038-.052.223-.1.223-.024,0-.051.039-.079.08s-.065.094-.1.1a.183.183,0,0,1-.062.009.411.411,0,0,1-.157-.032.044.044,0,0,0-.027-.008.292.292,0,0,0-.1.028.3.3,0,0,1-.094.03.034.034,0,0,1-.02-.005L1.4,16.6c-.066-.043-.221-.143-.207-.24s-.188-.29-.352-.454c-.047-.047-.089-.09-.122-.125a.538.538,0,0,1-.123-.4.167.167,0,0,1,.059-.123c.093-.063-.006-.413-.048-.562C.562,14.528.5,14.3.559,14.236a2.029,2.029,0,0,1,.478-.363c.081,0,.372-.5.413-.578s.294-.151.427-.184l.037-.009a1,1,0,0,1,.209-.017l.12,0,.112,0c.144,0,.338-.231.34-.233l.005-.006c.254-.281,2.489-2.752,2.819-3.108.066-.071.093-.124.078-.157s-.058-.044-.134-.044a2.722,2.722,0,0,0-.5.083c-.055.012-.1.023-.127.027a3.983,3.983,0,0,0-.663.276l-.118.164-.019,0c-.05.012-.2.047-.344.075a1.769,1.769,0,0,0-.684.237c-.048.076-.339.123-.582.123-.043,0-.082,0-.116,0h-.02a.586.586,0,0,0-.282.09.448.448,0,0,1-.2.071.454.454,0,0,1-.4-.16.445.445,0,0,0-.311-.076H.944c-.062,0-.12,0-.126-.03C.8,10.35.7,10.339.6,10.33l-.045,0c-.1-.016-.3-.126-.3-.19s-.08-.122-.081-.122a1.04,1.04,0,0,1-.16-.094C-.011,9.885,0,9.832.011,9.781a.348.348,0,0,0,.01-.067c0-.062.111-.114.113-.115L.29,9.558a.339.339,0,0,0,.078-.177.79.79,0,0,1,.367-.357,1,1,0,0,0,.232-.169.8.8,0,0,1,.1-.083,1.315,1.315,0,0,0,.221-.27,2.638,2.638,0,0,1,.952-.565A11.894,11.894,0,0,0,3.6,7.267C3.612,7.253,5.1,5.828,5.167,5.75a2.66,2.66,0,0,1,.321-.291,1.482,1.482,0,0,0,.2-.33c.02-.04.038-.075.053-.1a1.349,1.349,0,0,1,.193-.211,1.961,1.961,0,0,0,.185-.194,3.214,3.214,0,0,1,.29-.3c.085-.1.826-1.007.905-1.068a1.919,1.919,0,0,0,.221-.318c.027-.044.05-.082.065-.1a.855.855,0,0,1,.237-.222c.059-.027.113-.142.145-.211l.012-.025c.018-.033.072-.04.114-.04a.5.5,0,0,1,.079.007L8.3,2.282l.079-.138a1.285,1.285,0,0,0,.141-.224,1.213,1.213,0,0,1,.151-.207l.091.022L8.85,1.7c.026-.008.154-.045.225-.062s.095-.081.12-.13a.437.437,0,0,1,.023-.041A.3.3,0,0,1,9.3,1.4a.3.3,0,0,0,.1-.09c.019-.044.094-.049.161-.054a.513.513,0,0,0,.077-.009c.03-.006.042-.044.054-.083s.025-.079.057-.088A.22.22,0,0,0,9.834,1,.192.192,0,0,1,9.9.947c.03-.01.033-.071.037-.13,0-.021,0-.041,0-.058.017-.062.154-.077.16-.078L10.17.525V.354c0-.065.109-.11.11-.11a1,1,0,0,0,.126-.187A.118.118,0,0,1,10.521,0a.375.375,0,0,1,.11.019.666.666,0,0,1,.348.442c0,.064.065.388.066.391v.19a3.259,3.259,0,0,1-.082.347,1.976,1.976,0,0,1-.2.423,2.656,2.656,0,0,0-.114.315.167.167,0,0,1-.167.14.6.6,0,0,0-.074.016c-.11.031-.174.189-.174.191l-.127.28-.143.016L9.9,2.9a.169.169,0,0,1-.083.094c-.06.03-.077.156-.077.157l-.1.2.035.233-.127.13-.08.213a.555.555,0,0,1-.05.23,2.308,2.308,0,0,0-.129.354c0,.089.017.389.017.66a.379.379,0,0,0,.35.391.025.025,0,0,0,.023-.012c.028-.046-.062-.213-.066-.22l.172.015.077-.08.16-.141.023,0c.045,0,.15-.01.182-.01.052,0,.148-.2.174-.287s.205-.142.207-.143h.006c.085,0,.237-.009.3-.009s1.2.328,1.252.342a1,1,0,0,1,.156.239c.049.1.415.167.431.17l.171-.094h.13l.257.027a2.021,2.021,0,0,1,.3.067.175.175,0,0,0,.067.012.462.462,0,0,0,.143-.028h.507l.153-.031.145.015.162-.035h.3l.113-.06h.285l.157-.057.11-.038h.223s.352.014.412.014.336.024.339.024.327.09.39.105a.972.972,0,0,1,.23.122c.007.006.175.148.269.239a.366.366,0,0,0,.239.1l.014.013c.162.15.258.243.285.276a.408.408,0,0,1-.032.334c-.036.047-.15.054-.215.054h-.037s-.236.117-.307.153a.355.355,0,0,0-.095.108.48.48,0,0,1-.1.115.255.255,0,0,1-.138.024,1.525,1.525,0,0,1-.255-.024h-.011c-.075,0-.143.15-.146.156a.6.6,0,0,1-.207.108c-.065,0-.129-.079-.13-.08l-.143-.017L16.225,6.9H16l-.256-.024-.343.083-.225.03a3.249,3.249,0,0,1-.557-.048.564.564,0,0,0-.115-.011.857.857,0,0,0-.3.059l-.351.127-.221.045-.159-.01-.113.089-.188-.029-.2-.034-.165.144-.3.078-.243.058-.041.083-.2.031s-.39.125-.67.234a1.557,1.557,0,0,0-.5.395.866.866,0,0,1-.155.144.456.456,0,0,0-.126.112.506.506,0,0,1-.159.135,1.609,1.609,0,0,0-.343.644,6.568,6.568,0,0,1-.374.714c-.066.118-.123.219-.155.28-.109.2-.678,1.773-.683,1.789s-.093.41-.093.468a.391.391,0,0,1-.14.284.058.058,0,0,0-.032.039c-.021.079.08.228.081.229a1.894,1.894,0,0,0-.049.251.961.961,0,0,1-.043.164,2.26,2.26,0,0,0-.1.447,5.179,5.179,0,0,0,.062.863l0,.008a.7.7,0,0,1,.03.416,2.094,2.094,0,0,0-.056.4,1.157,1.157,0,0,1-.023.189c-.016.049.084.2.11.23a.311.311,0,0,1,.052.249c-.014.045-.029.108-.043.169a1.957,1.957,0,0,1-.053.2.809.809,0,0,0-.034.177.78.78,0,0,1-.062.263C8.439,17.09,8.4,17.1,8.34,17.1Zm-1.3-7.445a.075.075,0,0,0-.026.005c-.029.013-.058.025-.088.036a.668.668,0,0,0-.246.139,1.048,1.048,0,0,0-.095.119,1.122,1.122,0,0,1-.164.194,2.094,2.094,0,0,0-.251.314c-.033.047-.245.286-.269.313-.005.005-.477.445-.542.518s-.287.313-.289.315a.285.285,0,0,0-.093.195.245.245,0,0,0,.113.183c.146.116.222.157.29.157a.348.348,0,0,0,.11-.025l.006,0a1.376,1.376,0,0,1,.324-.067l.126-.074a.033.033,0,0,1,0-.031c.009-.016.039-.036.133-.036a.92.92,0,0,0,.572-.318,1.36,1.36,0,0,0,.237-.52,1.179,1.179,0,0,1,.2-.466c.06-.03.153-.261.157-.271s.037-.187-.016-.264a1.062,1.062,0,0,1-.08-.235C7.148,9.831,7.124,9.658,7.039,9.658ZM5.8,6.851a.089.089,0,0,1,.067.026.134.134,0,0,0,.094.027.607.607,0,0,0,.158-.027L6.36,6.8s.028,0,.061,0a.25.25,0,0,0,.144-.031.349.349,0,0,1,.093-.051c.07-.031.15-.066.15-.126A2.111,2.111,0,0,1,6.9,6.214a.444.444,0,0,1,.08-.2L7,6c.068-.044.228-.146.228-.189A.836.836,0,0,0,7.075,5.4a.559.559,0,0,0-.331-.125.085.085,0,0,0-.049.01l-.5.3-.9.941s-.123.189-.078.289a.109.109,0,0,0,.091.059,2.285,2.285,0,0,0,.266.017c.065,0,.1,0,.1,0A.268.268,0,0,1,5.8,6.851Z" transform="translate(0 0)" fill="#fff"/>
        <path id="Path_4" data-name="Path 4" d="M54.333,38.947s-.1.249.124.261.412.02.49.02a.959.959,0,0,0,.267-.052c.118-.028.13-.061.419.019s.378.032.668.123.681.238.681.238l.237.045.125.094.211.064a1.4,1.4,0,0,1,.236.064c.065.031.256.09.256.09s.223.173.284.206.235.178.3.178.276.091.276.137.272.185.272.185a.5.5,0,0,1,.221.083c.064.06.079.171.193.218s.223.193.3.221.224.233.271.25a1.832,1.832,0,0,1,.239.141l.207.129a.49.49,0,0,0,.193.076c.111.017.111.064.16.079s.267.032.461.063a2.74,2.74,0,0,0,.462.048h.36s.461.094.522.094a4.949,4.949,0,0,1,.526.063,3.606,3.606,0,0,0,.431,0l.267-.032s.224-.047.256-.094-.075-.064.158-.1.251-.125.251-.125a1.105,1.105,0,0,1,.143-.11.246.246,0,0,0,.13-.185c0-.067-.081-.174-.241-.238a1.65,1.65,0,0,0-.538-.126,1.134,1.134,0,0,1-.476-.111,1.193,1.193,0,0,0-.508-.174,2.907,2.907,0,0,1-.54-.118,1.106,1.106,0,0,0-.428-.1,1.258,1.258,0,0,1-.414-.076l-.143-.146-.235-.046a2.551,2.551,0,0,1-.369-.094c-.049-.03-.383-.158-.383-.158s-.219.077-.264,0a2.575,2.575,0,0,0-.562-.253s-.19-.089-.232-.185-.557-.189-.557-.237-.3-.153-.3-.153l-.286-.079-.125-.061-.223-.02-.224-.031-.3-.064-.209-.065a1.141,1.141,0,0,1-.331-.013,1.89,1.89,0,0,0-.207-.1l-.16-.047H56.4a3.623,3.623,0,0,1-.463-.058,2.063,2.063,0,0,0-.478-.048c-.082,0-.415.089-.474.089A1.508,1.508,0,0,0,54.333,38.947Z" transform="translate(-44.429 -26.968)" fill="#fff"/>
      </g>
      <path id="Exclusion_2" data-name="Exclusion 2" d="M20.348,36.812h0l-.461-.153-.354-.038-.3.114-.422-.039a1.486,1.486,0,0,0-.235-.016,2.533,2.533,0,0,0-.283.016h-.3l-.327-.075h-.2l-.225.038-.291-.077-.717.039-.456-.079-.331-.039.065-.308-.552.043-.3.042-.291.069a.908.908,0,0,1-.263-.039.266.266,0,0,0-.066-.005c-.209,0-.783.075-.847.083h-.488c-.1,0-.483-.07-.527-.078h0a1.669,1.669,0,0,0-.587.192s-.39-.037-.488-.037a1.23,1.23,0,0,1-.185-.032,1.877,1.877,0,0,0-.335-.053.233.233,0,0,0-.067.008,3.8,3.8,0,0,0-.392.153l-.261.04-.656-.04L8.888,36.5l-.233-.077-.265.116-.42.117-.135-.193H7.316c-.081.058-.073.087-.069.1s0,.007,0,.009-.025.005-.094.005a4.519,4.519,0,0,1-.489-.04s-.08-.122-.167-.122a.094.094,0,0,0-.032.006.341.341,0,0,1-.126.018,1.355,1.355,0,0,1-.2-.018l-.3.04-.393.037-.524.118a2.115,2.115,0,0,1-.322.038c-.13,0-.413-.036-.425-.038a.436.436,0,0,0-.19-.035,1.174,1.174,0,0,0-.264.035s-.135.038-.23.075a1.99,1.99,0,0,1-.426.039l-.621-.153a1.482,1.482,0,0,0-.392-.193.423.423,0,0,1-.167-.074.466.466,0,0,0-.192-.083.076.076,0,0,0-.032.006.154.154,0,0,1-.061.011.544.544,0,0,1-.188-.052c-.036-.014-.072-.029-.107-.039a5.656,5.656,0,0,1-.752-.767s-.039-.189-.135-.23S.167,34.9.166,34.894l.128-.267a.164.164,0,0,0,.059.017.03.03,0,0,0,.029-.014C.4,34.594.359,34.5.259,34.358a2.646,2.646,0,0,1-.192-1.267,1.879,1.879,0,0,0,0-.457l-.035-.349V31.94l.1-.23-.1-.456.133-.233.128-.31a2.305,2.305,0,0,1-.035-.61L.328,29.3l-.069-.345-.027-.308L.2,28.34l-.1-.309L0,27.724a2.356,2.356,0,0,0,.067-.575.647.647,0,0,1-.035-.3,1.235,1.235,0,0,1,.133-.271,1.74,1.74,0,0,0,.294-.538l.064-.386-.029-.493.066-.311-.1-.5-.035-.423-.03-.343.03-.267.2-.882.035-.269.06-.808a2.686,2.686,0,0,1,0-.536V20.63l-.06-.8a1.23,1.23,0,0,0,.354-.5l.171-.959,0-.009c-.046-.181-.08-.322-.1-.409a1.793,1.793,0,0,1,.031-.5l.131-.734c-.019-.014-.062-.06-.062-.186v-.31c-.069-.19-.362-1.143-.365-1.152,0-.217-.026-.519-.027-.532-.019-.06-.078-.251-.106-.349a.744.744,0,0,1-.014-.092.216.216,0,0,0-.08-.175.77.77,0,0,1-.165-.308c0-.148.069-1.137.069-1.147L.36,12.044l.035-.349.03-.848a2.116,2.116,0,0,0,.069-.573L.56,9.968l.029-.231-.13-.609L.425,8.82a1.03,1.03,0,0,1,0-.459l.2-.08a.227.227,0,0,1-.013-.031C.59,8.2.549,8.1.523,8.011.494,7.9.46,7.523.459,7.519l.064-.271L.394,6.476.36,6.212.394,5.9l.1-.226.029-.269-.1-.5a2.873,2.873,0,0,1-.1-.576l-.1-.267v-.5l.062-.308.1-.379.129-.386L.716,1.92h.365l.291-.42.815-.461L2.515.766,2.907.656,3.2.574,3.527.423,3.82.386l.427.038.848.151.819.118.458-.08h.452l.264.115.23.039L7.511.8l.23-.078L8.325.8l.262.158.423.076h.362A1.908,1.908,0,0,1,9.765.921L10.058.8l.392.116.912-.04.331.04L12.211.8l.263-.078L12.8.766l.682-.074h.554l.393.035.261-.035.2-.08h.818l.221.044L16.46.574l.746-.151.3-.038h.387a.3.3,0,0,0,.161.031,1.792,1.792,0,0,0,.292-.031l.2-.042.231-.11a.289.289,0,0,1,.106-.019.7.7,0,0,1,.348.129l.657-.11.461.034a.7.7,0,0,0,.322-.076L20.9.04,21.1,0h.261l.324.078.786.113L22.7.266l.392.077h.323L23.8.305,24.032.5h.426l.225.043.558.071c.324.191.586.35.588.351l.26.149a.329.329,0,0,0,.261.271l.1.264s.1.275.132.386.355.8.358.806c.033.187.066.529.066.533l-.131.235.1.272-.034.567-.1.305-.028.964-.032.339-.063.351.063.384-.063.42v.31l-.067.457-.032.647v.584l-.035.338-.066.123-.031.3.031.269.133.271-.067.23-.1.191v.538a.622.622,0,0,0,.132.35l.032.379c-.032.113-.066.333-.067.342l-.066.269c.009.053.019.1.027.144a1.529,1.529,0,0,1,.039.285.308.308,0,0,0,.038.13.226.226,0,0,1,.029.174,3.684,3.684,0,0,0-.067.381l-.066.23a1.737,1.737,0,0,1,.066.345v.917c0,.117-.031.46-.031.464l.135.344v.347l.03.306-.067.2.13.226s-.094.194-.064.274a.051.051,0,0,0,.028.031.381.381,0,0,0,.089.022c.073.012.142.023.142.133,0,.152-.033.642-.034.647l-.065.314s.065.338.1.459.1.448.1.462l-.031.344v.269a.8.8,0,0,1,.165.495l.1.3.031.349a2.507,2.507,0,0,1,.1.539l-.031.3-.067.231V22.7l-.1.227.165.343.094.308-.063.191-.066.383.035.308-.067.5s-.031.307-.031.42a.469.469,0,0,0,.041.162.707.707,0,0,1,.058.262v.422l.031.305.063.763-.094.271-.1.27.064.379.035.348s.031.237.031.345-.031.383-.031.386-.1.188-.035.305a.415.415,0,0,1,.066.38A6.57,6.57,0,0,0,27.4,31.1a.331.331,0,0,1,.064.193v.46s-.045.162,0,.215a.041.041,0,0,0,.035.017c.1,0,.2.191.2.193l-.131.266-.066.384-.063.305v.193l.032.305-.064.388a1.733,1.733,0,0,0-.1.38v.383l-.03.23-.132.23L27.1,35.5l-.168.311-.2.271-.193.264c-.226.188-.425.344-.427.345a.905.905,0,0,1-.251.051.192.192,0,0,1-.074-.012A1.718,1.718,0,0,0,25.4,36.7a.811.811,0,0,0-.389-.2.179.179,0,0,0-.039,0c-.152.037-.278.075-.292.079l-1.534.195a1.481,1.481,0,0,0-.585-.156,1.2,1.2,0,0,0-.3-.079,1.1,1.1,0,0,0-.326.04,2.086,2.086,0,0,1-.456.039h-.1a.712.712,0,0,0-.328.075l-.714.116Zm-1.205-1h0l.319.04h.507l.226.038.442-.038.414-.158s.285.02.53.02a1.519,1.519,0,0,0,.3-.02l.317-.069.19-.158a2.311,2.311,0,0,0,.417-.042.768.768,0,0,1,.1-.018,1.349,1.349,0,0,0,.154-.018l.19-.035a1.279,1.279,0,0,1,.223-.02.82.82,0,0,1,.191.02l.188-.119.481.039a2.177,2.177,0,0,1,.313-.19h.444l.165-.344.094-.235.319-.763c.007-.014.16-.346.223-.462s.186-.344.187-.347v-.382l-.06-.461-.031-.222.19-.193.1-.273-.034-.231.034-.308-.034-.231a.787.787,0,0,1-.22-.26.686.686,0,0,1-.016-.177.686.686,0,0,0-.016-.177A.541.541,0,0,1,26,29.787a.832.832,0,0,0,.02-.151V29.3l.19-.653.064-.381.065-.305.031-.421-.1-.237a1.119,1.119,0,0,0-.223-.5l-.223-.185.129-.271L26.081,26l.069-.421.029-.417-.065-.234-.034-.537a.577.577,0,0,0-.311-.231c-.037-.008-.057-.02-.059-.037-.006-.058.212-.153.214-.154l.156-.766s.258-.388.13-.539a.506.506,0,0,1-.061-.374.548.548,0,0,0,0-.161,2.572,2.572,0,0,1-.036-.389,3.332,3.332,0,0,0-.033-.38,6.8,6.8,0,0,1,.069-.915l-.355-.308-.125-.655a1.686,1.686,0,0,0,.065-.5,1.553,1.553,0,0,1,.089-.52l0-.015c.03-.113-.156-.38-.158-.382a3.341,3.341,0,0,1-.253-.422.609.609,0,0,1,0-.422c.034-.113.13-.684.131-.69l.158-1.04.219-.615-.066-.762-.123-.691-.1-.691-.027-.344.126-.5c-.006,0-.285-.037-.384-.037a.019.019,0,0,1-.015-.008c-.058-.074.08-.644.081-.649a9.471,9.471,0,0,0-.13-.956l.226-.46-.257-.38-.13-.73.1-.88.092-.35.1-1.148-.13-1.337V4.22l.13-.308s-.034-.572-.066-.691-.157-.46-.158-.464-.345-.339-.51-.5a4.592,4.592,0,0,0-.543-.384l-.54-.035-.382.079-.6-.044-.731-.152-.165.2-.7.113-.6-.229s-.354-.158-.448-.191a.209.209,0,0,0-.082-.013,1.193,1.193,0,0,0-.272.046l-.828.037h-.282l-.636.157H17.2l-.733.116-.1-.273h-.353l-.858-.037-.413-.264-.387.264-.634-.116h-.637l-.506.116-.387.077-.734.152H10.225l-.51.157-.261.039-.821.037L8.6,1.876l-.826-.109c-.124.009-.522.038-.606.038s-.187.183-.191.191l-.827.153-.575-.115-.479.115L4.744,1.8l-.317.191H3.918l-.448.038-.417.076a1.288,1.288,0,0,0-.283.577c0,.228-.406.612-.41.616l-.195.188-.1.266a3.539,3.539,0,0,1-.028.464l-.062.225.09.5-.125.3-.093.192v.309l.093.263-.032.235A3.329,3.329,0,0,1,2,6.789l.063,1.073.038.46-.038.226v.343l-.028.5L2,9.855l-.094.309.032.188.035.308v.349l.09.378-.073.155-.052.345-.058.578.026.3.129.31v.384l.028.265.1.422.063.233a2.2,2.2,0,0,1-.063.535c-.007.032-.164.775-.224.919l-.058.234-.035.269v.377l-.036.237.07.342.026.232-.026.229.026.343-.026.5.093,1.3L2,20.36l.063.233a5.443,5.443,0,0,1-.028.574c0,.016-.062.39-.062.5l-.035.387a2.7,2.7,0,0,1-.032.42l.032.271L2,23.047a.887.887,0,0,1-.155.417,1.427,1.427,0,0,0,0,.427.661.661,0,0,1-.067.458v.886a.752.752,0,0,0,.128.454l.129.846a.536.536,0,0,0,.128.345.416.416,0,0,1-.1.345l-.218.145-.036.315v.305l-.061.386-.034.188a2.993,2.993,0,0,0,.034.46c.007.034.012.069.017.1a.784.784,0,0,0,.114.354l-.165,1-.094.264a.6.6,0,0,0,.036.315.688.688,0,0,1-.01.39c-.009.046-.018.095-.025.145a3.041,3.041,0,0,0,0,.538,1.365,1.365,0,0,0,.094.266l-.058.344.026.234-.092.227.348.195c0,.005.354.653.449.8l.187.191s.259.307.259.46l.317.232.348.19.066.151a.865.865,0,0,0,.292.088.132.132,0,0,0,.059-.012,2.691,2.691,0,0,1,.477-.035l.317.084a.479.479,0,0,1,.254.074.1.1,0,0,0,.06.019.279.279,0,0,0,.165-.093.792.792,0,0,1,.285-.058.545.545,0,0,1,.1.008,1.331,1.331,0,0,0,.382-.077,1.116,1.116,0,0,1,.416-.151l.509-.19.053.039c.084.063.256.193.4.3h0a1.922,1.922,0,0,0,.209.011.917.917,0,0,0,.328-.047,2.06,2.06,0,0,1,.244-.015,1.108,1.108,0,0,1,.2.015l.291-.08a1.149,1.149,0,0,0,.195.02.307.307,0,0,0,.126-.02.087.087,0,0,1,.031,0,.515.515,0,0,1,.383.321l.251.115.289.032.286.08h.417a4.275,4.275,0,0,1,.5-.051.3.3,0,0,1,.1.011.083.083,0,0,0,.033.005,1.468,1.468,0,0,0,.417-.158h.444l.354.035a.7.7,0,0,1,.084-.005c.083,0,.19.014.229.083h.606a.775.775,0,0,1,.232-.047.238.238,0,0,1,.088.014,1.1,1.1,0,0,0,.259.032l.315.08.479-.08.409.04a2.9,2.9,0,0,1,.5-.083.193.193,0,0,1,.074.01.727.727,0,0,0,.168.013,2.212,2.212,0,0,0,.562-.059,1.828,1.828,0,0,1,.543.078l.318.08.448-.04a5.272,5.272,0,0,1,.668.04Z" fill="#fff"/>
      <path id="Path_7" data-name="Path 7" d="M45.748,49.708c-.032.1-.1.237-.052.329s.224.239.212.31c-.017.087.124.148.124.148l.141.113.031.168s.017.1.028.177a.622.622,0,0,0,.13.2.45.45,0,0,0,.19.143c.075.03.188.047.237.113s.158.045.254.06a.492.492,0,0,1,.286.081.683.683,0,0,0,.391.126c.077-.018.316.088.331.158s.188.251.188.318a2.111,2.111,0,0,0,.034.239s-.221.387-.256.481-.059.461-.059.461a1.083,1.083,0,0,1,.014.268c-.014.061-.111.32-.111.32l-.047.312-.031.14s.014.176-.032.235-.172.315-.172.315l-.124.319s-.116.1-.066.188.066.3.16.4.172.3.313.353.315.1.331.2.286.227.286.307a.192.192,0,0,0,.189.2.449.449,0,0,0,.362-.348,4.216,4.216,0,0,1,.141-.711,2.568,2.568,0,0,1,.3-.661,1.2,1.2,0,0,0,.2-.557c.02-.059.063-.278.063-.278l.16-.289s.177-.188.254-.251l.19-.141a1.363,1.363,0,0,0,.158-.237,2.254,2.254,0,0,0,.111-.315,5.46,5.46,0,0,0,.061-.724,2.248,2.248,0,0,1,.1-.836c.094-.193.282-.587.35-.693a3.052,3.052,0,0,0,.136-.442l.174-.1s.049-.143.084-.224.167-.173.167-.173.306-.631.368-.741a2.489,2.489,0,0,0,.251-.556c0-.09.236-.626-.35,0s-.378.476-.427.6-.125.365-.214.4-.113.221-.178.273-.14.271-.2.343-.189.348-.285.387a.61.61,0,0,0-.27.187c-.01.047-.343.314-.379.077a1.215,1.215,0,0,1,.052-.688c.091-.132.014-.369.091-.478a1.515,1.515,0,0,0,.14-.427l-.076-.19s-.124-.172-.249-.12a3.839,3.839,0,0,0-.4.185s-.108.078-.108.172a.3.3,0,0,1-.143.254.257.257,0,0,0-.126.111s-.106.158-.141.22-.046.273-.189.283a1.758,1.758,0,0,1-.883.018,4.864,4.864,0,0,1-.933-.4,1.382,1.382,0,0,0-.318-.077.371.371,0,0,0-.221-.081.516.516,0,0,1-.2-.013l-.254-.078S45.8,49.583,45.748,49.708Z" transform="translate(-42.003 -23.552)" fill="#fff"/>
      <path id="Exclusion_3" data-name="Exclusion 3" d="M.137,9.715c-.075,0-.119-.023-.132-.068-.061-.208.542-.814.62-.863l.092-.062A2.625,2.625,0,0,0,1.3,8.257a.424.424,0,0,1,.188-.191L1.5,8.054c.212-.231.387-.419.494-.532a2.39,2.39,0,0,0,.344-.609,1.844,1.844,0,0,1,.2-.378A.745.745,0,0,0,2.7,6.221a1.242,1.242,0,0,0,.071-.264,1.276,1.276,0,0,0-.009-.17.554.554,0,0,1,.006-.247A.083.083,0,0,1,2.815,5.5c.013-.005.024-.01.029-.022s0-.067-.045-.155a.69.69,0,0,1,.017-.486c.169-.086.054-.493-.058-.73a3.693,3.693,0,0,1-.16-.951A2.874,2.874,0,0,1,4.564.057,2.437,2.437,0,0,1,5.07,0,1.573,1.573,0,0,1,6.547.939a1.461,1.461,0,0,1,.19.839,3.087,3.087,0,0,1-.235.277s.022.237.04.3-.16.141-.167.144a.372.372,0,0,0,.051.26.068.068,0,0,1,.02.052c0,.053-.068.109-.125.159-.021.018-.041.036-.057.052a.577.577,0,0,1-.23.16c-.067.022-.195.267-.271.413-.026.05-.047.089-.058.107-.037.075-.085.227-.036.257A.762.762,0,0,0,5.9,4a.227.227,0,0,0,.137-.035.053.053,0,0,1,.034-.012c.09,0,.229.194.274.258l.008.011a.512.512,0,0,0,.113.09.525.525,0,0,1,.186.171.383.383,0,0,1-.028.258.257.257,0,0,1-.108.144.854.854,0,0,0-.262.452c-.015.112-.186.18-.187.181s-.06,0-.123,0c-.038,0-.07,0-.1,0a.915.915,0,0,0-.4.226,1.137,1.137,0,0,1-.593.239c-.041,0-.055.061-.07.121s-.036.146-.1.156c-.236.043-.635.492-.779.761,0,.007-.483.7-.436.952a.1.1,0,0,0,.042.07.514.514,0,0,0,.3.106A.873.873,0,0,0,4,8.117l.025-.006c.159-.045,1.271-.4,1.282-.405.2-.059.375-.113.5-.152.1-.03.164-.051.205-.062a3.3,3.3,0,0,0,.821-.275,1.274,1.274,0,0,1,.451-.108,1.027,1.027,0,0,0,.383-.091,4.676,4.676,0,0,1,.592-.3,1.292,1.292,0,0,0,.464-.087A1.357,1.357,0,0,1,9.172,6.5c.087-.016.186-.033.3-.058l.351-.074.35-.133.226.041.263-.138.279-.057a2.3,2.3,0,0,0,.345.028,1.294,1.294,0,0,0,.177-.011,1.937,1.937,0,0,1,.289-.018c.125,0,.254.007.356.012h.006l.1.005.115.012c.1.011.178.02.386.032l.046,0a7.186,7.186,0,0,1,1.3.187.327.327,0,0,1,.219.232.186.186,0,0,1-.09.174,1.444,1.444,0,0,1-.575.074c-.21,0-.4-.013-.4-.013a2.092,2.092,0,0,0-.36.025.453.453,0,0,1-.108.009c-.087,0-.19-.009-.191-.009-.053.007-.315.043-.421.043h-.027c-.085,0-.385,0-.388,0l-.447.045a2.546,2.546,0,0,1-.308.023c-.027,0-.053,0-.077,0h-.021a1.346,1.346,0,0,0-.416.121h-.019c-.245,0-.388,0-.425-.008a3.518,3.518,0,0,0-.392.073s-.277.086-.389.1a.7.7,0,0,0-.233.086l-.4-.006c-.027,0-.26.033-.432.044a.263.263,0,0,0-.236.165l-.3.077s-.3.083-.416.1-.35.019-.352.019l-.278.033-.5.092-.336.031-.293.143c-.076.009-.264.031-.469.047a3.124,3.124,0,0,0-.747.353,2.107,2.107,0,0,1-.427.213H3.78a5.013,5.013,0,0,0-.7.111L2.8,8.781c-.272.051-.58.108-.739.155a2.926,2.926,0,0,0-.853.428c-.225.185-.225.185-.948.336A.639.639,0,0,1,.137,9.715ZM5.061,2.479a.393.393,0,0,0-.319.218l-.079.122a1.874,1.874,0,0,0-.289.549,1.729,1.729,0,0,0-.015.251.7.7,0,0,1-.025.24.28.28,0,0,0,.008.206.174.174,0,0,0,.1.109.111.111,0,0,0,.033,0,.81.81,0,0,0,.309-.127c.032-.018.059-.034.079-.043.043-.019.043-.032.042-.064a.389.389,0,0,1,.049-.2,3.483,3.483,0,0,0,.18-.43l0-.012c.017-.044.033-.078.046-.108a.572.572,0,0,0,.06-.2c0-.019.005-.044.009-.071.018-.125.046-.315-.028-.4a.136.136,0,0,0-.108-.045l-.031,0Z" transform="translate(9.897 18.398)" fill="#fff"/>
      <path id="Exclusion_4" data-name="Exclusion 4" d="M3.25,8.717H2.686a.646.646,0,0,1-.325-.086,1.4,1.4,0,0,0-.393-.109c-.006,0-.553-.174-.643-.191a2.279,2.279,0,0,1-.313-.086L.942,8.224C.87,8.2.622,8.07.622,8.017c0-.034-.193-.076-.3-.094a1.232,1.232,0,0,1-.212-.335A.838.838,0,0,1,.005,7.21a.387.387,0,0,1,.195-.2.585.585,0,0,1,.172-.02c.053,0,.1,0,.1,0l.257.03.291.031.29-.015.2.062h.172l.047-.158L1.9,6.851h.112a.347.347,0,0,1,.105-.177.489.489,0,0,1,.226-.054l.08-.009c.124-.018.54-.048.613-.048a1.373,1.373,0,0,0,.425-.142.306.306,0,0,1,.163-.032l.073,0h.061a.183.183,0,0,0,.127-.081.232.232,0,0,1,.07-.06.583.583,0,0,1,.2-.021c.076,0,.142,0,.144,0h.2l.186-.079a1.128,1.128,0,0,1,.195-.114c.067-.012.312-.03.37-.03a1.2,1.2,0,0,0,.18-.026,1.025,1.025,0,0,0,.141-.151.474.474,0,0,1,.275-.075c.055,0,.11-.068.163-.135a.586.586,0,0,1,.112-.117.252.252,0,0,1,.158-.048l.049,0,.038,0c.038,0,.065-.048.092-.094a.376.376,0,0,1,.047-.07l.021-.024a.211.211,0,0,1,.161-.1c.086,0,.106-.144.121-.25l0-.017a1.324,1.324,0,0,1,.1-.272c.072-.168.18-.423.341-.852a.926.926,0,0,0-.1-.89,1.046,1.046,0,0,0-.69-.466A2.386,2.386,0,0,1,6.1,2.41L5.99,2.4q-.04,0-.078,0a.63.63,0,0,0-.32.083.745.745,0,0,0-.163.125L5.41,2.62c-.048.043-.235.044-.241.044s0,0,0,.005a.477.477,0,0,1-.159.219.4.4,0,0,0-.2.127,1.356,1.356,0,0,1-.155.164c-.073.072-.176.174-.322.323a1.666,1.666,0,0,0-.12,1.419,2.1,2.1,0,0,0,.369.412,1.953,1.953,0,0,1-1-.945A1,1,0,0,1,3.616,3.6a2.4,2.4,0,0,0,.263-.757.108.108,0,0,0-.124-.13.732.732,0,0,0-.14.019l-.009,0a.65.65,0,0,1-.116.018.093.093,0,0,1-.028,0,.05.05,0,0,0-.017,0,.8.8,0,0,0-.286.162.952.952,0,0,1-.195.122,1.116,1.116,0,0,0-.237.167.815.815,0,0,1-.248.168l-.01,0a.031.031,0,0,0-.016,0c-.066,0-.193.155-.2.161l-.073.174-.265.16a1.03,1.03,0,0,1-.217.136c-.058.016-.072.23-.073.239l-.2.014a.817.817,0,0,1-.226.143.216.216,0,0,0-.063.017A.386.386,0,0,1,1,4.434a.217.217,0,0,1-.044,0H.951a.045.045,0,0,0-.034.013c-.025.026-.025.086-.025.156a.629.629,0,0,1-.017.183C.843,4.891.757,4.9.648,4.9c-.03,0-.062,0-.1.008l-.043,0C.4,4.912.386,4.871.358,4.8a.4.4,0,0,0-.127-.19,1.354,1.354,0,0,1-.226-.249c-.03-.065.074-.175.078-.18h0a.1.1,0,0,1,0-.014c0-.035-.014-.117-.014-.157a.588.588,0,0,1,.181-.364,4.536,4.536,0,0,0,.331-.319C.73,3.17.9,3,1.031,2.888c.2-.166.829-.917,1.1-1.238L2.255,1.5l.132-.05a.4.4,0,0,0,.087-.169c0-.063.056-.125.23-.254A.255.255,0,0,1,2.852.968a.115.115,0,0,1,.092.041.1.1,0,0,1,.02.084l-.006.028c-.1.416-.2.658-.3.719a.354.354,0,0,0-.157.291.123.123,0,0,0,.014.111.257.257,0,0,0,.207.063,1.646,1.646,0,0,0,.357-.052,1.683,1.683,0,0,1,.183-.026,1.661,1.661,0,0,0,.2-.032c.083-.041.491-.242.6-.271s1.519-.579,1.579-.6c0,0,.387-.17.442-.185S7.307.866,7.412.866A1.207,1.207,0,0,0,7.766.741L8.027.709,8.222.675S8.4.659,8.5.649A.478.478,0,0,0,8.7.536L9.037.524,9.048.518c.209-.117.273-.15.29-.156.034-.013.278-.055.473-.088l.217-.038c.091-.014.64-.153.645-.155.027,0,.162-.01.275-.01a.764.764,0,0,1,.15.01h.023A1.779,1.779,0,0,0,11.484,0a5.392,5.392,0,0,1,.539.028A.46.46,0,0,1,12.341.2c.047.03.278.18.291.236s.115.095.207.139c.039.019.076.036.1.051.078.045.243.171.245.172l.188.206a3.22,3.22,0,0,1,.484.286.769.769,0,0,0,.089.07,2.424,2.424,0,0,1,.78.842c.24.49-.035.707-.165.778-.058.032-.3.249-.305.251l-.247.174-.047.251-.038.007c-.057.01-.175.031-.249.04A1.5,1.5,0,0,0,13.4,3.8a1.1,1.1,0,0,1-.2.127c-.042.019-.365.131-.368.132l-.412.185s-.264.049-.611.143a9.4,9.4,0,0,0-1.381.757c-.2.122-.374.228-.485.289a1.1,1.1,0,0,0-.494.435,3.029,3.029,0,0,0-.365.314.668.668,0,0,1-.427.239c-.076,0-.191.141-.292.265a.909.909,0,0,1-.152.164c-.087.043-.4.241-.417.249l-.225.079-.2.192-.258.044-.217.145a1.448,1.448,0,0,0-.336.158c-.058.069-.336.091-.339.091l-.005,0a2.489,2.489,0,0,1-.359.282.958.958,0,0,1-.243.029,2.768,2.768,0,0,1-.442.143.238.238,0,0,0-.115.044.688.688,0,0,1-.192.087c-.207.058-.448.143-.657.219A7.043,7.043,0,0,1,3.25,8.717ZM10.07.649c-.28,0-.606.02-.8.039a.845.845,0,0,0-.7.634c-.039.143-.03.261.023.3a9.142,9.142,0,0,1,.782.846,2.911,2.911,0,0,1-.015,1.606.752.752,0,0,0,.051.626.378.378,0,0,0,.289.152h.022a1.379,1.379,0,0,0,.569-.239,1.034,1.034,0,0,1,.145-.079,4.515,4.515,0,0,0,.732-.5,3.844,3.844,0,0,1,.8-.4c.057-.007.145-.119.238-.238s.2-.252.268-.266c.1-.021.079-.2.065-.34a.8.8,0,0,1-.007-.143.41.41,0,0,0-.015-.159A.393.393,0,0,1,12.5,2.34a1.073,1.073,0,0,0-.042-.532l-.013-.019a1.031,1.031,0,0,0-.478-.425,2.082,2.082,0,0,1-.565-.34c-.057-.043-.106-.08-.145-.106a2.343,2.343,0,0,0-.675-.23A2.4,2.4,0,0,0,10.07.649Z" transform="translate(9.039 27.167)" fill="#fff"/>
    </g>
    <g id="Group_3" data-name="Group 3" transform="translate(77.357 29.681)">
      <path id="Path_12" data-name="Path 12" d="M80.658,36.458a18.022,18.022,0,0,0,6.44,5.761,6.659,6.659,0,0,0-.966,1.1,20.454,20.454,0,0,1-6.22-5.95v7.391H78.591V37.423a19.375,19.375,0,0,1-6.169,5.9,6.255,6.255,0,0,0-.933-1.085,17.3,17.3,0,0,0,6.373-5.778h-6V35.2h6.728v-3.22c-1.9.237-3.848.424-5.66.543a4.68,4.68,0,0,0-.356-1.17,65.028,65.028,0,0,0,11.71-1.694l1.05,1.1a50.524,50.524,0,0,1-5.423,1.069V35.2h6.813v1.255Z" transform="translate(-71.489 -29.289)" fill="#fff"/>
      <path id="Path_13" data-name="Path 13" d="M90.991,39.291c-1.711.865-3.559,1.763-4.982,2.44l-.491-1.237c.644-.272,1.439-.61,2.3-1v-5.3H85.839V33h1.983V29.479h1.168V33h1.831V34.19H88.991v4.763l1.729-.781Zm3.153-1.948a10.472,10.472,0,0,1-.729,1.185H100.7a4.992,4.992,0,0,1-.052.509c-.254,3.491-.526,4.813-1,5.3a1.374,1.374,0,0,1-.948.425c-.373.016-1,.016-1.679-.018a2.15,2.15,0,0,0-.288-1.017c.626.051,1.185.069,1.44.069.237,0,.389-.018.508-.187.289-.3.543-1.373.763-4.035H98.125a11.769,11.769,0,0,1-3.457,5.305,3.774,3.774,0,0,0-.9-.728,9.964,9.964,0,0,0,3.3-4.577H95.431a12.8,12.8,0,0,1-4.118,4.577,3.334,3.334,0,0,0-.83-.781,11.175,11.175,0,0,0,3.813-3.8H92.585a11.658,11.658,0,0,1-2.2,1.934,5.633,5.633,0,0,0-.865-.781,9.611,9.611,0,0,0,3.356-3.388H90.5V36.274h10.609v1.069Zm5.763-2.017H92.16V29.851h7.746ZM98.736,30.8H93.313v1.338h5.423Zm0,2.22H93.313v1.356h5.423Z" transform="translate(-68.637 -29.326)" fill="#fff"/>
      <path id="Path_14" data-name="Path 14" d="M114.343,30.014V44.758h-1.238v-.78H101.48v.78h-1.2V30.014Zm-1.238,12.829V31.167H101.48V42.843Zm-5.744-2.576c-1.763.338-3.558.694-4.948.948l-.17-.948c1.288-.2,3.169-.543,5.067-.882Zm4.2-4.931a13.16,13.16,0,0,1-1.881,4.151c.356.9.813,1.474,1.372,1.559.238.067.407-.662.526-1.747a3.146,3.146,0,0,0,.815.56c-.221,1.847-.8,2.526-1.679,2.188a2.729,2.729,0,0,1-1.763-1.645,10.658,10.658,0,0,1-2.237,1.949,6.634,6.634,0,0,0-.745-.8,8.933,8.933,0,0,0,2.558-2.22,24.206,24.206,0,0,1-.933-5h-5.185v-.949h5.1c-.051-.593-.1-1.186-.135-1.8h1.084c.033.61.067,1.2.1,1.8h3.694v.949h-3.61a24.961,24.961,0,0,0,.628,3.9,11.678,11.678,0,0,0,1.254-3.119Zm-4.813.066v3.289h-3.745V35.4Zm-.916.8h-1.948v1.7h1.948Zm5.39-3a6.858,6.858,0,0,0-1.813-1.185l.593-.628a7.255,7.255,0,0,1,1.831,1.153Z" transform="translate(-65.637 -29.217)" fill="#fff"/>
      <path id="Path_15" data-name="Path 15" d="M119,30.464c-.474,1.373-1.084,3.05-1.627,4.406a5.466,5.466,0,0,1,1.474,3.66A2.426,2.426,0,0,1,118.2,40.5a1.836,1.836,0,0,1-.847.322,6.077,6.077,0,0,1-1.119.016,2.54,2.54,0,0,0-.3-1.066,9.657,9.657,0,0,0,.966.016.843.843,0,0,0,.491-.168,1.451,1.451,0,0,0,.356-1.17,5.139,5.139,0,0,0-1.457-3.44c.474-1.22.948-2.679,1.288-3.813h-2.168V44.8h-1.1V30.057h3.728l.188-.067Zm2.153,4.593a7.329,7.329,0,0,0,.644-.966,11,11,0,0,0-1.509-1.355,9.954,9.954,0,0,1-1.2,1.423,6.658,6.658,0,0,0-.83-.645A9.566,9.566,0,0,0,120.9,29.38l.984.22c-.119.373-.255.711-.407,1.067h1.778l.187-.034.661.237a12.168,12.168,0,0,1-2.491,5.238h4.9a15.31,15.31,0,0,1-2.39-4.882l.712-.187v-.763h3.185l.2-.051.711.425a12.956,12.956,0,0,1-2.254,3.863,8,8,0,0,0,2.559,2.61,3.769,3.769,0,0,0-.746.882,8.753,8.753,0,0,1-1.914-1.813v.966h-5.238V36.43a8.751,8.751,0,0,1-1.8,1.526,3.73,3.73,0,0,0-.677-.781,8.646,8.646,0,0,0,2.254-2.084c-.865.153-1.644.272-2.425.407l-.152-.882c.745-.066,1.576-.168,2.592-.288Zm.882,5.949a20.916,20.916,0,0,1-2.356,3.118,7.75,7.75,0,0,0-1.017-.661,15.379,15.379,0,0,0,2.254-2.831Zm2.541-1.221v5.051h-1.186V39.785h-3.711v-1.05h8.608v1.05Zm-3.559-8.22c-.084.153-.185.306-.272.442a18.925,18.925,0,0,1,1.492,1.254,12.6,12.6,0,0,0,.661-1.7Zm4.134-.372a13.68,13.68,0,0,0,1,2.407,11.563,11.563,0,0,0,1.373-2.407Zm1.61,9.321c.847.9,1.933,2.136,2.475,2.865l-.949.644c-.541-.746-1.61-2.035-2.44-2.966Z" transform="translate(-62.785 -29.346)" fill="#fff"/>
      <path id="Path_16" data-name="Path 16" d="M135.827,33.043a11.78,11.78,0,0,1,1.136,2.186h5.948V36.4h-8.727c-.084.677-.187,1.355-.321,2.017h7.27s-.035.39-.069.575c-.3,3.356-.627,4.747-1.185,5.288a1.814,1.814,0,0,1-1.322.491,25.033,25.033,0,0,1-2.66-.051,2.8,2.8,0,0,0-.425-1.185c1.1.1,2.22.118,2.61.118.373,0,.576-.017.746-.17.407-.322.677-1.423.933-3.914h-6.186a7.81,7.81,0,0,1-4.864,5.286,3.675,3.675,0,0,0-.813-1.032c3.9-1.458,4.643-4.457,4.949-7.423h-4.509V35.23h7.373a13.053,13.053,0,0,0-.949-1.881Zm-4.508-.78H128.2V31.129h3.119V29.366h1.237v1.763h2.677v1.135h-2.677v1.61h-1.237Zm11.744-1.135v1.135H139.81v1.61h-1.237v-1.61h-2.645V31.129h2.645V29.366h1.237v1.763Z" transform="translate(-60.022 -29.349)" fill="#fff"/>
      <path id="Path_17" data-name="Path 17" d="M145.56,32.029v4.339c0,2.575-.339,6.169-2.425,8.507a4.051,4.051,0,0,0-.864-.847,9.1,9.1,0,0,0,1.983-5.187c-.679.44-1.373.848-2.035,1.221l-.422-1.119c.661-.306,1.575-.8,2.559-1.3.016-.44.016-.848.016-1.271V30.927h5.949c-.135-.422-.3-.915-.44-1.3l1.22-.271a13.6,13.6,0,0,1,.576,1.575h5.761v1.1ZM143.1,36.1a32.814,32.814,0,0,0-1.05-3.338L143,32.4a29.409,29.409,0,0,1,1.1,3.237Zm13.811-.847a11.3,11.3,0,0,1-1.407,1.2,7.96,7.96,0,0,0,2.085,1.153,4.751,4.751,0,0,0-.745.9,8,8,0,0,1-1.425-.813v3.373h-3.236v2.576c0,.609-.119.881-.594,1.067a7.531,7.531,0,0,1-2.254.17,3.868,3.868,0,0,0-.406-1.034c.829.034,1.541.017,1.745,0,.237,0,.288-.051.288-.238V41.062h-3.151V37.724a15.112,15.112,0,0,1-1.44.847,2.807,2.807,0,0,0-.781-.831,11.146,11.146,0,0,0,2.119-1.288,12.968,12.968,0,0,0-1.322-1.069l.679-.575a11.142,11.142,0,0,1,1.356,1.016,7.623,7.623,0,0,0,1.1-1.269h-3.2v-1h3.829a6.6,6.6,0,0,0,.576-1.457l1.186.168a13.752,13.752,0,0,1-.509,1.289h5.83v1h-3.627a7.2,7.2,0,0,0,1.238,1.372,13.273,13.273,0,0,0,1.288-1.237Zm-7.659,6.525a20.628,20.628,0,0,1-2.677,2.728c-.221-.187-.679-.558-.966-.746a14.56,14.56,0,0,0,2.541-2.356Zm5.033-4.441H148.9v1.035h5.39Zm0,1.83H148.9v1.069h5.39Zm-.322-2.66a9.749,9.749,0,0,1-1.525-1.948h-1.594a9.134,9.134,0,0,1-1.559,1.948Zm.491,4.882c.865.8,2.035,1.9,2.627,2.575l-.948.628a36.265,36.265,0,0,0-2.576-2.679Z" transform="translate(-57.197 -29.352)" fill="#fff"/>
      <path id="Path_18" data-name="Path 18" d="M171.272,41.522h-6.779v1.949c0,.661-.136.948-.662,1.136a10.138,10.138,0,0,1-2.728.168,4.707,4.707,0,0,0-.44-1.066c1.05.032,2,.032,2.254.032.288-.017.356-.067.356-.3V41.522h-7.067V40.455h7.067v-.729a15.818,15.818,0,0,0,2.694-1.288h-6.625V37.49h7.964l.254-.069.762.626a16.994,16.994,0,0,1-3.829,2.1v.3h6.779Zm-13.49-3.084h-1.2V35.371h1.356l-.341-5.033a31.461,31.461,0,0,0,3.272-.831l.576.78a18.566,18.566,0,0,1-2.627.662l.067.83h2.457v.864h-2.405l.066.916h2.407v.864h-2.355l.067.949h9.287c.034-.306.067-.61.1-.949h-2.457v-.864h2.525l.085-.916h-2.509v-.864h2.559l.051-.914h-2.7V30h3.916c-.084,1.679-.237,3.864-.373,5.373h1.321v3.067h-1.237v-2.1H157.782Zm7.252-3.2a9.314,9.314,0,0,0-1.22-.983,11.949,11.949,0,0,1-1.694,1.1,4.449,4.449,0,0,0-.694-.661,10.209,10.209,0,0,0,1.61-.931,12.3,12.3,0,0,0-1.221-.662l.628-.56c.422.188.863.442,1.3.679a6.024,6.024,0,0,0,.847-.9l.881.288a9.682,9.682,0,0,1-.982,1.084,7.619,7.619,0,0,1,1.219.933ZM165,32.218a8.389,8.389,0,0,0-1.171-.864,11.845,11.845,0,0,1-1.576,1.017,5.317,5.317,0,0,0-.71-.61,10.23,10.23,0,0,0,1.508-.865,11.732,11.732,0,0,0-1.186-.61l.61-.56c.407.171.829.391,1.271.628a7.262,7.262,0,0,0,.8-.83l.881.237a8.64,8.64,0,0,1-.931,1.034c.457.288.864.56,1.168.8Z" transform="translate(-54.267 -29.321)" fill="#fff"/>
      <path id="Path_19" data-name="Path 19" d="M177.293,34.781l.78.3c-.965,5.119-3.423,8.2-6.593,9.8a4.409,4.409,0,0,0-.847-1,10.18,10.18,0,0,0,4.168-3.542,20.058,20.058,0,0,0-2.71-1.966,14.329,14.329,0,0,1-1.17,1.272,5.364,5.364,0,0,0-.984-.847,12.526,12.526,0,0,0,3.509-5.441l.933.238V32.087h-3.9V30.916h3.9V29.408h1.236v1.508h1.934v1.171h-1.934v1.661h-1c-.136.372-.271.711-.424,1.066h2.881Zm-3.627,1.152c-.288.526-.593,1.05-.916,1.526a22.424,22.424,0,0,1,2.678,1.83,13.315,13.315,0,0,0,1.237-3.356Zm6.558-3.846h-2.032V30.916h2.032V29.408h1.238v1.508h3.8v1.171h-3.8v1.661h-1.238Zm3.492,11.3c.661,0,.779-.321.847-1.863a4.353,4.353,0,0,0,1.153.474c-.17,1.983-.543,2.576-1.916,2.576h-3.05c-1.576,0-2.067-.391-2.067-1.949V34.559H184.7v4.779c0,.644-.119.984-.593,1.17a6.844,6.844,0,0,1-2.338.2,4.608,4.608,0,0,0-.374-1.12c.865.018,1.576.018,1.8,0,.237-.017.288-.067.288-.254V35.712h-3.558v6.915c0,.644.136.762.966.762Z" transform="translate(-51.476 -29.341)" fill="#fff"/>
    </g>
    <g id="Group_4" data-name="Group 4" transform="translate(76.665 51.55)">
      <path id="Path_20" data-name="Path 20" d="M75.584,54.756l-1.3,3.188a3.041,3.041,0,0,0-.242,1.125q0,.848,1.149,1.01v.153H70.914v-.153a2.4,2.4,0,0,0,.676-.235,4.223,4.223,0,0,0,1.271-1.918l3.55-8.356a2.317,2.317,0,0,0,.223-.856q0-.469-.646-.622v-.154h4.64v.154c-.409.132-.615.343-.615.631a3.964,3.964,0,0,0,.312,1.054l3.358,8.69a4.9,4.9,0,0,0,.616,1.2,1.566,1.566,0,0,0,.777.414v.153H80.324v-.153a1.436,1.436,0,0,0,.777-.45,1.334,1.334,0,0,0,.242-.847,3.123,3.123,0,0,0-.887-2.017,5.663,5.663,0,0,0-2.9-1.7A12.9,12.9,0,0,0,75.584,54.756Zm.3-.936a6.086,6.086,0,0,1,4.245,1.486L77.8,49.335Z" transform="translate(-70.914 -47.443)" fill="#fff"/>
      <path id="Path_21" data-name="Path 21" d="M86.726,52.555a3.8,3.8,0,0,1,1.049-1.224,4.09,4.09,0,0,1,2.461-.893A6.978,6.978,0,0,1,91,50.5l-.455,1.792a2.909,2.909,0,0,0-1.351-.387,2.3,2.3,0,0,0-1.614.639,3.1,3.1,0,0,0-.757,1.954,16.46,16.46,0,0,0-.1,1.973v1.171a6.162,6.162,0,0,0,.061,1.107q.191.783,1.321.828v.144H83.4v-.144a1.531,1.531,0,0,0,.958-.422,1.142,1.142,0,0,0,.233-.667c.012-.066.019-.348.019-.846V52.825a6.186,6.186,0,0,0-.06-1.108q-.161-.7-1.15-.828v-.144l2.835-.243A4.873,4.873,0,0,1,86.726,52.555Z" transform="translate(-68.376 -46.935)" fill="#fff"/>
      <path id="Path_22" data-name="Path 22" d="M95.994,50.334a6.763,6.763,0,0,1,2.3.386,5.154,5.154,0,0,1,1.816,1.082,4.284,4.284,0,0,1,1.331,3.242A4.333,4.333,0,0,1,99.8,58.591a5.71,5.71,0,0,1-1.871.978,7.48,7.48,0,0,1-2.295.355,6.919,6.919,0,0,1-2.5-.433,4.781,4.781,0,0,1-1.861-1.224,4.465,4.465,0,0,1-1.17-3.125,4.352,4.352,0,0,1,1.555-3.422A6.353,6.353,0,0,1,95.994,50.334Zm-.353.89a3.463,3.463,0,0,0-1.422.3,2.893,2.893,0,0,0-1.089.821,3.846,3.846,0,0,0-.736,2.476,5.129,5.129,0,0,0,.686,2.657A2.938,2.938,0,0,0,95.8,59.006a3.3,3.3,0,0,0,2.037-.667,3.606,3.606,0,0,0,1.312-3.089,4.62,4.62,0,0,0-.726-2.638A3.142,3.142,0,0,0,95.642,51.224Z" transform="translate(-67.013 -46.956)" fill="#fff"/>
      <path id="Path_23" data-name="Path 23" d="M104.257,52.522a10.763,10.763,0,0,1,1.705-1.288,5.493,5.493,0,0,1,2.753-.892,2.4,2.4,0,0,1,1.917.757,3,3,0,0,1,.535,1.332,15.226,15.226,0,0,1,1.543-1.117,5.812,5.812,0,0,1,2.975-.981,2.471,2.471,0,0,1,1.095.251,2.274,2.274,0,0,1,.842.685,2.872,2.872,0,0,1,.473,1.746v4.648a6.046,6.046,0,0,0,.061,1.107q.172.758,1.241.828v.144h-4.6V59.6a1.553,1.553,0,0,0,.928-.422,1.142,1.142,0,0,0,.232-.667q.02-.1.02-.846V53.791a2.637,2.637,0,0,0-.333-1.567,1.514,1.514,0,0,0-1.23-.549,3.192,3.192,0,0,0-1.857.621,3.032,3.032,0,0,0-1.231,1.7,6.894,6.894,0,0,0-.16,1.7v1.964a6.248,6.248,0,0,0,.059,1.107q.182.767,1.261.828v.144h-4.649V59.6a1.541,1.541,0,0,0,.959-.422,1.15,1.15,0,0,0,.231-.667,8.184,8.184,0,0,0,.02-.846V53.791a2.529,2.529,0,0,0-.353-1.549,1.47,1.47,0,0,0-1.19-.549,3.254,3.254,0,0,0-2.108.828,3.157,3.157,0,0,0-1.141,2.576v2.567a6.163,6.163,0,0,0,.061,1.107q.161.72,1.171.828v.144h-4.58V59.6a1.531,1.531,0,0,0,.978-.422,1.142,1.142,0,0,0,.232-.667q.02-.1.02-.846V52.846a6.3,6.3,0,0,0-.06-1.108q-.162-.711-1.171-.828v-.144l2.8-.243a3.488,3.488,0,0,1,.414.937A5.963,5.963,0,0,1,104.257,52.522Z" transform="translate(-64.816 -46.956)" fill="#fff"/>
      <path id="Path_24" data-name="Path 24" d="M124.8,58.059a4.111,4.111,0,0,1-1.291,1.207,5.985,5.985,0,0,1-2.925.667,3.919,3.919,0,0,1-2.511-.694,1.928,1.928,0,0,1-.767-1.558,2.692,2.692,0,0,1,1.4-2.232,17.318,17.318,0,0,1,5.941-1.837c.006-.211.01-.366.01-.468a1.61,1.61,0,0,0-.493-1.332,2.573,2.573,0,0,0-1.634-.425,5.026,5.026,0,0,0-3.117.946,4.378,4.378,0,0,0-1.241,1.612l-.12-.019.321-3.052a.861.861,0,0,0,.605.225,7.756,7.756,0,0,0,1.433-.351,10.009,10.009,0,0,1,2.965-.406,4.266,4.266,0,0,1,2.813.757,1.723,1.723,0,0,1,.6.927,5.47,5.47,0,0,1,.111,1.226v3.971a2.7,2.7,0,0,0,.464,1.864,2.122,2.122,0,0,0,1.019.513v.144h-2.854A3.885,3.885,0,0,1,125,58.95,3.576,3.576,0,0,1,124.8,58.059Zm-.081-3.683a14.766,14.766,0,0,0-2.774.783q-2.271.928-2.271,2.342a1.251,1.251,0,0,0,.667,1.117,2.023,2.023,0,0,0,1.059.261,3.548,3.548,0,0,0,2.209-.739,2.487,2.487,0,0,0,.948-1.45,8.02,8.02,0,0,0,.161-1.792Z" transform="translate(-61.484 -46.955)" fill="#fff"/>
      <path id="Path_25" data-name="Path 25" d="M137.538,47.809l.836,3.71-.171.054a4.623,4.623,0,0,0-.676-1.126,4.71,4.71,0,0,0-1.018-.846,5.2,5.2,0,0,0-2.885-.865,4.11,4.11,0,0,0-1.794.351,1.335,1.335,0,0,0-.9,1.19,1,1,0,0,0,.645.856,7.453,7.453,0,0,0,1.272.44l3.4.927a6.271,6.271,0,0,1,2.5,1.153,3.083,3.083,0,0,1,1.069,2.4,3.873,3.873,0,0,1-1.694,3.187,5.927,5.927,0,0,1-1.9.941,7.9,7.9,0,0,1-2.31.337,8.819,8.819,0,0,1-1.633-.153c-.141-.03-.511-.12-1.109-.27a7.466,7.466,0,0,0-1.059-.182,1.085,1.085,0,0,0-.726.351l-1.2-4.672.183-.054a7.641,7.641,0,0,0,.857,1.639,5.354,5.354,0,0,0,2.17,1.756,5.732,5.732,0,0,0,2.4.5,4.713,4.713,0,0,0,3.045-.954,2.159,2.159,0,0,0,.928-1.7,1.882,1.882,0,0,0-1.089-1.648,7.987,7.987,0,0,0-1.784-.657l-3.257-.892q-2.794-.756-2.8-2.729a2.593,2.593,0,0,1,1.6-2.422,6.844,6.844,0,0,1,3.148-.693,12.814,12.814,0,0,1,2.42.306,4.019,4.019,0,0,0,.756.1A1.037,1.037,0,0,0,137.538,47.809Z" transform="translate(-59.271 -47.484)" fill="#fff"/>
      <path id="Path_26" data-name="Path 26" d="M149.4,57.188l-1.068,2.647a1.44,1.44,0,0,0-.455-.09c-.047,0-.231.013-.555.036q-1.3.126-1.825.126a8.012,8.012,0,0,1-2.658-.433,6.041,6.041,0,0,1-2.1-1.206,4.489,4.489,0,0,1-1.5-3.44,4,4,0,0,1,1.533-3.286,5.19,5.19,0,0,1,3.388-1.126,18.779,18.779,0,0,1,1.9.153,8,8,0,0,0,.918.064,1.944,1.944,0,0,0,.877-.207l.615,2.845-.13.046a3.751,3.751,0,0,0-3.4-1.954,3.218,3.218,0,0,0-2.391.936,3.619,3.619,0,0,0-1.038,2.648,3.745,3.745,0,0,0,.969,2.6,4.115,4.115,0,0,0,1.426,1.014,4.321,4.321,0,0,0,1.751.373,4.6,4.6,0,0,0,2.532-.729,3.77,3.77,0,0,0,1.078-1.09Z" transform="translate(-57.025 -46.94)" fill="#fff"/>
      <path id="Path_27" data-name="Path 27" d="M151.644,53.03a11.217,11.217,0,0,1,1.925-1.4,5.306,5.306,0,0,1,2.541-.721,2.369,2.369,0,0,1,2.027.918,3.053,3.053,0,0,1,.425,1.811v4.6a6.24,6.24,0,0,0,.059,1.107q.182.758,1.242.828v.144h-4.64V60.17a1.554,1.554,0,0,0,.969-.422,1.151,1.151,0,0,0,.231-.667,8.189,8.189,0,0,0,.02-.846V54.452a3.09,3.09,0,0,0-.262-1.5,1.319,1.319,0,0,0-1.23-.683,3.38,3.38,0,0,0-1.926.657,3.078,3.078,0,0,0-1.171,1.4,4.408,4.408,0,0,0-.211,1.5v2.414a6.246,6.246,0,0,0,.059,1.107q.162.72,1.171.828v.144h-4.518V60.17a1.541,1.541,0,0,0,.918-.422,1.151,1.151,0,0,0,.231-.667,8.2,8.2,0,0,0,.02-.846V50.1a6.2,6.2,0,0,0-.06-1.108q-.182-.765-1.272-.828v-.146l3.451-.495Z" transform="translate(-55.204 -47.527)" fill="#fff"/>
      <path id="Path_28" data-name="Path 28" d="M164.732,50.334a6.763,6.763,0,0,1,2.3.386,5.154,5.154,0,0,1,1.816,1.082,4.281,4.281,0,0,1,1.332,3.242,4.33,4.33,0,0,1-1.645,3.547,5.7,5.7,0,0,1-1.87.978,7.485,7.485,0,0,1-2.295.355,6.926,6.926,0,0,1-2.5-.433,4.78,4.78,0,0,1-1.861-1.224,4.464,4.464,0,0,1-1.168-3.125A4.351,4.351,0,0,1,160.4,51.72,6.355,6.355,0,0,1,164.732,50.334Zm-.353.89a3.454,3.454,0,0,0-1.421.3,2.9,2.9,0,0,0-1.09.821,3.846,3.846,0,0,0-.736,2.476,5.14,5.14,0,0,0,.686,2.657,2.941,2.941,0,0,0,2.723,1.531,3.3,3.3,0,0,0,2.037-.667,3.606,3.606,0,0,0,1.312-3.089,4.62,4.62,0,0,0-.726-2.638A3.142,3.142,0,0,0,164.379,51.224Z" transform="translate(-53.039 -46.956)" fill="#fff"/>
      <path id="Path_29" data-name="Path 29" d="M175.5,50.334a6.769,6.769,0,0,1,2.3.386,5.154,5.154,0,0,1,1.816,1.082,4.285,4.285,0,0,1,1.331,3.242,4.333,4.333,0,0,1-1.644,3.547,5.709,5.709,0,0,1-1.871.978,7.48,7.48,0,0,1-2.295.355,6.92,6.92,0,0,1-2.5-.433,4.772,4.772,0,0,1-1.861-1.224,4.465,4.465,0,0,1-1.17-3.125,4.354,4.354,0,0,1,1.553-3.422A6.356,6.356,0,0,1,175.5,50.334Zm-.353.89a3.459,3.459,0,0,0-1.422.3,2.884,2.884,0,0,0-1.089.821,3.845,3.845,0,0,0-.736,2.476,5.129,5.129,0,0,0,.686,2.657,2.938,2.938,0,0,0,2.723,1.531,3.3,3.3,0,0,0,2.037-.667,3.606,3.606,0,0,0,1.312-3.089,4.611,4.611,0,0,0-.727-2.638A3.14,3.14,0,0,0,175.148,51.224Z" transform="translate(-50.851 -46.956)" fill="#fff"/>
      <path id="Path_30" data-name="Path 30" d="M183.4,47.527V58.235a6.2,6.2,0,0,0,.06,1.107q.182.758,1.251.828v.144H180.1V60.17a1.557,1.557,0,0,0,.929-.422,1.151,1.151,0,0,0,.231-.667,8.187,8.187,0,0,0,.02-.846V50.1A6.2,6.2,0,0,0,181.22,49c-.122-.516-.548-.792-1.281-.828v-.146Z" transform="translate(-48.751 -47.527)" fill="#fff"/>
    </g>
  </g>
</svg>
