<svg id="service-1" xmlns="http://www.w3.org/2000/svg" xmlns:xlink="http://www.w3.org/1999/xlink" width="80" height="80" viewBox="0 0 80 80">
  <defs>
    <clipPath id="clip-path">
      <rect id="Rectangle_238" data-name="Rectangle 238" width="80" height="80" fill="#c9b5a5" stroke="#fff" stroke-width="2"/>
    </clipPath>
  </defs>
  <g id="Group_421" data-name="Group 421" clip-path="url(#clip-path)">
    <path id="Path_1463" data-name="Path 1463" d="M74.639,20.012A39.99,39.99,0,0,0,1.38,29.657a40,40,0,0,0,52.932,47.7,1.562,1.562,0,1,0-1.121-2.917A36.628,36.628,0,0,1,17.943,69.6l1.4-7.307.675-.219a4.867,4.867,0,0,0,3.121-6.125l-.495-1.523a1.725,1.725,0,0,1,0-1.077,4.861,4.861,0,0,0-3.686-6.286l-3.527-.689L8.628,41.2A1.563,1.563,0,0,0,7.2,40.954L3.216,42.249a36.835,36.835,0,0,1-.005-4.266c.157.146.26.246.323.311a1.638,1.638,0,0,0,1.526.783,22.7,22.7,0,0,0,2.8-.319c1.318-.195,2.629-.414,2.642-.417a1.562,1.562,0,0,0,1.033-2.421L9.619,33.11l2.744-1.962a1.56,1.56,0,0,0,.447-.494l4.254-7.426,1.715-1.837a6.6,6.6,0,0,0,1.273-7,7.186,7.186,0,0,0-2.846-3.352A36.816,36.816,0,0,1,39.58,3.153l-2.79,3.5L26.443,10.28a1.562,1.562,0,0,0-.927.878l-2.889,7a1.562,1.562,0,0,0,.173,1.5l4.22,5.911a14.841,14.841,0,0,0-1.9,2.352c-.308.437-.6.85-.8,1.082-.175.2-.35.4-.523.593a14.618,14.618,0,0,0-2.513,3.488,9.311,9.311,0,0,0,.773,9.412,8.77,8.77,0,0,0,8.28,3.553,12.187,12.187,0,0,0,1.526-.308c1.34-.331,1.764-.365,2.194.038.209.2.228.233.224.9a6.059,6.059,0,0,0,.139,1.548,4.935,4.935,0,0,0,1.32,2.157,3.505,3.505,0,0,1,.567.723c.487,1.168.275,1.815-.19,3.232-.04.121-.08.245-.121.372-.706,2.187.278,4.356,1.147,6.269.282.621.549,1.208.723,1.727,1.4,4.168,2.458,5.123,3.3,5.508a3.259,3.259,0,0,0,1.364.289c2.252,0,4.6-2.091,5.682-3.417a4.805,4.805,0,0,0,.967-2.275,2.486,2.486,0,0,1,.2-.7,4.1,4.1,0,0,1,.512-.659,5.42,5.42,0,0,0,1.278-2.123,3.439,3.439,0,0,1,1.06-1.664c.107-.114.222-.236.345-.37,2.081-2.265,1.545-3.994.977-5.826-.478-1.541.358-2.527,2.378-4.408A16.868,16.868,0,0,0,58.418,44.4a3.374,3.374,0,0,0,.662-3.13c-.565-1.311-2-1.531-3.156-1.708a5.176,5.176,0,0,1-1.364-.319,7.384,7.384,0,0,1-2.13-3.227c-.114-.254-.226-.5-.34-.748-.2-.434-.406-.959-.621-1.515a13.108,13.108,0,0,0-2.31-4.3c-.986-1.045-2.844-1.548-4.484-1.992-.551-.149-1.072-.29-1.415-.417a1.56,1.56,0,0,0-.9-.055,4.054,4.054,0,0,0-1.665.689,1.939,1.939,0,0,0-.556.748A17.855,17.855,0,0,1,38.3,27.3l-.03-.02a2.214,2.214,0,0,0-.139-1.5c-.873-1.846-3.77-1.7-4.342-1.653-.325.027-.735.042-1.17.057-.682.024-1.437.051-2.183.135l.038-.107a4,4,0,0,1,3.751-2.639h.888a1.562,1.562,0,1,0,0-3.125h-.888a7.132,7.132,0,0,0-6.048,3.373l-2.33-3.265L28.138,13l10.11-3.544a1.563,1.563,0,0,0,.705-.5l4.494-5.637A36.846,36.846,0,0,1,71.933,21.574a36.468,36.468,0,0,1,3.682,8.943l-.662.591a4.173,4.173,0,0,0-1.39,3.036c0,.013,0,.025,0,.038l-1.079-2.967a3.9,3.9,0,0,0-.7-1.207l-1.925-2.254a3.916,3.916,0,0,0-2.982-1.374H64.517A2.263,2.263,0,0,0,62.634,29.9l.238.358a17.315,17.315,0,0,1-5.158,3.063l-3.23-6.186v-1.38A1.562,1.562,0,0,0,54,24.622l-2.908-2.776a1.563,1.563,0,0,0-.561-.344l-2.618-.92a1.562,1.562,0,0,0-1.036,2.948l2.3.809,2.182,2.082v1.1a1.563,1.563,0,0,0,.177.723l4.043,7.745a1.562,1.562,0,0,0,1.925.743l1.177-.434A20.45,20.45,0,0,0,66.015,31.6a1.562,1.562,0,0,0,.195-1.971l-.083-.125h.746a.8.8,0,0,1,.606.279L69.4,32.037a.794.794,0,0,1,.143.245l2.124,5.841a1.562,1.562,0,0,0,2.573.571l1.011-1.011a4.879,4.879,0,0,0,1.292-2.349A37,37,0,0,1,62.809,68.982a1.562,1.562,0,1,0,1.929,2.458,40,40,0,0,0,9.9-51.427M7.387,44.179l6.443,4.9a1.557,1.557,0,0,0,.646.29l3.883.759a1.736,1.736,0,0,1,1.316,2.245,4.83,4.83,0,0,0,0,3.017l.495,1.523A1.738,1.738,0,0,1,19.052,59.1l-1.553.5a1.562,1.562,0,0,0-1.051,1.192L15.2,67.318A37.283,37.283,0,0,1,8.081,58.44,36.677,36.677,0,0,1,3.541,45.429Zm9.106-24.92-1.838,1.969a1.577,1.577,0,0,0-.214.29L10.268,28.8l-3.71,2.653a1.562,1.562,0,0,0-.382,2.151l1.388,2.035c-.8.119-1.518.217-1.995.269-.092-.088-.188-.177-.287-.269-.371-.345-.887-.806-1.657-1.479a36.929,36.929,0,0,1,11-20.9,4.062,4.062,0,0,1,2.532,2.318,3.467,3.467,0,0,1-.669,3.677M29.232,27.8a10.018,10.018,0,0,1,3.5-.491c.473-.017.92-.033,1.32-.066a4.249,4.249,0,0,1,.666,0,1.563,1.563,0,0,0,.719,1.944c.293.157.7.429,1.133.717a9,9,0,0,0,3.906,1.82,2.592,2.592,0,0,0,2.122-.884c.023-.023.044-.046.066-.066a1.676,1.676,0,0,0,.418-.512c.25.071.512.143.782.215a10.4,10.4,0,0,1,3.028,1.12,11.083,11.083,0,0,1,1.667,3.283c.235.608.457,1.182.706,1.714.107.228.212.463.319.7a9.758,9.758,0,0,0,3.272,4.564,6.46,6.46,0,0,0,2.6.792l.34.054a15.109,15.109,0,0,1-1.983,2.08c-1.934,1.8-4.341,4.043-3.233,7.62.523,1.689.548,1.871-.294,2.787-.115.125-.222.239-.322.345A6.42,6.42,0,0,0,48.2,58.392a2.44,2.44,0,0,1-.636.993,6.951,6.951,0,0,0-.874,1.157,5.062,5.062,0,0,0-.566,1.66,1.911,1.911,0,0,1-.326.916,9.111,9.111,0,0,1-1.972,1.744,2.576,2.576,0,0,1-1.309.521,11.143,11.143,0,0,1-1.683-3.67c-.225-.668-.537-1.356-.839-2.02-.665-1.466-1.353-2.981-1.019-4.017q.059-.183.117-.358a6.825,6.825,0,0,0,.1-5.409,5.635,5.635,0,0,0-1.138-1.621,2.9,2.9,0,0,1-.6-.793,3.377,3.377,0,0,1-.051-.79,3.875,3.875,0,0,0-1.213-3.2c-1.729-1.618-3.745-1.12-5.08-.79a9.8,9.8,0,0,1-1.14.237A5.613,5.613,0,0,1,24.6,40.681a6.186,6.186,0,0,1-.485-6.254,11.863,11.863,0,0,1,2.023-2.747c.181-.2.365-.41.548-.621.3-.351.64-.827.995-1.33A11.288,11.288,0,0,1,29.232,27.8" transform="translate(0 0)" fill="#c9b5a5" stroke="#fff" stroke-width="2"/>
    <path id="Path_1464" data-name="Path 1464" d="M258.229,118.183l-.105-.037a1.562,1.562,0,0,0-1.034,2.949l.105.037a1.562,1.562,0,1,0,1.034-2.949" transform="translate(-216.037 -99.612)" fill="#c9b5a5" stroke="#fff" stroke-width="2"/>
  </g>
</svg>
