<svg xmlns="http://www.w3.org/2000/svg" width="70" height="70" viewBox="0 0 70 70">
  <g id="course_icon-3" transform="translate(2224 -1095)">
    <rect id="Rectangle_296" data-name="Rectangle 296" width="70" height="70" transform="translate(-2224 1095)" fill="#fff" opacity="0"/>
    <g id="certificate" transform="translate(-2223 1075.468)">
      <path id="Path_35" data-name="Path 35" d="M143.224,125.642v-4.077a.984.984,0,0,0-.984-.984H109.6a.984.984,0,0,0-.984.984v4.077a.984.984,0,0,0,.984.984H142.24A.984.984,0,0,0,143.224,125.642Zm-1.969-.984H110.583V122.55h30.673Z" transform="translate(-94.359 -80.837)" fill="#707179" stroke="#f9efe5" stroke-width="0.7"/>
      <path id="Path_36" data-name="Path 36" d="M154.84,183.69a.984.984,0,0,0-.984-.984H125.347a.984.984,0,1,0,0,1.969h28.508A.984.984,0,0,0,154.84,183.69Z" transform="translate(-108.041 -134.809)" fill="#707179" stroke="#f9efe5" stroke-width="0.7"/>
      <path id="Path_37" data-name="Path 37" d="M166.294,214.747a.984.984,0,0,0-.984-.984H140.878a.984.984,0,1,0,0,1.969H165.31A.984.984,0,0,0,166.294,214.747Z" transform="translate(-121.534 -161.79)" fill="#707179" stroke="#f9efe5" stroke-width="0.7"/>
      <path id="Path_38" data-name="Path 38" d="M171.941,275.877a.984.984,0,1,0,0,1.969h16.278a.984.984,0,1,0,0-1.969Z" transform="translate(-148.52 -215.752)" fill="#707179" stroke="#f9efe5" stroke-width="0.7"/>
      <path id="Path_39" data-name="Path 39" d="M67.227,68.211a11.161,11.161,0,0,0-4.108-8.651V28.516a.984.984,0,0,0-.984-.984H.984A.984.984,0,0,0,0,28.516V73.36a.984.984,0,0,0,.984.984h12.11a.984.984,0,0,0,0-1.969H1.969V29.5H61.151V58.27a11.1,11.1,0,0,0-2.108-.827V36.67a.985.985,0,0,0-.986-.984,3.1,3.1,0,0,1-3.092-3.092.984.984,0,0,0-.984-.984H50.025a.984.984,0,1,0,0,1.969h3.067a5.076,5.076,0,0,0,3.982,3.98V57.081A11.432,11.432,0,0,0,44.872,68.3H10.028a5.071,5.071,0,0,0-3.981-3.983V37.559a5.072,5.072,0,0,0,3.981-3.981H45.736a.984.984,0,1,0,0-1.969H9.138a.984.984,0,0,0-.984.984,3.093,3.093,0,0,1-3.092,3.092.984.984,0,0,0-.984.984V65.206a.984.984,0,0,0,.984.984,3.093,3.093,0,0,1,3.092,3.093.984.984,0,0,0,.984.984H45.063a11.075,11.075,0,0,0,.615,2.108H17.384a.984.984,0,1,0,0,1.969H46.709a11.254,11.254,0,0,0,4.278,3.829v8.383q.375,1.471,1.68.7l3.38-3.382,3.382,3.382a.987.987,0,0,0,1.68-.7V78.173A11.188,11.188,0,0,0,67.227,68.211ZM59.141,84.18l-2.4-2.4a.984.984,0,0,0-1.392,0l-2.4,2.4V78.951a11.124,11.124,0,0,0,6.185,0Zm-3.093-6.759a9.223,9.223,0,0,1-9.158-8.238A9.38,9.38,0,0,1,56.048,59a9.21,9.21,0,1,1,0,18.42Z" transform="translate(0 0)" fill="#707179" stroke="#f9efe5" stroke-width="0.7"/>
      <path id="Path_40" data-name="Path 40" d="M386.277,291.794a.984.984,0,0,0-1.28.548,5.1,5.1,0,1,1,.075-3.6.984.984,0,0,0,1.856-.655,7.07,7.07,0,1,0-.1,4.984A.984.984,0,0,0,386.277,291.794Z" transform="translate(-324.212 -222.264)" fill="#707179" stroke="#f9efe5" stroke-width="0.7"/>
    </g>
  </g>
</svg>
