<svg xmlns="http://www.w3.org/2000/svg" width="70" height="70.188" viewBox="0 0 70 70.188">
  <g id="course_icon-4" transform="translate(2226 -1193)">
    <rect id="Rectangle_297" data-name="Rectangle 297" width="70" height="70" transform="translate(-2226 1193)" fill="#fff" opacity="0"/>
    <g id="zen" transform="translate(-2219 1194)">
      <path id="Path_32" data-name="Path 32" d="M106.153,56.972,99.542,39.867a1.542,1.542,0,0,1,.217-1.5,23.7,23.7,0,0,0,1.819-26.478.992.992,0,1,0-1.716,1,21.717,21.717,0,0,1-1.667,24.26,3.536,3.536,0,0,0-.5,3.434L104.3,57.688a.363.363,0,0,1-.207.469L81.787,66.778a.363.363,0,0,1-.469-.207L77.156,55.8a1.7,1.7,0,0,0-1.956-1.05l-10.258,2.26a2.332,2.332,0,0,1-2.781-2.773l.505-2.325a6.233,6.233,0,0,0,.081-2.205l-.161-1.136a1.384,1.384,0,0,0-1.365-1.185h0a1.332,1.332,0,0,1-1.31-.981,1.353,1.353,0,0,1,.12-1.008,1.419,1.419,0,0,0-.414-1.847L58.7,42.9a.433.433,0,0,1-.171-.461l.524-2.1a1.555,1.555,0,0,0-.9-1.814l-4.593-1.969a.43.43,0,0,1-.155-.678l5.569-6.394a2.465,2.465,0,0,0,.572-2.041,21.974,21.974,0,0,1-.311-3.683A21.78,21.78,0,0,1,81.012,1.984h.156A21.812,21.812,0,0,1,97.282,9.326a.992.992,0,1,0,1.484-1.319A23.756,23.756,0,0,0,57.587,27.78a.487.487,0,0,1-.112.4l-5.569,6.394a2.416,2.416,0,0,0,.87,3.807l4.262,1.827L56.6,41.958a2.4,2.4,0,0,0,.949,2.562l.531.376a3.373,3.373,0,0,0-.1,2,3.3,3.3,0,0,0,2.7,2.437l.093.655a4.252,4.252,0,0,1-.055,1.5l-.505,2.325a4.317,4.317,0,0,0,5.147,5.133L75.391,56.74l4.076,10.546A2.347,2.347,0,0,0,82.5,68.629l22.307-8.621A2.35,2.35,0,0,0,106.153,56.972Z" transform="translate(-51.311 0.001)" fill="#707179" stroke="#f9efe5" stroke-width="0.8"/>
      <path id="Path_33" data-name="Path 33" d="M167.9,68.467a1.411,1.411,0,0,0-.977-1.852,20.929,20.929,0,0,0-6.172-.589,20.819,20.819,0,0,0-.182-6.365,1.412,1.412,0,0,0-1.787-1.092,20.876,20.876,0,0,0-5.707,2.716,20.977,20.977,0,0,0-3.318-5,1.415,1.415,0,0,0-1.047-.465h0a1.414,1.414,0,0,0-1.047.465,20.982,20.982,0,0,0-3.317,5,20.85,20.85,0,0,0-5.707-2.716,1.411,1.411,0,0,0-1.787,1.092,20.822,20.822,0,0,0-.182,6.365,20.923,20.923,0,0,0-6.172.589,1.411,1.411,0,0,0-.977,1.852,19.658,19.658,0,0,0,4.72,7.325A.992.992,0,1,0,135.6,74.34a17.608,17.608,0,0,1-3.973-5.95c1.944-.414,6.27-1,9.878.9a10.7,10.7,0,0,1,1.861,1.258,15.84,15.84,0,0,0,.808,2.306.992.992,0,1,0,1.819-.795,12.014,12.014,0,0,1-1.084-4.8c0-4.08,2.535-7.635,3.807-9.16,1.272,1.526,3.807,5.08,3.807,9.16a13.6,13.6,0,0,1-2.137,6.82,6.854,6.854,0,0,0-4.424,3.155,14.9,14.9,0,0,1-7-.742.992.992,0,1,0-.729,1.846,15.5,15.5,0,0,0,5.669,1c.594,0,1.16-.028,1.688-.072a3.627,3.627,0,0,0,.148.683c-2.947.222-5.165,1.826-5.165,3.836a2.762,2.762,0,0,0,.2,1.018,1.436,1.436,0,0,0-.594,1.162v3.126a1.441,1.441,0,0,0,1.439,1.439h11.719c-1.542.466-2.593,1.51-2.593,2.752,0,1.69,1.944,3.014,4.426,3.014s4.426-1.324,4.426-3.014c0-1.242-1.051-2.286-2.593-2.752h5.227a1.441,1.441,0,0,0,1.439-1.439V85.966a1.441,1.441,0,0,0-1.439-1.439h-10.02a2.748,2.748,0,0,0,.091-.5,13.174,13.174,0,0,0,1.471.083c4.6,0,8.2-2.3,8.2-5.238a3.663,3.663,0,0,0-.456-1.753c3.954-2.666,5.872-7.249,6.384-8.649Zm-25.474-.927a13.12,13.12,0,0,0-3.709-1.265,18.386,18.386,0,0,1-.021-5.606,18.459,18.459,0,0,1,4.9,2.518,13.215,13.215,0,0,0-.677,4.075c0,.187.006.374.015.562C142.768,67.725,142.6,67.629,142.428,67.539Zm15.181,25.744c0,.363-.927,1.029-2.441,1.029s-2.441-.666-2.441-1.029.927-1.029,2.441-1.029S157.609,92.92,157.609,93.283Zm1.12-32.615a18.391,18.391,0,0,1-.021,5.606A13.119,13.119,0,0,0,155,67.539c-.17.09-.339.186-.507.285.009-.188.014-.375.014-.562a13.217,13.217,0,0,0-.677-4.076A18.472,18.472,0,0,1,158.729,60.668ZM142.161,86.512h3.157v2.034h-3.157Zm14.123,0v2.034H147.3V86.512Zm5.4,2.034h-3.414V86.512h3.414ZM142.93,84.527a1.112,1.112,0,0,1-.37-.741c0-.887,1.661-1.878,3.883-1.878s3.883.992,3.883,1.878a1.12,1.12,0,0,1-.37.741Zm10.84-2.405a10.835,10.835,0,0,1-2.181-.218,5.969,5.969,0,0,0-3.569-1.844,1.9,1.9,0,0,1-.47-1.192c0-1.539,2.554-3.253,6.219-3.253s6.219,1.715,6.219,3.253S157.436,82.122,153.771,82.122ZM160.22,75.6a10.387,10.387,0,0,0-6.449-1.966c-.3,0-.6.01-.887.029a16.2,16.2,0,0,0,1.184-3.11,10.7,10.7,0,0,1,1.857-1.254c3.609-1.9,7.935-1.319,9.879-.9A15.982,15.982,0,0,1,160.22,75.6Z" transform="translate(-118.942 -48.316)" fill="#707179" stroke="#f9efe5" stroke-width="0.8"/>
    </g>
  </g>
</svg>
