<svg xmlns="http://www.w3.org/2000/svg" width="132.072" height="109.015" viewBox="0 0 132.072 109.015">
  <g id="Group_523" data-name="Group 523" transform="translate(-877 -464)">
    <circle id="Ellipse_20" data-name="Ellipse 20" cx="53.5" cy="53.5" r="53.5" transform="translate(877 464)" fill="#f1f1f4"/>
    <g id="Group_522" data-name="Group 522" transform="translate(870.435 431.535)">
      <g id="Group_516" data-name="Group 516" transform="translate(17.565 56.387)">
        <path id="Path_1484" data-name="Path 1484" d="M75.665,194.225c.486.242.777.366.823.385a1.757,1.757,0,0,0,1.36-3.239,21.771,21.771,0,0,1-2.183-1.148l-3.513-2.342a43.474,43.474,0,0,1-3.513-2.926l-3.513-3.635a46.491,46.491,0,0,1-2.951-3.794l1.156-10.065a1.757,1.757,0,0,0-3.491-.4l-.644,5.607a51.594,51.594,0,0,1-4.288-10.92c-.146-.542-.3-1.074-.453-1.6l3.483-7.849a1.757,1.757,0,1,0-3.211-1.425L52.8,155.209a64.747,64.747,0,0,0-3.5-7.72l.4-9.932a1.757,1.757,0,0,0-3.51-.142L46,142.045a54.394,54.394,0,0,0-4.427-5.67q-.853-.951-1.664-1.769l-.542-6.89a1.757,1.757,0,0,0-3.5.275l.249,3.173a26.442,26.442,0,0,0-3.209-2.273,1.757,1.757,0,0,0-1.73,3.058,22.5,22.5,0,0,1,2.392,1.685h-3.1a1.757,1.757,0,0,0,0,3.513h7a51.352,51.352,0,0,1,6.992,8.974H37.616a1.757,1.757,0,0,0,0,3.513h8.848a61.748,61.748,0,0,1,3.706,8.632h-6.4a1.757,1.757,0,0,0,0,3.513h7.5c.082.291.164.583.244.879a54.612,54.612,0,0,0,5.665,13.58H52.311a1.757,1.757,0,1,0,0,3.513h7.134a57.545,57.545,0,0,0,9.585,9.592Zm-3.513,3.132c-1.028,0-2.212-.023-3.513-.11l-3.514-.36c-1.047-.145-2.138-.332-3.257-.569l-2.561-6.93a1.757,1.757,0,0,0-3.3,1.218l1.706,4.616a37.216,37.216,0,0,1-6.708-2.872l-2.168-8.388a1.757,1.757,0,1,0-3.4.879l1.2,4.63a50.111,50.111,0,0,0-6.336-4.02l-2.516-7.611a1.757,1.757,0,1,0-3.336,1.1l1.468,4.442a47.729,47.729,0,0,0-6.785-2.221l-3.385-6.55a1.757,1.757,0,1,0-3.121,1.613l2.111,4.085a31.112,31.112,0,0,0-5.5-.359,1.757,1.757,0,1,0,.18,3.509,27.783,27.783,0,0,1,4.509.3l-5.1,4.226a1.757,1.757,0,1,0,2.241,2.706l7.333-6.073a44.76,44.76,0,0,1,6.937,2.345L29.7,190.8a1.757,1.757,0,0,0,1.978,2.9l7.289-4.968a46.245,46.245,0,0,1,5.932,3.83c.449.341.9.664,1.358.978l-4.77,3.145a1.757,1.757,0,0,0,1.934,2.933l6.137-4.046a41.119,41.119,0,0,0,7.805,3.249l-3.534,4.041a1.757,1.757,0,0,0,2.645,2.313l4.7-5.375c1.374.291,2.7.509,3.973.672l3.549.332c1.1.065,2.128.091,3.049.091l.5,0,3.53-.17c.578-.053.938-.1,1.03-.114a1.757,1.757,0,0,0-.489-3.479c-.019,0-.247.033-.653.07Z" transform="translate(-17.565 -126.097)" fill="#707179" stroke="#fff" stroke-width="2"/>
      </g>
      <g id="Group_521" data-name="Group 521" transform="translate(69.572 35.066)">
        <g id="Group_518" data-name="Group 518" transform="translate(0 0)">
          <g id="Group_517" data-name="Group 517">
            <path id="Path_1485" data-name="Path 1485" d="M240.37,76.153a33.932,33.932,0,0,0,40.294,26.062l.949,3.54h0a5.362,5.362,0,0,0-3.791,6.567l6.476,24.169a5.361,5.361,0,0,0,6.565,3.79l3.452-.925h0a5.361,5.361,0,0,0,3.791-6.567l-6.476-24.169h0a5.361,5.361,0,0,0-6.567-3.791l-.948-3.54A33.936,33.936,0,1,0,240.37,76.153Zm42.164,33.055,3.453-.927a1.828,1.828,0,0,1,2.189,1.264l6.476,24.169a1.787,1.787,0,0,1-1.263,2.187l-3.453.927a1.787,1.787,0,0,1-2.188-1.264l-6.476-24.169A1.787,1.787,0,0,1,282.534,109.208ZM265.758,39.693A30.381,30.381,0,1,1,244.275,76.9,30.382,30.382,0,0,1,265.758,39.693Z" transform="translate(-239.609 -35.066)" fill="#707179" stroke="#fff" stroke-width="2"/>
          </g>
        </g>
        <g id="Group_520" data-name="Group 520" transform="translate(7.206 8.081)">
          <g id="Group_519" data-name="Group 519">
            <path id="Path_1486" data-name="Path 1486" d="M271.289,102.4l3.452-.925a23.262,23.262,0,0,1,16.428-28.455l-.925-3.452h0A26.834,26.834,0,0,0,271.289,102.4Z" transform="translate(-270.375 -69.566)" fill="#707179" stroke="#fff" stroke-width="2"/>
          </g>
        </g>
      </g>
    </g>
  </g>
</svg>
