<svg xmlns="http://www.w3.org/2000/svg" width="181.497" height="107" viewBox="0 0 181.497 107">
  <g id="Group_530" data-name="Group 530" transform="translate(-872.75 -464)">
    <circle id="Ellipse_20" data-name="Ellipse 20" cx="53.5" cy="53.5" r="53.5" transform="translate(895 464)" fill="#f1f1f4"/>
    <g id="Group_529" data-name="Group 529" transform="translate(822.797 278.317)">
      <g id="Group_527" data-name="Group 527" transform="translate(50.956 206.948)">
        <path id="Path_1493" data-name="Path 1493" d="M107.428,273.164a7.754,7.754,0,0,0,.8.364,1.7,1.7,0,1,0,1.32-3.141,21.384,21.384,0,0,1-2.117-1.115L104.014,267a41.747,41.747,0,0,1-3.414-2.845l-3.414-3.528a46.105,46.105,0,0,1-2.868-3.687l1.115-9.787a1.707,1.707,0,0,0-3.391-.387L91.4,252.2a50.51,50.51,0,0,1-4.165-10.607c-.137-.523-.3-1.047-.432-1.548l3.391-7.625a1.707,1.707,0,1,0-3.118-1.388l-1.866,4.211a62.718,62.718,0,0,0-3.414-7.511l.387-9.651a1.708,1.708,0,1,0-3.414-.137l-.182,4.507a53.189,53.189,0,0,0-4.3-5.508c-.546-.615-1.093-1.184-1.616-1.73l-.524-6.692a1.713,1.713,0,1,0-3.414.273l.25,3.073a23.038,23.038,0,0,0-3.118-2.208,1.7,1.7,0,0,0-1.684,2.959,21.554,21.554,0,0,1,2.322,1.639H63.522a1.707,1.707,0,1,0,0,3.414h6.806a50.369,50.369,0,0,1,6.806,8.717H70.487a1.707,1.707,0,0,0,0,3.414h8.581a60.458,60.458,0,0,1,3.6,8.4H76.45a1.707,1.707,0,1,0,0,3.414h7.284c.091.273.159.569.228.865a52.835,52.835,0,0,0,5.508,13.2H84.735a1.707,1.707,0,0,0,0,3.414h6.942a56.374,56.374,0,0,0,9.309,9.332Zm-3.414,3.027c-1,0-2.14-.023-3.414-.114l-3.414-.341c-1.024-.137-2.071-.319-3.164-.546l-2.481-6.737a1.7,1.7,0,1,0-3.187,1.184l1.662,4.484a34.242,34.242,0,0,1-6.51-2.8l-2.117-8.148a1.7,1.7,0,0,0-3.3.842l1.161,4.507a49.461,49.461,0,0,0-6.168-3.915l-2.458-7.375a1.713,1.713,0,0,0-3.255,1.07l1.434,4.325a47.107,47.107,0,0,0-6.6-2.162l-3.3-6.373a1.705,1.705,0,1,0-3.027,1.571l2.048,3.96a27.431,27.431,0,0,0-5.349-.341,1.709,1.709,0,1,0,.182,3.414,27.684,27.684,0,0,1,4.393.3l-4.962,4.1a1.714,1.714,0,1,0,2.185,2.64l7.124-5.9a42.753,42.753,0,0,1,6.737,2.276l-5.463,3.733a1.7,1.7,0,1,0,1.912,2.822l7.079-4.825a43.971,43.971,0,0,1,5.759,3.733c.432.341.888.637,1.32.956l-4.643,3.05a1.7,1.7,0,0,0-.478,2.367,1.715,1.715,0,0,0,2.367.478l5.963-3.938a39.486,39.486,0,0,0,7.579,3.164l-3.437,3.938a1.71,1.71,0,1,0,2.572,2.253l4.575-5.212c1.343.273,2.618.5,3.869.66l3.46.319c1.07.068,2.071.091,2.959.091h.478l3.437-.159a9.437,9.437,0,0,0,1-.114,1.712,1.712,0,1,0-.478-3.391c-.023,0-.25.023-.637.068Z" transform="translate(-50.956 -206.948)" fill="#707179" stroke="#fff" stroke-width="2"/>
      </g>
      <g id="Group_528" data-name="Group 528" transform="translate(104.7 209.484)">
        <path id="Path_1494" data-name="Path 1494" d="M614.694,395.289c4.643,0,8.422-1.5,8.422-6.145V388.1a1.707,1.707,0,1,0-3.414,0v1.047c0,2.754-2.253,2.731-5.007,2.731H604a6.883,6.883,0,0,0-6.623,4.916,14.329,14.329,0,0,1-7.443,8.74,1.7,1.7,0,1,0,1.5,3.05,17.709,17.709,0,0,0,9.2-10.811,3.49,3.49,0,0,1,3.346-2.481h10.72Z" transform="translate(-520.258 -348.082)" fill="#707179" stroke="#fff" stroke-width="2"/>
        <path id="Path_1495" data-name="Path 1495" d="M350.762,276.994H303.51a13.08,13.08,0,0,1-13.065-13.065V234.568a13.058,13.058,0,0,1,11.813-13l3.482-.068h7.42l4.53-.046h32.753a14.251,14.251,0,0,1,13.725,10.2,6.883,6.883,0,0,0,6.623,4.916h4.142l3.414.046h3.164c2.754,0,5.007-.023,5.007,2.731v.546a1.707,1.707,0,0,0,3.414,0v-.546c0-4.643-3.778-6.145-8.422-6.145h-10.72a3.469,3.469,0,0,1-3.346-2.481,17.725,17.725,0,0,0-16.98-12.632H306.128l-3.482.023a16.513,16.513,0,0,0-15.569,16.456v29.384a16.5,16.5,0,0,0,16.479,16.479c.068-.023-2.617-.023,47.3-.023a1.7,1.7,0,0,0,1.662-1.707A1.715,1.715,0,0,0,350.762,276.994Z" transform="translate(-287.077 -218.089)" fill="#707179" stroke="#fff" stroke-width="2"/>
        <path id="Path_1496" data-name="Path 1496" d="M433.651,383.129a8.653,8.653,0,0,1-7.206-5.169c-1.365-2.806-1.513-6.087-1.756-9.142-.514-6.466-2.088-13.367-7.836-17.281-2.573-1.751-5.52-3.67-11.577-1.8-.966.3-3.241,1.327-4.652,1.327a4.7,4.7,0,0,1-2.891-.888,8.057,8.057,0,0,0-4.643-1.388,7.937,7.937,0,0,0-4.643,1.388,5.15,5.15,0,0,1-5.781,0,8.057,8.057,0,0,0-4.643-1.388,7.937,7.937,0,0,0-4.643,1.388.439.439,0,0,0-.149.153,4.473,4.473,0,0,1-2.635.734,4.7,4.7,0,0,1-2.891-.887,8.057,8.057,0,0,0-4.643-1.389,8.769,8.769,0,0,0-2.95.44,3.4,3.4,0,0,0-.557.2,9.76,9.76,0,0,0-1.388.751,5.152,5.152,0,0,1-5.781,0,8.057,8.057,0,0,0-4.643-1.389,7.937,7.937,0,0,0-4.643,1.389,5.152,5.152,0,0,1-5.781,0,8.057,8.057,0,0,0-4.643-1.389,7.937,7.937,0,0,0-4.643,1.389,5.152,5.152,0,0,1-5.781,0,14.761,14.761,0,0,0-1.388-.751,3.553,3.553,0,0,0-4.985,3.255v.592l.046,4.188v5.03l.091,3.46a9.669,9.669,0,0,0,9.56,8.331h7.875a1.707,1.707,0,0,0,0-3.414h-7.875a6.231,6.231,0,0,1-6.123-5.076l-.114-3.437V352.68a.142.142,0,0,1,.2-.114,5.276,5.276,0,0,1,.979.546,8.059,8.059,0,0,0,4.643,1.388,7.939,7.939,0,0,0,4.643-1.388,5.15,5.15,0,0,1,5.781,0,8.459,8.459,0,0,0,9.287,0,5.15,5.15,0,0,1,5.781,0,8.459,8.459,0,0,0,9.287,0c.341-.2.66-.387.979-.546l.007-.01a5.724,5.724,0,0,1,2.157-.332,4.7,4.7,0,0,1,2.891.888,8.458,8.458,0,0,0,9.286,0c.341-.2.66-.387.979-.546l-.013-.029a4.578,4.578,0,0,1,1.818-.312,4.7,4.7,0,0,1,2.891.888,8.459,8.459,0,0,0,9.286,0,5.15,5.15,0,0,1,5.781,0,8.059,8.059,0,0,0,4.643,1.388,7.909,7.909,0,0,0,3.194-.611l3.564-1.167c2.938-.951,5.765.089,8.147,2,2.556,2.053,3.929,5.156,4.686,8.283,1.443,5.959.535,13.57,4.186,18.882,2.112,3.073,5.522,3.932,9.226,4.2C435.551,386.225,435.543,383.265,433.651,383.129Z" transform="translate(-309.322 -319.04)" fill="#707179" stroke="#fff" stroke-width="2"/>
        <path id="Path_1497" data-name="Path 1497" d="M430.027,396.7h16.957a9.618,9.618,0,0,0,6.764-2.772,17.7,17.7,0,0,0,6.128-8.9,3.489,3.489,0,0,1,3.346-2.481h7.557l4.832.069c3.253,0,6.691-.446,8.093-2.417a1.476,1.476,0,0,0-1.785-2.227,15.023,15.023,0,0,1-6.308,1.23c-1.205-.084-4.832-.069-4.832-.069h-7.534a6.883,6.883,0,0,0-6.623,4.916,14.33,14.33,0,0,1-7.443,8.74,1.7,1.7,0,0,0-.177.1c-.607.149-1.272.274-2.017.4h-30a1.707,1.707,0,1,0,0,3.414Z" transform="translate(-386.097 -341.486)" fill="#707179" stroke="#fff" stroke-width="2"/>
        <path id="Path_1498" data-name="Path 1498" d="M692.316,421.16c0,2.031-.1,4.317-1.685,5.8-1.423,1.338-3.475,1.89-5.212,2.692a13.01,13.01,0,0,0-7.363,9.265c-.363,1.86,2.943,2.656,3.309.786a10.2,10.2,0,0,1,2.831-5.387,16.394,16.394,0,0,1,5.334-3.037,10.239,10.239,0,0,0,4.737-3.538c1.27-1.925,1.46-4.341,1.463-6.582C695.733,419.256,692.319,419.253,692.316,421.16Z" transform="translate(-589.044 -373.835)" fill="#707179" stroke="#fff" stroke-width="2"/>
      </g>
    </g>
  </g>
</svg>
