<svg xmlns="http://www.w3.org/2000/svg" width="154" height="122" viewBox="0 0 154 122">
  <g id="Group_515" data-name="Group 515" transform="translate(-830 -416)">
    <circle id="Ellipse_20" data-name="Ellipse 20" cx="53.5" cy="53.5" r="53.5" transform="translate(830 429)" fill="#f9efe5"/>
    <g id="Group_514" data-name="Group 514" transform="translate(236)">
      <rect id="Rectangle_370" data-name="Rectangle 370" width="120" height="120" transform="translate(628 417)" fill="none"/>
      <g id="rosemary" transform="translate(628 417)">
        <path id="Path_1480" data-name="Path 1480" d="M315.554,40.46v9.553a1.758,1.758,0,0,0,3.516,0V40.46a1.758,1.758,0,1,0-3.516,0Z" transform="translate(-245.713 -29.631)" fill="#707179" stroke="#fff" stroke-width="2"/>
        <path id="Path_1481" data-name="Path 1481" d="M351.785,51.771a1.758,1.758,0,0,0,1.758-1.758V40.46a1.758,1.758,0,1,0-3.516,0v9.553A1.758,1.758,0,0,0,351.785,51.771Z" transform="translate(-272.106 -29.631)" fill="#707179" stroke="#fff" stroke-width="2"/>
        <path id="Path_1482" data-name="Path 1482" d="M388.017,50.013V40.46a1.758,1.758,0,1,0-3.516,0v9.553a1.758,1.758,0,0,0,3.516,0Z" transform="translate(-298.5 -29.631)" fill="#707179" stroke="#fff" stroke-width="2"/>
        <path id="Path_1483" data-name="Path 1483" d="M129.323,54.3a1.758,1.758,0,0,0-3.515.081l0,.12c.007.249,0,26.53,0,48.536a13.46,13.46,0,0,1-13.445,13.445H82.117a13.462,13.462,0,0,1-13.383-12.173c1.1.065,2.13.091,3.051.091l.5,0a9.942,9.942,0,0,0,9.833,8.569h8.1a1.758,1.758,0,1,0,0-3.516h-8.1a6.424,6.424,0,0,1-6.3-5.223c.579-.053.938-.1,1.03-.114a1.758,1.758,0,0,0-.489-3.482c-.019,0-.247.033-.654.07V97.727c.486.242.778.367.823.386a1.758,1.758,0,1,0,1.361-3.241A21.792,21.792,0,0,1,75.7,93.722V67.331a.141.141,0,0,1,.2-.127,8.9,8.9,0,0,1,1.016.557,8.768,8.768,0,0,0,9.582,0,5.273,5.273,0,0,1,5.949,0,8.769,8.769,0,0,0,9.583,0,5.274,5.274,0,0,1,5.949,0,8.77,8.77,0,0,0,9.583,0,8.889,8.889,0,0,1,1.016-.557.141.141,0,0,1,.2.127v35.709a6.421,6.421,0,0,1-6.414,6.414H97.242a1.758,1.758,0,1,0,0,3.516h15.127a9.941,9.941,0,0,0,9.929-9.929V67.331a3.657,3.657,0,0,0-5.13-3.346,12.053,12.053,0,0,0-1.42.766,5.275,5.275,0,0,1-5.95,0,8.769,8.769,0,0,0-9.583,0,5.273,5.273,0,0,1-5.949,0,8.768,8.768,0,0,0-9.582,0,5.273,5.273,0,0,1-5.948,0,12.077,12.077,0,0,0-1.419-.766,3.657,3.657,0,0,0-5.13,3.346V91.379a43.5,43.5,0,0,1-3.516-2.928V54.731A14.66,14.66,0,0,1,79.167,40.61a7.078,7.078,0,0,0,5.067-6.818V29.519h5.332l-1.729.895a1.758,1.758,0,0,0,1.615,3.122L93.39,31.5l-2.3,5.726a1.758,1.758,0,1,0,3.262,1.313l.684-1.7V42.5a6.136,6.136,0,0,0,12.271,0V32.139a6.1,6.1,0,0,0-.589-2.62h3.54v4.273a7.079,7.079,0,0,0,5.067,6.818,14.8,14.8,0,0,1,9,7.652,1.758,1.758,0,1,0,3.158-1.544,18.322,18.322,0,0,0-11.142-9.475,3.584,3.584,0,0,1-2.565-3.452V29.519h1.161a1.758,1.758,0,0,0,0-3.516h-1.161V8.675A8.684,8.684,0,0,0,105.095,0H99.319a1.758,1.758,0,0,0,0,3.516H105.1a5.165,5.165,0,0,1,5.159,5.159V26H84.234V8.675a5.165,5.165,0,0,1,5.159-5.159h2.9A1.758,1.758,0,1,0,92.29,0h-2.9a8.685,8.685,0,0,0-8.675,8.675V26h-1.16a1.758,1.758,0,0,0,0,3.516h1.16v4.273a3.584,3.584,0,0,1-2.565,3.452,18.265,18.265,0,0,0-13,17.488V84.813a46.527,46.527,0,0,1-2.953-3.8l1.157-10.072a1.758,1.758,0,0,0-3.493-.4l-.645,5.611a51.628,51.628,0,0,1-4.291-10.927c-.146-.543-.3-1.074-.454-1.6l3.485-7.855a1.758,1.758,0,1,0-3.213-1.426l-1.925,4.34a64.792,64.792,0,0,0-3.507-7.725l.4-9.939a1.758,1.758,0,1,0-3.513-.142l-.187,4.634a54.429,54.429,0,0,0-4.429-5.674q-.853-.951-1.665-1.77l-.542-6.894a1.758,1.758,0,0,0-3.5.275l.25,3.175a26.461,26.461,0,0,0-3.211-2.275,1.758,1.758,0,0,0-1.731,3.06A22.514,22.514,0,0,1,33.58,37.1h-3.1a1.758,1.758,0,1,0,0,3.516h7.006a51.386,51.386,0,0,1,7,8.98H37.629a1.758,1.758,0,0,0,0,3.516h8.854a61.788,61.788,0,0,1,3.709,8.638h-6.4a1.758,1.758,0,0,0,0,3.516h7.5c.083.291.165.584.244.88A54.648,54.648,0,0,0,57.206,79.73H52.334a1.758,1.758,0,0,0,0,3.516h7.139a49.616,49.616,0,0,0,5.684,6.726v10.42c-1.048-.146-2.139-.332-3.259-.569l-2.563-6.934a1.758,1.758,0,1,0-3.3,1.219l1.707,4.619a37.242,37.242,0,0,1-6.712-2.873l-2.17-8.393a1.758,1.758,0,1,0-3.4.88l1.2,4.633a50.141,50.141,0,0,0-6.34-4.023L37.8,81.331a1.758,1.758,0,0,0-3.338,1.1l1.469,4.445a47.762,47.762,0,0,0-6.79-2.222L25.751,78.1a1.758,1.758,0,0,0-3.123,1.614L24.74,83.8a31.133,31.133,0,0,0-5.508-.359,1.758,1.758,0,1,0,.18,3.511,27.8,27.8,0,0,1,4.512.3l-5.107,4.229a1.758,1.758,0,0,0,2.242,2.708L28.4,88.116a44.789,44.789,0,0,1,6.942,2.347L29.712,94.3a1.758,1.758,0,1,0,1.98,2.905l7.294-4.972a46.276,46.276,0,0,1,5.936,3.832c.449.341.9.664,1.359.978l-4.774,3.147a1.758,1.758,0,1,0,1.935,2.935l6.141-4.048a41.146,41.146,0,0,0,7.811,3.251l-3.536,4.044a1.758,1.758,0,0,0,2.646,2.314l4.7-5.379c1.375.292,2.706.51,3.975.672A16.982,16.982,0,0,0,82.117,120H112.37a16.98,16.98,0,0,0,16.961-16.961c0-.106,0,2.671-.008-48.738ZM101.167,29.519a2.623,2.623,0,0,1,2.62,2.62V42.495a2.62,2.62,0,0,1-5.24,0V29.519h2.62ZM68.672,93.113c1.275,1.029,2.465,1.88,3.516,2.57v5.178c-1.028,0-2.213-.023-3.516-.11Z" transform="translate(-17.565)" fill="#707179" stroke="#fff" stroke-width="2"/>
      </g>
    </g>
  </g>
</svg>
