<svg xmlns="http://www.w3.org/2000/svg" width="160" height="34.678" viewBox="0 0 160 34.678">
  <g id="Group_5" data-name="Group 5" transform="translate(-42.624 -27.735)">
    <g id="Group_2" data-name="Group 2" transform="translate(42.624 27.735)">
      <g id="Group_1" data-name="Group 1" transform="translate(3.935 1.365)">
        <path id="Exclusion_1" data-name="Exclusion 1" d="M7.849,16.1a1.088,1.088,0,0,1-.265-.049l-.166-.194a.634.634,0,0,1-.176-.117l-.01-.016a.492.492,0,0,0-.29-.251c-.155-.038-.232-.193-.289-.305l-.027-.053a.506.506,0,0,0-.2-.164.919.919,0,0,1-.085-.052.59.59,0,0,1-.135-.327,1.029,1.029,0,0,0-.1-.255c-.014-.028-.025-.052-.033-.07-.029-.073.078-.175.08-.176a1.819,1.819,0,0,1,.178-.208.521.521,0,0,0,.089-.311c0-.016,0-.04,0-.068-.007-.082-.017-.194.016-.213.049-.031.031-.185.031-.192l-.053-.207s.046-.2.146-.727a.436.436,0,0,0-.062-.375.466.466,0,0,0-.337-.141,4.988,4.988,0,0,0-2.589,1.244,4.465,4.465,0,0,0-.359.322L3.2,13.2a2.4,2.4,0,0,0-.31.45c-.012.078-.089.141-.236.193s-.194.306-.195.309l-.046.327-.1.117-.078.091v.279l-.087.1-.117.166c-.008.036-.049.21-.091.21-.022,0-.048.037-.075.076s-.061.089-.094.093a.172.172,0,0,1-.059.008.387.387,0,0,1-.147-.03.041.041,0,0,0-.026-.007.275.275,0,0,0-.09.026.279.279,0,0,1-.089.028.032.032,0,0,1-.019-.005l-.016-.01c-.062-.04-.208-.135-.2-.226s-.177-.273-.331-.428c-.044-.044-.084-.085-.115-.118a.507.507,0,0,1-.116-.377.157.157,0,0,1,.056-.115c.088-.059-.005-.388-.045-.529-.045-.156-.107-.369-.048-.43a1.91,1.91,0,0,1,.449-.341c.077,0,.35-.47.388-.544s.277-.142.4-.174l.035-.009a.943.943,0,0,1,.2-.016l.113,0,.105,0c.135,0,.318-.217.32-.219l.005-.006c.239-.264,2.343-2.59,2.653-2.925.062-.067.087-.116.074-.148s-.054-.042-.126-.042a2.562,2.562,0,0,0-.473.078c-.051.012-.093.021-.119.026a3.749,3.749,0,0,0-.624.26L3.814,9.5,3.8,9.5c-.047.011-.192.045-.324.071a1.665,1.665,0,0,0-.644.223c-.045.071-.319.115-.548.115-.04,0-.077,0-.11,0H2.152a.551.551,0,0,0-.265.084.422.422,0,0,1-.192.067.427.427,0,0,1-.375-.151.419.419,0,0,0-.292-.071H.888c-.058,0-.113,0-.119-.029-.014-.068-.114-.078-.2-.086l-.042,0C.434,9.7.247,9.6.247,9.54S.171,9.425.17,9.425A.979.979,0,0,1,.02,9.336C-.01,9.3,0,9.254.01,9.205A.327.327,0,0,0,.02,9.142c0-.058.1-.108.106-.108L.273,9a.319.319,0,0,0,.073-.166.743.743,0,0,1,.346-.336.943.943,0,0,0,.218-.159.751.751,0,0,1,.1-.078A1.238,1.238,0,0,0,1.216,8a2.483,2.483,0,0,1,.9-.532A11.194,11.194,0,0,0,3.386,6.84C3.4,6.827,4.8,5.485,4.863,5.412a2.5,2.5,0,0,1,.3-.274,1.4,1.4,0,0,0,.186-.311c.019-.037.036-.071.05-.1a1.269,1.269,0,0,1,.182-.2,1.846,1.846,0,0,0,.174-.183,3.025,3.025,0,0,1,.273-.279c.08-.1.778-.948.852-1a1.807,1.807,0,0,0,.208-.3c.026-.042.047-.077.061-.1a.805.805,0,0,1,.223-.209c.055-.025.106-.134.137-.2l.011-.023c.017-.031.068-.038.107-.038a.466.466,0,0,1,.074.006l.1-.057.074-.129a1.209,1.209,0,0,0,.133-.211,1.142,1.142,0,0,1,.142-.195l.086.02L8.33,1.6c.024-.007.145-.042.212-.058s.089-.076.113-.123a.411.411,0,0,1,.021-.038.282.282,0,0,1,.075-.065.286.286,0,0,0,.092-.085c.018-.041.089-.046.151-.051a.483.483,0,0,0,.072-.008c.028-.006.039-.041.051-.078s.023-.075.053-.083A.207.207,0,0,0,9.255.945.181.181,0,0,1,9.321.891c.028-.009.032-.066.035-.122,0-.02,0-.039,0-.054.016-.058.145-.073.151-.073L9.572.494V.333c0-.061.1-.1.1-.1A.946.946,0,0,0,9.794.053.111.111,0,0,1,9.9,0a.353.353,0,0,1,.1.018.627.627,0,0,1,.327.416c0,.06.062.365.062.368V.98a3.066,3.066,0,0,1-.077.326,1.86,1.86,0,0,1-.19.4,2.5,2.5,0,0,0-.107.3.157.157,0,0,1-.157.132.566.566,0,0,0-.07.015c-.1.029-.164.178-.164.179l-.119.264-.135.015-.055.12a.159.159,0,0,1-.078.089c-.056.028-.072.147-.072.148l-.093.192.033.219L8.991,3.5l-.075.2a.522.522,0,0,1-.047.216,2.173,2.173,0,0,0-.121.333c0,.084.016.366.016.621a.357.357,0,0,0,.329.368.023.023,0,0,0,.021-.011c.026-.043-.059-.2-.062-.207l.162.014.072-.075.151-.132.022,0c.042,0,.141-.01.171-.01.049,0,.139-.19.164-.27s.193-.134.195-.135h.006c.08,0,.223-.009.283-.009s1.133.309,1.178.322a.936.936,0,0,1,.147.225c.046.1.391.157.406.16l.161-.089h.122l.242.025a1.9,1.9,0,0,1,.282.063.164.164,0,0,0,.063.011.435.435,0,0,0,.134-.026h.477l.144-.03.137.014.153-.033h.283l.106-.056h.268l.148-.054.1-.036h.21s.331.013.387.013.316.022.319.022.308.085.367.1a.915.915,0,0,1,.216.115c.007.006.165.14.253.225a.345.345,0,0,0,.225.092l.013.012c.153.141.243.228.268.26a.384.384,0,0,1-.031.314c-.034.044-.141.051-.2.051h-.035s-.223.11-.288.144a.334.334,0,0,0-.089.1.452.452,0,0,1-.091.108.24.24,0,0,1-.13.023,1.436,1.436,0,0,1-.24-.023h-.011c-.071,0-.134.141-.137.147a.561.561,0,0,1-.195.1c-.061,0-.122-.075-.122-.075l-.135-.016L15.271,6.5h-.215l-.241-.022-.323.078-.212.029a3.058,3.058,0,0,1-.524-.045.531.531,0,0,0-.108-.011.807.807,0,0,0-.279.055l-.33.119-.208.043-.15-.009-.106.084L12.4,6.791l-.19-.032-.155.136-.283.073-.228.055L11.5,7.1l-.193.03s-.367.117-.631.22a1.466,1.466,0,0,0-.47.371.815.815,0,0,1-.146.135.429.429,0,0,0-.119.105.477.477,0,0,1-.15.127,1.514,1.514,0,0,0-.323.606,6.181,6.181,0,0,1-.352.672c-.062.111-.116.206-.146.263-.1.187-.638,1.669-.643,1.684s-.088.386-.088.44a.368.368,0,0,1-.131.267.055.055,0,0,0-.03.037c-.02.074.075.215.076.216a1.783,1.783,0,0,0-.046.236.9.9,0,0,1-.04.154,2.127,2.127,0,0,0-.1.42,4.875,4.875,0,0,0,.058.812l0,.008a.661.661,0,0,1,.028.392,1.971,1.971,0,0,0-.053.372,1.089,1.089,0,0,1-.022.178c-.015.046.079.185.1.216a.293.293,0,0,1,.049.234c-.013.042-.027.1-.041.159a1.843,1.843,0,0,1-.05.185.761.761,0,0,0-.032.167.734.734,0,0,1-.058.248C7.943,16.084,7.906,16.1,7.849,16.1ZM6.625,9.09a.07.07,0,0,0-.025,0c-.027.012-.055.023-.083.034a.629.629,0,0,0-.231.131.987.987,0,0,0-.089.112,1.056,1.056,0,0,1-.154.183,1.971,1.971,0,0,0-.236.3c-.031.044-.231.269-.253.295-.005,0-.449.419-.51.488s-.27.294-.272.3a.268.268,0,0,0-.088.183.231.231,0,0,0,.106.172c.137.109.208.148.273.148a.327.327,0,0,0,.1-.024l.006,0a1.3,1.3,0,0,1,.3-.063l.118-.069a.031.031,0,0,1,0-.03c.008-.015.037-.034.125-.034a.866.866,0,0,0,.538-.3,1.28,1.28,0,0,0,.223-.489,1.109,1.109,0,0,1,.193-.438c.056-.028.144-.246.148-.255s.035-.176-.015-.249a1,1,0,0,1-.075-.221C6.727,9.252,6.705,9.09,6.625,9.09ZM5.457,6.448a.083.083,0,0,1,.063.025.126.126,0,0,0,.088.025.571.571,0,0,0,.148-.025L5.986,6.4s.026,0,.057,0a.235.235,0,0,0,.135-.029.328.328,0,0,1,.087-.048c.066-.029.141-.062.141-.118a1.987,1.987,0,0,1,.087-.356.418.418,0,0,1,.075-.188l.02-.013c.064-.041.214-.137.214-.178a.787.787,0,0,0-.145-.384.526.526,0,0,0-.311-.118.08.08,0,0,0-.046.01l-.469.282-.849.886s-.116.178-.074.272A.1.1,0,0,0,5,6.473a2.151,2.151,0,0,0,.25.016c.061,0,.1,0,.1,0A.252.252,0,0,1,5.457,6.448Z" transform="translate(0)" fill="#5e5e5e"/>
        <path id="Path_4" data-name="Path 4" d="M54.331,38.929s-.1.234.117.246.387.019.461.019a.9.9,0,0,0,.251-.049c.111-.026.122-.058.394.018s.356.031.629.116.641.224.641.224l.223.042.118.088.2.06a1.321,1.321,0,0,1,.222.06c.061.029.241.085.241.085s.21.163.267.194.221.168.279.168.259.086.259.129.256.174.256.174a.468.468,0,0,1,.208.078c.06.057.075.161.181.2s.21.181.279.208.211.22.255.236a1.725,1.725,0,0,1,.225.132l.195.121a.461.461,0,0,0,.181.071c.1.016.1.06.151.075s.251.031.434.059a2.579,2.579,0,0,0,.435.045h.339s.434.088.492.088a4.661,4.661,0,0,1,.495.059,3.392,3.392,0,0,0,.405,0l.251-.031s.211-.044.241-.088-.07-.06.148-.089.237-.118.237-.118a1.04,1.04,0,0,1,.135-.1.231.231,0,0,0,.122-.174c0-.063-.076-.164-.227-.224a1.553,1.553,0,0,0-.506-.119,1.068,1.068,0,0,1-.448-.1,1.123,1.123,0,0,0-.478-.164,2.736,2.736,0,0,1-.508-.111,1.041,1.041,0,0,0-.4-.094,1.184,1.184,0,0,1-.39-.071l-.135-.137-.221-.043a2.4,2.4,0,0,1-.348-.088c-.046-.028-.36-.148-.36-.148s-.206.072-.248,0a2.423,2.423,0,0,0-.529-.238s-.179-.084-.219-.174-.524-.178-.524-.223-.285-.144-.285-.144l-.27-.075-.118-.058-.21-.019-.211-.029-.283-.06-.2-.061a1.073,1.073,0,0,1-.311-.012,1.779,1.779,0,0,0-.195-.089l-.151-.044h-.249a3.409,3.409,0,0,1-.436-.054,1.941,1.941,0,0,0-.45-.045c-.077,0-.391.084-.446.084A1.42,1.42,0,0,0,54.331,38.929Z" transform="translate(-45.011 -27.655)" fill="#5e5e5e"/>
      </g>
      <path id="Exclusion_2" data-name="Exclusion 2" d="M19.151,34.646h0l-.434-.144-.333-.036-.285.107-.4-.037a1.4,1.4,0,0,0-.221-.015,2.387,2.387,0,0,0-.266.015h-.279l-.308-.07h-.188l-.212.036-.274-.072-.675.037-.429-.074-.312-.037.061-.289-.52.041-.278.04-.274.065a.854.854,0,0,1-.248-.037.251.251,0,0,0-.062-.005c-.2,0-.737.07-.8.078h-.459c-.09,0-.455-.066-.5-.073h0a1.571,1.571,0,0,0-.553.18s-.367-.035-.46-.035a1.159,1.159,0,0,1-.174-.03,1.767,1.767,0,0,0-.315-.05.219.219,0,0,0-.063.008,3.575,3.575,0,0,0-.369.144l-.246.038-.618-.038-.3-.037-.219-.072-.25.109-.4.11-.127-.181H6.886c-.076.055-.069.082-.065.1s0,.007,0,.009-.023.005-.088.005a4.255,4.255,0,0,1-.461-.038s-.075-.114-.157-.114a.088.088,0,0,0-.03.005.321.321,0,0,1-.119.017,1.276,1.276,0,0,1-.187-.017l-.278.038-.37.035-.493.111a1.992,1.992,0,0,1-.3.036c-.122,0-.389-.034-.4-.036a.41.41,0,0,0-.178-.033,1.105,1.105,0,0,0-.249.033s-.127.036-.216.07a1.873,1.873,0,0,1-.4.037l-.584-.144a1.4,1.4,0,0,0-.369-.181.4.4,0,0,1-.158-.07A.439.439,0,0,0,1.6,34.1a.072.072,0,0,0-.03.006.144.144,0,0,1-.057.011.512.512,0,0,1-.177-.049c-.034-.013-.068-.027-.1-.037a5.324,5.324,0,0,1-.707-.722S.491,33.132.4,33.094s-.242-.251-.244-.253l.12-.252a.155.155,0,0,0,.056.016.028.028,0,0,0,.027-.014c.017-.032-.022-.118-.116-.255a2.49,2.49,0,0,1-.18-1.193,1.769,1.769,0,0,0,0-.43l-.033-.328v-.325l.093-.216-.093-.429L.156,29.2l.12-.292a2.17,2.17,0,0,1-.033-.574l.065-.758-.065-.325-.025-.289-.033-.285-.091-.29L0,26.093a2.217,2.217,0,0,0,.063-.541.609.609,0,0,1-.033-.285,1.162,1.162,0,0,1,.125-.255A1.638,1.638,0,0,0,.432,24.5l.06-.363-.028-.464.062-.293-.095-.469-.033-.4L.371,22.2.4,21.943l.186-.83.033-.253.056-.76a2.528,2.528,0,0,1,0-.5v-.179l-.056-.757a1.158,1.158,0,0,0,.333-.471l.161-.9,0-.009c-.043-.17-.075-.3-.092-.385a1.687,1.687,0,0,1,.03-.469l.123-.691c-.018-.013-.058-.056-.058-.175v-.292c-.065-.179-.341-1.076-.343-1.084,0-.2-.024-.488-.025-.5-.018-.056-.074-.236-.1-.328a.7.7,0,0,1-.013-.087A.2.2,0,0,0,.554,13.1.725.725,0,0,1,.4,12.811c0-.139.065-1.07.065-1.079l-.126-.4.033-.328.029-.8A1.992,1.992,0,0,0,.465,9.67l.062-.288.028-.217L.432,8.591.4,8.3a.97.97,0,0,1,0-.432l.186-.075a.214.214,0,0,1-.012-.029C.555,7.717.517,7.619.492,7.539c-.027-.1-.06-.459-.06-.463l.06-.255L.371,6.1.338,5.846l.033-.289.094-.213.028-.253L.4,4.62a2.7,2.7,0,0,1-.091-.542L.218,3.826V3.354l.058-.289.095-.357.121-.363.181-.538h.343l.274-.4L2.059.977,2.367.721l.369-.1L3.015.54,3.32.4,3.595.363,4,.4l.8.142.771.111L6,.576h.425L6.67.684l.216.037L7.07.757,7.286.684l.549.073.247.149.4.071h.34a1.8,1.8,0,0,1,.37-.111L9.467.757l.369.109.858-.038.312.038.487-.109.248-.073.309.037.642-.069h.522l.37.033.246-.033.188-.075h.77l.208.042.5-.077.7-.142.283-.036h.364a.279.279,0,0,0,.152.029,1.686,1.686,0,0,0,.275-.029l.186-.04.217-.1A.272.272,0,0,1,17.77.2.654.654,0,0,1,18.1.323l.619-.1.434.032a.657.657,0,0,0,.3-.071l.215-.142L19.856,0H20.1l.3.073.74.106.214.071.369.072h.3L22.4.287l.214.18h.4l.212.041.525.067c.3.18.551.329.553.33l.245.141A.31.31,0,0,0,24.8,1.3l.091.249s.1.259.124.363.334.752.337.758c.031.176.062.5.062.5l-.123.221.093.256-.032.534-.095.287-.027.907L25.2,5.7l-.059.33.059.362-.059.4v.292l-.063.43-.031.608v.549l-.033.318-.062.116-.03.282.03.253.125.255-.063.216-.092.179v.507a.585.585,0,0,0,.124.329l.031.357c-.03.106-.062.313-.063.322l-.062.253c.009.05.018.095.025.135a1.439,1.439,0,0,1,.037.268.29.29,0,0,0,.036.122.213.213,0,0,1,.027.164,3.467,3.467,0,0,0-.063.359l-.062.216a1.635,1.635,0,0,1,.062.325V14.5c0,.11-.029.433-.03.436l.127.324v.326l.029.288-.063.184.122.213s-.088.183-.06.258a.048.048,0,0,0,.027.029.359.359,0,0,0,.084.02c.069.011.134.022.134.125,0,.143-.031.6-.032.608l-.061.3s.061.318.093.432.091.422.094.435l-.03.324v.253a.752.752,0,0,1,.155.466l.091.286.03.328a2.36,2.36,0,0,1,.093.508l-.03.285-.063.217v.219l-.092.214.155.323.089.289-.059.179-.062.361.033.289-.063.47s-.03.289-.03.4a.442.442,0,0,0,.038.152.665.665,0,0,1,.054.246v.4l.03.287.059.719-.089.255-.093.254.06.357.033.327s.03.223.03.325-.029.36-.03.363-.092.177-.033.287a.39.39,0,0,1,.062.358,6.182,6.182,0,0,0-.03,1.049.312.312,0,0,1,.06.181v.433s-.042.153,0,.2a.039.039,0,0,0,.033.016c.093,0,.185.18.185.181l-.123.251-.062.362-.059.287v.181l.031.287-.06.365a1.632,1.632,0,0,0-.093.358v.361l-.029.216-.124.216-.031.251-.158.293-.186.255-.181.249c-.212.177-.4.324-.4.325a.852.852,0,0,1-.236.048.18.18,0,0,1-.07-.011,1.617,1.617,0,0,0-.369-.037.764.764,0,0,0-.366-.185.168.168,0,0,0-.036,0c-.143.035-.262.07-.275.074l-1.443.184a1.394,1.394,0,0,0-.55-.147,1.126,1.126,0,0,0-.278-.074,1.039,1.039,0,0,0-.307.038,1.963,1.963,0,0,1-.429.037h-.091a.67.67,0,0,0-.309.07l-.672.109Zm-1.134-.938h0l.3.038h.477l.213.036.416-.036.389-.149s.268.019.5.019A1.43,1.43,0,0,0,20.6,33.6l.3-.065.178-.149a2.174,2.174,0,0,0,.392-.04.722.722,0,0,1,.1-.017,1.27,1.27,0,0,0,.144-.017l.178-.033a1.2,1.2,0,0,1,.21-.019.772.772,0,0,1,.18.019l.177-.112.453.037a2.05,2.05,0,0,1,.295-.178h.418l.155-.324.089-.221.3-.719c.006-.013.15-.326.21-.435s.175-.324.176-.326v-.36l-.056-.434L24.461,30l.178-.181.09-.257L24.7,29.34l.032-.289-.032-.217a.741.741,0,0,1-.207-.245.646.646,0,0,1-.015-.166.646.646,0,0,0-.015-.166.509.509,0,0,1,.011-.222.784.784,0,0,0,.019-.142v-.32l.178-.615.06-.359.061-.287.03-.4-.091-.223a1.053,1.053,0,0,0-.21-.473l-.21-.174.121-.255.116-.323.065-.4.028-.392-.061-.22-.032-.506a.543.543,0,0,0-.293-.217c-.035-.007-.054-.019-.056-.035-.006-.055.2-.144.2-.145l.147-.721s.243-.365.122-.508a.476.476,0,0,1-.058-.352.516.516,0,0,0,0-.152,2.421,2.421,0,0,1-.034-.366,3.137,3.137,0,0,0-.031-.358,6.4,6.4,0,0,1,.065-.861l-.334-.289-.117-.617a1.587,1.587,0,0,0,.061-.469,1.462,1.462,0,0,1,.084-.489l0-.014c.028-.107-.147-.357-.149-.36a3.144,3.144,0,0,1-.239-.4.573.573,0,0,1,0-.4c.032-.106.122-.644.123-.649l.149-.978L24.4,14l-.062-.718-.116-.65-.093-.65-.025-.324.118-.47c-.006,0-.269-.035-.362-.035a.018.018,0,0,1-.014-.008c-.054-.069.075-.606.077-.611a8.913,8.913,0,0,0-.122-.9l.213-.433-.242-.358-.122-.687.1-.829L23.831,7l.091-1.08L23.8,4.659V3.972l.122-.289s-.032-.539-.062-.65-.148-.433-.149-.436-.325-.319-.48-.469a4.322,4.322,0,0,0-.511-.362l-.509-.033-.36.074-.569-.042L20.6,1.623l-.155.184-.657.106L19.216,1.7s-.333-.148-.422-.179a.2.2,0,0,0-.077-.012,1.123,1.123,0,0,0-.256.044l-.78.035h-.265l-.6.148h-.63l-.69.109-.091-.257h-.332l-.807-.035L13.88,1.3l-.364.249-.6-.109h-.6l-.476.109-.364.072-.691.143H9.624l-.48.148L8.9,1.95l-.773.035-.033-.219-.778-.1c-.117.009-.492.036-.571.036s-.176.172-.179.179l-.779.144-.541-.108-.451.108L4.465,1.7l-.3.179H3.688l-.422.036-.392.071a1.212,1.212,0,0,0-.266.543c0,.215-.382.576-.386.58l-.183.177-.094.251a3.331,3.331,0,0,1-.026.436l-.058.212.085.475-.117.286-.088.18v.29l.088.248L1.8,5.885a3.133,3.133,0,0,1,.089.5L1.944,7.4l.036.433-.036.213v.323l-.026.474-.033.432-.089.29.031.177.033.289v.328l.085.356-.068.146-.049.325-.055.544.024.284.121.292v.362l.026.25.094.4.059.219a2.066,2.066,0,0,1-.059.5c-.006.03-.155.729-.211.865l-.055.22-.033.253v.355l-.034.223.066.322L1.8,16.5l-.024.215.024.323-.024.469.088,1.227.025.432.059.219a5.123,5.123,0,0,1-.026.54c0,.015-.058.367-.058.469l-.033.364a2.539,2.539,0,0,1-.031.4l.031.255.058.287a.834.834,0,0,1-.146.392,1.343,1.343,0,0,0,0,.4.622.622,0,0,1-.063.431v.834a.708.708,0,0,0,.12.427l.121.8a.5.5,0,0,0,.12.325.392.392,0,0,1-.094.325l-.2.137-.034.3v.287l-.057.363-.032.177a2.817,2.817,0,0,0,.032.433c.006.032.011.065.016.1a.738.738,0,0,0,.107.333l-.155.94-.089.249a.561.561,0,0,0,.034.3.648.648,0,0,1-.01.367c-.008.044-.017.089-.024.137a2.862,2.862,0,0,0,0,.507,1.284,1.284,0,0,0,.089.251l-.055.324.024.22-.087.214.327.183s.334.615.423.756l.176.179s.244.289.244.433l.3.218L3.3,33.2l.062.142a.814.814,0,0,0,.274.083.124.124,0,0,0,.056-.011,2.532,2.532,0,0,1,.448-.033l.3.08a.451.451,0,0,1,.24.069.1.1,0,0,0,.056.018.263.263,0,0,0,.155-.087.746.746,0,0,1,.269-.055.513.513,0,0,1,.091.008,1.253,1.253,0,0,0,.36-.072A1.051,1.051,0,0,1,6,33.2l.479-.178.05.037c.079.06.241.181.372.283h0a1.81,1.81,0,0,0,.2.011A.863.863,0,0,0,7.4,33.31a1.938,1.938,0,0,1,.23-.015,1.043,1.043,0,0,1,.186.014l.274-.075a1.082,1.082,0,0,0,.183.019.289.289,0,0,0,.119-.019.082.082,0,0,1,.029,0,.484.484,0,0,1,.36.3l.236.108.272.031.269.075h.392a4.023,4.023,0,0,1,.472-.048.28.28,0,0,1,.094.011.078.078,0,0,0,.031.005,1.382,1.382,0,0,0,.392-.149h.418l.333.033a.658.658,0,0,1,.079,0c.078,0,.178.014.215.078h.571a.729.729,0,0,1,.218-.044.224.224,0,0,1,.083.013,1.033,1.033,0,0,0,.244.031l.3.075.451-.075.385.038a2.73,2.73,0,0,1,.472-.078.181.181,0,0,1,.07.01.685.685,0,0,0,.158.012,2.082,2.082,0,0,0,.529-.055,1.721,1.721,0,0,1,.511.073l.3.075.422-.038a4.961,4.961,0,0,1,.629.038Z" fill="#5e5e5e"/>
      <path id="Path_7" data-name="Path 7" d="M45.744,49.626c-.031.091-.093.223-.049.309s.211.225.2.292.117.139.117.139l.132.106.029.159s.016.093.026.166a.586.586,0,0,0,.122.193.423.423,0,0,0,.179.135c.07.028.177.044.223.106s.148.042.239.057a.463.463,0,0,1,.27.076.642.642,0,0,0,.368.119c.072-.017.3.083.311.148s.177.237.177.3a1.987,1.987,0,0,0,.032.225s-.208.365-.241.453-.055.434-.055.434a1.019,1.019,0,0,1,.014.253c-.014.058-.1.3-.1.3l-.044.293-.029.131s.014.165-.031.221-.162.3-.162.3l-.117.3s-.109.091-.062.177.062.283.151.373.162.285.294.332.3.1.311.186.27.214.27.289a.181.181,0,0,0,.178.19.422.422,0,0,0,.341-.327,3.969,3.969,0,0,1,.132-.669,2.418,2.418,0,0,1,.283-.622,1.132,1.132,0,0,0,.19-.524c.019-.055.059-.262.059-.262l.151-.272s.166-.177.239-.237l.179-.133a1.283,1.283,0,0,0,.148-.223,2.121,2.121,0,0,0,.1-.3,5.138,5.138,0,0,0,.058-.682,2.116,2.116,0,0,1,.091-.787c.088-.181.265-.553.33-.652a2.871,2.871,0,0,0,.128-.416l.164-.091s.046-.135.079-.211.157-.163.157-.163.288-.593.347-.7a2.342,2.342,0,0,0,.237-.523c0-.085.222-.589-.33,0s-.356.448-.4.567-.118.343-.2.381-.106.208-.168.257-.131.255-.193.323-.178.327-.268.365a.575.575,0,0,0-.254.176c-.009.044-.323.3-.357.072a1.143,1.143,0,0,1,.049-.648c.086-.125.014-.348.086-.45a1.426,1.426,0,0,0,.131-.4l-.071-.179s-.117-.162-.234-.113a3.611,3.611,0,0,0-.376.174s-.1.074-.1.162a.28.28,0,0,1-.135.239.242.242,0,0,0-.119.1s-.1.148-.132.207-.043.257-.178.266a1.655,1.655,0,0,1-.831.017,4.576,4.576,0,0,1-.878-.374,1.3,1.3,0,0,0-.3-.072.349.349,0,0,0-.208-.076.486.486,0,0,1-.188-.012l-.239-.074S45.789,49.508,45.744,49.626Z" transform="translate(-42.219 -25.008)" fill="#5e5e5e"/>
      <path id="Exclusion_3" data-name="Exclusion 3" d="M.128,9.143c-.07,0-.112-.022-.124-.064-.057-.2.51-.766.584-.813l.086-.058a2.47,2.47,0,0,0,.554-.437.4.4,0,0,1,.177-.179l.01-.011c.2-.217.364-.395.465-.5A2.249,2.249,0,0,0,2.2,6.507a1.736,1.736,0,0,1,.189-.356.7.7,0,0,0,.147-.3,1.169,1.169,0,0,0,.067-.249,1.2,1.2,0,0,0-.009-.16A.521.521,0,0,1,2.6,5.214a.078.078,0,0,1,.045-.036c.012,0,.023-.009.027-.021s0-.063-.042-.145a.649.649,0,0,1,.016-.458c.159-.081.051-.464-.055-.687a3.476,3.476,0,0,1-.151-.895A2.705,2.705,0,0,1,4.3.053,2.294,2.294,0,0,1,4.772,0a1.48,1.48,0,0,1,1.39.884,1.375,1.375,0,0,1,.178.789,2.906,2.906,0,0,1-.221.261s.021.223.038.279-.15.132-.157.136a.35.35,0,0,0,.048.245.064.064,0,0,1,.018.049c0,.05-.064.1-.118.149-.02.017-.038.033-.054.049a.543.543,0,0,1-.216.151c-.063.021-.183.251-.255.389-.025.047-.044.084-.055.1-.035.07-.08.214-.034.242a.717.717,0,0,0,.22.04.213.213,0,0,0,.129-.032.05.05,0,0,1,.032-.011c.085,0,.215.183.258.243l.007.01a.482.482,0,0,0,.106.085.494.494,0,0,1,.175.161.361.361,0,0,1-.026.243.242.242,0,0,1-.1.135.8.8,0,0,0-.247.425c-.014.106-.175.17-.176.17s-.056,0-.116,0c-.036,0-.066,0-.091,0a.861.861,0,0,0-.38.213,1.07,1.07,0,0,1-.559.225c-.039,0-.052.058-.066.114s-.034.138-.095.147c-.222.041-.6.463-.733.717,0,.007-.455.659-.411.9a.1.1,0,0,0,.04.066.484.484,0,0,0,.282.1.822.822,0,0,0,.184-.028l.024-.005c.149-.042,1.2-.378,1.207-.381.191-.056.353-.106.471-.143.091-.028.155-.048.193-.059a3.107,3.107,0,0,0,.773-.259,1.2,1.2,0,0,1,.424-.1.966.966,0,0,0,.36-.086,4.4,4.4,0,0,1,.558-.283,1.216,1.216,0,0,0,.436-.082,1.278,1.278,0,0,1,.421-.12c.082-.015.175-.031.28-.055L9.242,6l.329-.125.213.039.248-.129.263-.054a2.163,2.163,0,0,0,.325.027,1.218,1.218,0,0,0,.166-.01,1.823,1.823,0,0,1,.272-.017c.118,0,.239.006.336.012H11.4l.1,0,.108.012c.094.01.168.019.363.03l.043,0a6.763,6.763,0,0,1,1.226.176.307.307,0,0,1,.206.218.175.175,0,0,1-.085.164,1.359,1.359,0,0,1-.541.07c-.2,0-.377-.012-.378-.012a1.969,1.969,0,0,0-.338.023.427.427,0,0,1-.1.008c-.082,0-.179-.008-.18-.008-.049.007-.3.041-.4.041h-.026c-.08,0-.362,0-.365,0l-.421.043a2.4,2.4,0,0,1-.29.022l-.073,0h-.02a1.267,1.267,0,0,0-.391.114H9.818c-.231,0-.365,0-.4-.007a3.311,3.311,0,0,0-.369.068s-.26.081-.366.1a.66.66,0,0,0-.219.081l-.38-.006c-.025,0-.245.031-.407.042a.248.248,0,0,0-.222.155l-.28.072s-.285.078-.391.095-.329.018-.331.018l-.262.031-.473.087L5.4,7.4l-.276.135c-.072.009-.248.029-.441.044a2.94,2.94,0,0,0-.7.332,1.983,1.983,0,0,1-.4.2h-.02a4.718,4.718,0,0,0-.661.1l-.258.049c-.256.048-.546.1-.7.146a2.754,2.754,0,0,0-.8.4c-.212.174-.212.174-.892.316A.6.6,0,0,1,.128,9.143Zm4.635-6.81a.369.369,0,0,0-.3.205l-.074.115a1.764,1.764,0,0,0-.272.517,1.627,1.627,0,0,0-.014.236.657.657,0,0,1-.023.226.264.264,0,0,0,.008.194.164.164,0,0,0,.09.1.1.1,0,0,0,.031,0,.762.762,0,0,0,.291-.12c.03-.017.056-.032.075-.041.041-.018.04-.03.039-.06a.366.366,0,0,1,.046-.193,3.278,3.278,0,0,0,.169-.4l0-.011c.016-.041.031-.073.043-.1a.538.538,0,0,0,.057-.184c0-.018.005-.041.009-.067.017-.118.043-.3-.027-.377a.128.128,0,0,0-.1-.042l-.029,0Z" transform="translate(9.315 17.316)" fill="#5e5e5e"/>
      <path id="Exclusion_4" data-name="Exclusion 4" d="M3.059,8.2H2.528a.608.608,0,0,1-.306-.081,1.319,1.319,0,0,0-.37-.1c-.005,0-.52-.164-.605-.179a2.145,2.145,0,0,1-.295-.081L.887,7.74c-.068-.022-.3-.145-.3-.195,0-.032-.182-.072-.278-.089a1.16,1.16,0,0,1-.2-.315.789.789,0,0,1-.1-.356A.364.364,0,0,1,.189,6.6.551.551,0,0,1,.35,6.577c.05,0,.09,0,.091,0l.242.029.274.03.273-.014.187.058h.162l.044-.149.167-.086h.1a.326.326,0,0,1,.1-.166.46.46,0,0,1,.213-.051l.075-.008c.117-.017.509-.045.577-.045a1.292,1.292,0,0,0,.4-.134.288.288,0,0,1,.153-.03l.068,0h.057a.172.172,0,0,0,.12-.076.218.218,0,0,1,.066-.057.548.548,0,0,1,.192-.02c.071,0,.134,0,.136,0h.19l.175-.074A1.061,1.061,0,0,1,4.6,5.686c.063-.011.293-.029.349-.029a1.126,1.126,0,0,0,.169-.024.965.965,0,0,0,.133-.142.447.447,0,0,1,.259-.07c.051,0,.1-.064.154-.127a.551.551,0,0,1,.105-.11.237.237,0,0,1,.149-.045l.046,0H6c.036,0,.062-.045.086-.089a.353.353,0,0,1,.044-.066l.02-.023A.2.2,0,0,1,6.3,4.872c.081,0,.1-.136.114-.235l0-.016a1.246,1.246,0,0,1,.094-.256c.068-.158.169-.4.321-.8a.872.872,0,0,0-.1-.838.984.984,0,0,0-.649-.438,2.245,2.245,0,0,1-.345-.019l-.1-.012q-.038,0-.073,0a.593.593,0,0,0-.3.078.7.7,0,0,0-.154.118l-.017.017c-.045.041-.222.042-.227.042s0,0,0,0a.449.449,0,0,1-.149.206.38.38,0,0,0-.186.119,1.276,1.276,0,0,1-.146.154c-.068.068-.166.164-.3.3a1.568,1.568,0,0,0-.113,1.335,1.981,1.981,0,0,0,.348.387,1.838,1.838,0,0,1-.938-.89A.942.942,0,0,1,3.4,3.387a2.254,2.254,0,0,0,.248-.712.1.1,0,0,0-.117-.122.689.689,0,0,0-.132.018l-.009,0a.611.611,0,0,1-.109.017.087.087,0,0,1-.026,0l-.016,0a.748.748,0,0,0-.269.152.9.9,0,0,1-.183.115,1.05,1.05,0,0,0-.223.158.767.767,0,0,1-.234.158l-.009,0a.029.029,0,0,0-.015,0c-.062,0-.182.146-.187.152l-.068.164-.25.151a.969.969,0,0,1-.2.128c-.054.015-.068.217-.068.225l-.191.013a.769.769,0,0,1-.213.135.2.2,0,0,0-.059.016.364.364,0,0,1-.125.028.2.2,0,0,1-.042,0H.9a.042.042,0,0,0-.032.012C.84,4.2.84,4.261.84,4.327A.592.592,0,0,1,.825,4.5c-.031.1-.112.109-.214.115-.028,0-.058,0-.09.007l-.041,0c-.1,0-.117-.039-.143-.109a.375.375,0,0,0-.119-.178A1.275,1.275,0,0,1,.005,4.1c-.028-.061.069-.165.073-.169h0a.093.093,0,0,1,0-.013c0-.033-.013-.11-.013-.148a.553.553,0,0,1,.17-.342,4.269,4.269,0,0,0,.311-.3c.143-.145.3-.309.426-.411.187-.157.78-.863,1.034-1.165l.118-.14.124-.047a.374.374,0,0,0,.082-.159c0-.059.053-.118.216-.24a.24.24,0,0,1,.14-.057A.108.108,0,0,1,2.77.949a.094.094,0,0,1,.019.079l-.006.026c-.09.391-.184.619-.279.677a.333.333,0,0,0-.148.274.116.116,0,0,0,.013.1.242.242,0,0,0,.2.059A1.549,1.549,0,0,0,2.9,2.121,1.584,1.584,0,0,1,3.073,2.1a1.564,1.564,0,0,0,.186-.031c.078-.039.462-.228.563-.255s1.43-.545,1.486-.567c0,0,.364-.16.416-.174S6.877.815,6.976.815A1.136,1.136,0,0,0,7.309.7l.246-.03L7.738.635,8,.611A.45.45,0,0,0,8.19.5L8.506.493l.01-.006c.2-.11.257-.141.273-.147.032-.013.261-.052.446-.083l.2-.036c.085-.013.6-.144.607-.146.026,0,.152-.009.258-.009a.72.72,0,0,1,.141.009h.021A1.674,1.674,0,0,0,10.808,0a5.075,5.075,0,0,1,.508.027.433.433,0,0,1,.3.165c.045.029.261.17.274.222S12,.5,12.084.545c.037.018.071.034.093.048.074.042.229.161.23.162l.177.194a3.031,3.031,0,0,1,.456.269.724.724,0,0,0,.084.066,2.281,2.281,0,0,1,.735.792c.226.461-.033.665-.155.732-.055.03-.285.234-.287.236l-.232.164-.044.236-.036.007c-.053.009-.165.029-.235.038a1.414,1.414,0,0,0-.263.088,1.038,1.038,0,0,1-.187.119c-.039.018-.344.123-.347.124l-.387.174s-.248.046-.575.135a8.843,8.843,0,0,0-1.3.712c-.189.115-.352.214-.456.272a1.036,1.036,0,0,0-.465.41,2.851,2.851,0,0,0-.343.3.628.628,0,0,1-.4.225c-.071,0-.18.133-.275.25a.855.855,0,0,1-.143.154c-.082.041-.38.226-.392.234l-.212.074-.191.18-.243.042-.2.137a1.363,1.363,0,0,0-.316.149c-.054.064-.316.085-.319.086l0,0a2.343,2.343,0,0,1-.338.265.9.9,0,0,1-.228.028,2.605,2.605,0,0,1-.416.135.224.224,0,0,0-.109.042.647.647,0,0,1-.181.082c-.195.055-.422.135-.619.206A6.629,6.629,0,0,1,3.059,8.2ZM9.478.611c-.264,0-.57.019-.757.037a.8.8,0,0,0-.657.6c-.037.135-.028.246.022.283a8.6,8.6,0,0,1,.736.8,2.74,2.74,0,0,1-.014,1.512.707.707,0,0,0,.048.589.356.356,0,0,0,.272.143h.02a1.3,1.3,0,0,0,.536-.225.973.973,0,0,1,.136-.075,4.249,4.249,0,0,0,.689-.473,3.618,3.618,0,0,1,.756-.376c.054-.007.136-.112.224-.224s.186-.237.252-.25c.091-.019.075-.186.061-.32a.752.752,0,0,1-.007-.135.386.386,0,0,0-.014-.149.37.37,0,0,1-.014-.139,1.01,1.01,0,0,0-.04-.5l-.012-.018a.97.97,0,0,0-.45-.4,1.96,1.96,0,0,1-.532-.32c-.054-.04-.1-.075-.137-.1A2.206,2.206,0,0,0,9.961.648,2.255,2.255,0,0,0,9.478.611Z" transform="translate(8.508 25.569)" fill="#5e5e5e"/>
    </g>
    <g id="Group_3" data-name="Group 3" transform="translate(75.314 29.566)">
      <path id="Path_12" data-name="Path 12" d="M80.119,36.058a16.962,16.962,0,0,0,6.061,5.422,6.266,6.266,0,0,0-.909,1.037,19.25,19.25,0,0,1-5.854-5.6v6.956H78.173V36.967a18.235,18.235,0,0,1-5.806,5.552,5.886,5.886,0,0,0-.878-1.022,16.277,16.277,0,0,0,6-5.438H71.841V34.877h6.332V31.847c-1.787.223-3.622.4-5.327.511a4.407,4.407,0,0,0-.335-1.1,61.2,61.2,0,0,0,11.022-1.595l.989,1.036a47.55,47.55,0,0,1-5.1,1.006v3.173h6.412v1.181Z" transform="translate(-71.489 -29.311)" fill="#5e5e5e"/>
      <path id="Path_13" data-name="Path 13" d="M90.669,38.713c-1.61.814-3.35,1.659-4.689,2.3l-.462-1.164c.606-.256,1.354-.574,2.169-.941V33.913H85.82V32.8h1.866V29.479h1.1V32.8H90.51v1.117H88.786V38.4l1.627-.735Zm2.967-1.834A9.854,9.854,0,0,1,92.949,38h6.86a4.7,4.7,0,0,1-.049.479c-.239,3.285-.495,4.53-.941,4.992a1.293,1.293,0,0,1-.892.4c-.351.015-.941.015-1.58-.017a2.023,2.023,0,0,0-.271-.957c.589.048,1.116.065,1.356.065.223,0,.366-.017.478-.176.272-.287.511-1.292.718-3.8H97.383a11.076,11.076,0,0,1-3.254,4.993,3.552,3.552,0,0,0-.845-.685,9.378,9.378,0,0,0,3.11-4.308H94.848a12.049,12.049,0,0,1-3.875,4.308,3.138,3.138,0,0,0-.781-.735,10.518,10.518,0,0,0,3.589-3.573h-1.61A10.972,10.972,0,0,1,90.1,40.8a5.3,5.3,0,0,0-.814-.735A9.046,9.046,0,0,0,92.44,36.88H90.207V35.874h9.985V36.88Zm5.424-1.9h-7.29V29.829h7.29Zm-1.1-4.259h-5.1v1.259h5.1Zm0,2.089h-5.1v1.276h5.1Z" transform="translate(-69.63 -29.335)" fill="#5e5e5e"/>
      <path id="Path_14" data-name="Path 14" d="M113.516,30.014V43.891h-1.165v-.734H101.41v.734h-1.132V30.014Zm-1.165,12.075V31.1H101.41v10.99Zm-5.407-2.425c-1.659.318-3.349.653-4.657.892l-.16-.892c1.212-.193,2.983-.511,4.769-.83Zm3.956-4.641a12.386,12.386,0,0,1-1.77,3.907c.335.845.766,1.387,1.291,1.468.224.063.383-.623.495-1.644a2.961,2.961,0,0,0,.767.527c-.208,1.738-.75,2.377-1.58,2.059a2.568,2.568,0,0,1-1.659-1.548,10.031,10.031,0,0,1-2.105,1.835,6.243,6.243,0,0,0-.7-.75,8.407,8.407,0,0,0,2.408-2.089,22.784,22.784,0,0,1-.878-4.706h-4.88v-.894h4.8c-.048-.558-.1-1.117-.127-1.691h1.02c.031.574.063,1.133.1,1.691h3.477v.894h-3.4a23.5,23.5,0,0,0,.591,3.669,10.99,10.99,0,0,0,1.18-2.935Zm-4.53.062v3.1h-3.524v-3.1Zm-.862.75h-1.834v1.6h1.834Zm5.072-2.823a6.454,6.454,0,0,0-1.707-1.116l.558-.591a6.828,6.828,0,0,1,1.724,1.085Z" transform="translate(-67.675 -29.264)" fill="#5e5e5e"/>
      <path id="Path_15" data-name="Path 15" d="M118.723,30.4c-.446,1.292-1.02,2.871-1.531,4.147a5.145,5.145,0,0,1,1.387,3.445,2.283,2.283,0,0,1-.606,1.851,1.728,1.728,0,0,1-.8.3,5.72,5.72,0,0,1-1.053.015,2.391,2.391,0,0,0-.287-1,9.089,9.089,0,0,0,.909.015.793.793,0,0,0,.462-.159,1.366,1.366,0,0,0,.335-1.1,4.836,4.836,0,0,0-1.371-3.238c.446-1.148.892-2.521,1.212-3.589h-2.041V43.894h-1.037V30.018h3.508l.177-.063Zm2.026,4.323a6.9,6.9,0,0,0,.606-.909,10.35,10.35,0,0,0-1.42-1.275,9.368,9.368,0,0,1-1.133,1.34,6.266,6.266,0,0,0-.781-.607,9,9,0,0,0,2.488-3.891l.926.207c-.112.351-.24.669-.383,1h1.674l.176-.032.622.223a11.452,11.452,0,0,1-2.344,4.93h4.609a14.41,14.41,0,0,1-2.249-4.595l.67-.176v-.718h3l.193-.048.669.4a12.194,12.194,0,0,1-2.121,3.635,7.533,7.533,0,0,0,2.409,2.456,3.548,3.548,0,0,0-.7.83,8.239,8.239,0,0,1-1.8-1.707V36.7h-4.93v-.686a8.237,8.237,0,0,1-1.69,1.436,3.51,3.51,0,0,0-.638-.735,8.138,8.138,0,0,0,2.121-1.961c-.814.144-1.547.256-2.282.383l-.143-.83c.7-.062,1.484-.159,2.439-.271Zm.83,5.6a19.687,19.687,0,0,1-2.217,2.934,7.294,7.294,0,0,0-.957-.622,14.475,14.475,0,0,0,2.121-2.665Zm2.392-1.149v4.754h-1.117V39.173h-3.493v-.989h8.1v.989Zm-3.35-7.736c-.079.144-.174.288-.256.416a17.808,17.808,0,0,1,1.4,1.18,11.859,11.859,0,0,0,.622-1.6Zm3.891-.35a12.876,12.876,0,0,0,.941,2.265,10.883,10.883,0,0,0,1.292-2.265Zm1.515,8.772c.8.846,1.819,2.01,2.33,2.7l-.894.606c-.51-.7-1.515-1.915-2.3-2.792Z" transform="translate(-65.816 -29.348)" fill="#5e5e5e"/>
      <path id="Path_16" data-name="Path 16" d="M135.36,32.827a11.082,11.082,0,0,1,1.069,2.058h5.6v1.1h-8.214c-.079.638-.176,1.275-.3,1.9h6.843s-.033.367-.065.541c-.287,3.159-.59,4.468-1.116,4.977a1.708,1.708,0,0,1-1.245.462,23.556,23.556,0,0,1-2.5-.048,2.637,2.637,0,0,0-.4-1.116c1.036.1,2.089.111,2.456.111.351,0,.542-.016.7-.16.383-.3.638-1.34.878-3.684h-5.822a7.35,7.35,0,0,1-4.578,4.975,3.458,3.458,0,0,0-.766-.972c3.668-1.373,4.37-4.195,4.658-6.986h-4.243v-1.1h6.939a12.286,12.286,0,0,0-.894-1.77Zm-4.242-.734h-2.935V31.025h2.935V29.366h1.164v1.659h2.52v1.068h-2.52v1.515h-1.164Zm11.053-1.068v1.068h-3.062v1.515h-1.164V32.093h-2.489V31.025h2.489V29.366h1.164v1.659Z" transform="translate(-64.015 -29.35)" fill="#5e5e5e"/>
      <path id="Path_17" data-name="Path 17" d="M145.338,31.872v4.084c0,2.424-.319,5.806-2.282,8.007a3.815,3.815,0,0,0-.813-.8,8.568,8.568,0,0,0,1.866-4.882c-.639.414-1.292.8-1.915,1.149l-.4-1.053c.622-.288,1.482-.75,2.409-1.228.015-.414.015-.8.015-1.2V30.834h5.6c-.127-.4-.286-.861-.414-1.228l1.148-.255a12.791,12.791,0,0,1,.542,1.482h5.422v1.037ZM143.025,35.7a30.892,30.892,0,0,0-.989-3.142l.894-.335a27.688,27.688,0,0,1,1.036,3.046Zm13-.8a10.638,10.638,0,0,1-1.324,1.133,7.492,7.492,0,0,0,1.963,1.085,4.472,4.472,0,0,0-.7.845,7.53,7.53,0,0,1-1.341-.766v3.174h-3.045V42.8c0,.573-.112.829-.559,1a7.088,7.088,0,0,1-2.121.16,3.639,3.639,0,0,0-.382-.973c.78.032,1.451.016,1.642,0,.223,0,.271-.048.271-.224V40.374H147.46V37.232a14.238,14.238,0,0,1-1.356.8,2.643,2.643,0,0,0-.735-.783,10.49,10.49,0,0,0,1.994-1.212,12.211,12.211,0,0,0-1.245-1.006l.639-.541a10.491,10.491,0,0,1,1.276.956,7.173,7.173,0,0,0,1.036-1.195h-3.014v-.941h3.6a6.21,6.21,0,0,0,.542-1.371l1.117.159a12.943,12.943,0,0,1-.479,1.213h5.487v.941h-3.413a6.779,6.779,0,0,0,1.165,1.291,12.492,12.492,0,0,0,1.212-1.164Zm-7.208,6.142a19.415,19.415,0,0,1-2.52,2.567c-.208-.176-.639-.525-.909-.7a13.7,13.7,0,0,0,2.392-2.217Zm4.737-4.18H148.48v.974h5.072Zm0,1.723H148.48v1.006h5.072Zm-.3-2.5a9.174,9.174,0,0,1-1.435-1.834h-1.5a8.6,8.6,0,0,1-1.468,1.834Zm.462,4.595c.814.75,1.915,1.786,2.472,2.424l-.892.591a34.129,34.129,0,0,0-2.425-2.521Z" transform="translate(-62.173 -29.352)" fill="#5e5e5e"/>
      <path id="Path_18" data-name="Path 18" d="M170.386,40.815h-6.381V42.65c0,.622-.128.892-.623,1.069a9.542,9.542,0,0,1-2.567.159,4.431,4.431,0,0,0-.415-1c.989.031,1.881.031,2.121.031.271-.016.335-.063.335-.287v-1.8h-6.651v-1h6.651v-.686a14.888,14.888,0,0,0,2.536-1.212h-6.236V37.02h7.5l.239-.065.717.589a15.993,15.993,0,0,1-3.6,1.98v.287h6.381Zm-12.7-2.9h-1.133V35.026h1.276l-.32-4.737a29.609,29.609,0,0,0,3.079-.783l.542.734a17.473,17.473,0,0,1-2.472.623l.063.781h2.313v.813h-2.264l.062.862H161.1v.813h-2.216l.063.894h8.741c.032-.288.063-.574.1-.894h-2.313v-.813h2.376l.08-.862h-2.361v-.813h2.409l.048-.861h-2.537v-.814h3.685c-.079,1.58-.223,3.636-.351,5.057h1.243v2.887H168.9V35.935H157.69Zm6.826-3.015a8.765,8.765,0,0,0-1.148-.925,11.246,11.246,0,0,1-1.595,1.036,4.186,4.186,0,0,0-.653-.622,9.6,9.6,0,0,0,1.515-.877,11.584,11.584,0,0,0-1.149-.623l.591-.527c.4.177.812.416,1.228.639a5.667,5.667,0,0,0,.8-.845l.829.271a9.114,9.114,0,0,1-.924,1.02,7.17,7.17,0,0,1,1.147.878Zm-.031-2.839a7.9,7.9,0,0,0-1.1-.813,11.15,11.15,0,0,1-1.484.957,5,5,0,0,0-.668-.574,9.626,9.626,0,0,0,1.419-.814,11.039,11.039,0,0,0-1.117-.574l.574-.527c.383.161.78.368,1.2.591a6.832,6.832,0,0,0,.75-.781l.829.223a8.134,8.134,0,0,1-.877.973c.43.271.813.527,1.1.75Z" transform="translate(-60.264 -29.332)" fill="#5e5e5e"/>
      <path id="Path_19" data-name="Path 19" d="M176.86,34.465l.734.287c-.908,4.818-3.222,7.72-6.2,9.22a4.15,4.15,0,0,0-.8-.941,9.581,9.581,0,0,0,3.923-3.334,18.875,18.875,0,0,0-2.55-1.851,13.483,13.483,0,0,1-1.1,1.2,5.046,5.046,0,0,0-.926-.8,11.789,11.789,0,0,0,3.3-5.121l.878.224V31.929h-3.668v-1.1h3.668V29.408h1.163v1.419h1.82v1.1h-1.82v1.563h-.94c-.128.35-.255.669-.4,1h2.711Zm-3.413,1.084c-.271.495-.558.989-.862,1.436a21.108,21.108,0,0,1,2.521,1.723,12.534,12.534,0,0,0,1.164-3.159Zm6.172-3.619h-1.913v-1.1h1.913V29.408h1.165v1.419h3.572v1.1h-3.572v1.563h-1.165Zm3.287,10.638c.622,0,.733-.3.8-1.753a4.1,4.1,0,0,0,1.085.446c-.16,1.866-.511,2.425-1.8,2.425h-2.871c-1.484,0-1.946-.368-1.946-1.835V34.256h5.663v4.5c0,.606-.112.926-.558,1.1a6.442,6.442,0,0,1-2.2.193,4.339,4.339,0,0,0-.352-1.054c.814.017,1.484.017,1.691,0,.223-.016.271-.063.271-.239V35.341h-3.349V41.85c0,.606.128.717.909.717Z" transform="translate(-58.444 -29.345)" fill="#5e5e5e"/>
    </g>
    <g id="Group_4" data-name="Group 4" transform="translate(74.663 50.149)">
      <path id="Path_20" data-name="Path 20" d="M75.309,54.355l-1.224,3a2.862,2.862,0,0,0-.228,1.059q0,.8,1.082.95v.144H70.914v-.144a2.256,2.256,0,0,0,.636-.221,3.975,3.975,0,0,0,1.2-1.805l3.341-7.864a2.181,2.181,0,0,0,.21-.805q0-.442-.608-.585v-.145h4.367v.145c-.385.125-.579.323-.579.593a3.731,3.731,0,0,0,.293.992l3.161,8.179a4.613,4.613,0,0,0,.58,1.127,1.474,1.474,0,0,0,.732.39v.144H79.77v-.144a1.352,1.352,0,0,0,.732-.424,1.255,1.255,0,0,0,.228-.8,2.94,2.94,0,0,0-.835-1.9,5.33,5.33,0,0,0-2.734-1.6A12.142,12.142,0,0,0,75.309,54.355Zm.285-.881a5.728,5.728,0,0,1,4,1.4L77.4,49.253Z" transform="translate(-70.914 -47.473)" fill="#5e5e5e"/>
      <path id="Path_21" data-name="Path 21" d="M86.531,52.43a3.575,3.575,0,0,1,.988-1.152,3.849,3.849,0,0,1,2.316-.84,6.567,6.567,0,0,1,.723.06l-.428,1.686a2.738,2.738,0,0,0-1.272-.365,2.16,2.16,0,0,0-1.519.6,2.921,2.921,0,0,0-.712,1.839,15.487,15.487,0,0,0-.1,1.857v1.1a5.8,5.8,0,0,0,.058,1.042q.18.737,1.243.779v.136H83.4V59.04a1.441,1.441,0,0,0,.9-.4,1.075,1.075,0,0,0,.22-.627c.011-.062.018-.327.018-.8V52.685a5.82,5.82,0,0,0-.057-1.043q-.151-.661-1.083-.779v-.136l2.668-.229A4.587,4.587,0,0,1,86.531,52.43Z" transform="translate(-69.26 -47.141)" fill="#5e5e5e"/>
      <path id="Path_22" data-name="Path 22" d="M95.648,50.334a6.366,6.366,0,0,1,2.164.364,4.851,4.851,0,0,1,1.709,1.018,4.032,4.032,0,0,1,1.253,3.051,4.078,4.078,0,0,1-1.547,3.339,5.374,5.374,0,0,1-1.761.921,7.04,7.04,0,0,1-2.16.334,6.512,6.512,0,0,1-2.349-.408A4.5,4.5,0,0,1,91.2,57.8a4.2,4.2,0,0,1-1.1-2.941,4.1,4.1,0,0,1,1.463-3.221A5.979,5.979,0,0,1,95.648,50.334Zm-.332.838a3.259,3.259,0,0,0-1.339.28,2.723,2.723,0,0,0-1.025.772,3.619,3.619,0,0,0-.693,2.331,4.827,4.827,0,0,0,.646,2.5A2.765,2.765,0,0,0,95.468,58.5a3.108,3.108,0,0,0,1.917-.627,3.394,3.394,0,0,0,1.234-2.907,4.349,4.349,0,0,0-.683-2.482A2.957,2.957,0,0,0,95.316,51.172Z" transform="translate(-68.371 -47.155)" fill="#5e5e5e"/>
      <path id="Path_23" data-name="Path 23" d="M104.06,52.393a10.129,10.129,0,0,1,1.6-1.212,5.17,5.17,0,0,1,2.591-.839,2.258,2.258,0,0,1,1.8.712,2.824,2.824,0,0,1,.5,1.254,14.331,14.331,0,0,1,1.452-1.051,5.47,5.47,0,0,1,2.8-.923,2.326,2.326,0,0,1,1.031.237,2.14,2.14,0,0,1,.793.644,2.7,2.7,0,0,1,.445,1.643v4.375a5.689,5.689,0,0,0,.058,1.042q.161.713,1.168.779v.136H113.98v-.136a1.462,1.462,0,0,0,.873-.4,1.075,1.075,0,0,0,.219-.627q.019-.093.019-.8V53.588a2.482,2.482,0,0,0-.314-1.475,1.425,1.425,0,0,0-1.157-.516,3,3,0,0,0-1.747.584,2.854,2.854,0,0,0-1.159,1.6,6.489,6.489,0,0,0-.151,1.6v1.848a5.879,5.879,0,0,0,.055,1.042q.172.722,1.187.779v.136H107.43v-.136a1.45,1.45,0,0,0,.9-.4,1.083,1.083,0,0,0,.217-.627,7.711,7.711,0,0,0,.019-.8V53.588a2.38,2.38,0,0,0-.332-1.458,1.384,1.384,0,0,0-1.12-.516,3.063,3.063,0,0,0-1.984.779,2.971,2.971,0,0,0-1.074,2.425v2.416a5.8,5.8,0,0,0,.058,1.042q.151.678,1.1.779v.136h-4.31v-.136a1.441,1.441,0,0,0,.921-.4,1.075,1.075,0,0,0,.219-.627q.019-.093.019-.8V52.7a5.935,5.935,0,0,0-.057-1.043q-.153-.669-1.1-.779v-.136l2.639-.229a3.283,3.283,0,0,1,.39.882A5.611,5.611,0,0,1,104.06,52.393Z" transform="translate(-66.94 -47.155)" fill="#5e5e5e"/>
      <path id="Path_24" data-name="Path 24" d="M124.356,57.6a3.869,3.869,0,0,1-1.215,1.136,5.633,5.633,0,0,1-2.753.627,3.688,3.688,0,0,1-2.364-.653,1.815,1.815,0,0,1-.721-1.467,2.533,2.533,0,0,1,1.319-2.1,16.3,16.3,0,0,1,5.591-1.729c.006-.2.009-.344.009-.441a1.516,1.516,0,0,0-.464-1.254,2.422,2.422,0,0,0-1.538-.4,4.73,4.73,0,0,0-2.933.89,4.12,4.12,0,0,0-1.168,1.518l-.113-.018.3-2.872a.81.81,0,0,0,.57.212,7.3,7.3,0,0,0,1.349-.331,9.421,9.421,0,0,1,2.79-.382,4.015,4.015,0,0,1,2.648.712,1.621,1.621,0,0,1,.561.872,5.147,5.147,0,0,1,.1,1.154v3.737a2.544,2.544,0,0,0,.437,1.754,2,2,0,0,0,.959.482v.136H125.04a3.656,3.656,0,0,1-.495-.745A3.366,3.366,0,0,1,124.356,57.6Zm-.076-3.467a13.9,13.9,0,0,0-2.61.737q-2.137.873-2.137,2.2a1.178,1.178,0,0,0,.627,1.051,1.9,1.9,0,0,0,1,.246,3.339,3.339,0,0,0,2.079-.7,2.34,2.34,0,0,0,.892-1.365,7.546,7.546,0,0,0,.152-1.686Z" transform="translate(-64.767 -47.154)" fill="#5e5e5e"/>
      <path id="Path_25" data-name="Path 25" d="M136.988,47.8l.787,3.492-.161.051a4.351,4.351,0,0,0-.636-1.06,4.435,4.435,0,0,0-.958-.8,4.893,4.893,0,0,0-2.716-.814,3.868,3.868,0,0,0-1.689.331,1.257,1.257,0,0,0-.845,1.12.936.936,0,0,0,.607.805,7.015,7.015,0,0,0,1.2.415l3.2.872a5.9,5.9,0,0,1,2.354,1.085,2.9,2.9,0,0,1,1.006,2.256,3.645,3.645,0,0,1-1.595,3,5.579,5.579,0,0,1-1.785.886,7.432,7.432,0,0,1-2.174.317,8.3,8.3,0,0,1-1.537-.144c-.133-.028-.481-.113-1.044-.254a7.026,7.026,0,0,0-1-.171,1.021,1.021,0,0,0-.683.331l-1.131-4.4.172-.051a7.192,7.192,0,0,0,.806,1.542,5.039,5.039,0,0,0,2.042,1.652,5.4,5.4,0,0,0,2.258.475,4.436,4.436,0,0,0,2.866-.9,2.032,2.032,0,0,0,.873-1.6A1.772,1.772,0,0,0,136.18,54.7a7.517,7.517,0,0,0-1.68-.618l-3.066-.839q-2.63-.712-2.631-2.569a2.441,2.441,0,0,1,1.51-2.28,6.442,6.442,0,0,1,2.963-.652,12.061,12.061,0,0,1,2.277.288,3.782,3.782,0,0,0,.711.093A.976.976,0,0,0,136.988,47.8Z" transform="translate(-63.325 -47.499)" fill="#5e5e5e"/>
      <path id="Path_26" data-name="Path 26" d="M148.807,56.79,147.8,59.281a1.355,1.355,0,0,0-.428-.085c-.044,0-.217.012-.522.034q-1.225.119-1.718.119a7.541,7.541,0,0,1-2.5-.408,5.685,5.685,0,0,1-1.978-1.135,4.225,4.225,0,0,1-1.415-3.238,3.768,3.768,0,0,1,1.443-3.093,4.884,4.884,0,0,1,3.189-1.06,17.674,17.674,0,0,1,1.785.144,7.525,7.525,0,0,0,.864.06,1.829,1.829,0,0,0,.826-.195l.579,2.677-.122.043a3.531,3.531,0,0,0-3.2-1.839,3.029,3.029,0,0,0-2.25.881,3.406,3.406,0,0,0-.977,2.493,3.525,3.525,0,0,0,.912,2.448,3.872,3.872,0,0,0,1.342.955,4.067,4.067,0,0,0,1.648.351,4.332,4.332,0,0,0,2.383-.686,3.548,3.548,0,0,0,1.015-1.026Z" transform="translate(-61.861 -47.144)" fill="#5e5e5e"/>
      <path id="Path_27" data-name="Path 27" d="M151.441,52.706a10.555,10.555,0,0,1,1.812-1.322,4.994,4.994,0,0,1,2.392-.678,2.23,2.23,0,0,1,1.908.864,2.873,2.873,0,0,1,.4,1.7v4.331a5.878,5.878,0,0,0,.055,1.042q.172.713,1.169.779v.136H154.81v-.136a1.462,1.462,0,0,0,.912-.4,1.083,1.083,0,0,0,.217-.627,7.716,7.716,0,0,0,.019-.8V54.045a2.908,2.908,0,0,0-.247-1.416,1.241,1.241,0,0,0-1.157-.643,3.181,3.181,0,0,0-1.813.618,2.9,2.9,0,0,0-1.1,1.314,4.148,4.148,0,0,0-.2,1.416v2.272a5.877,5.877,0,0,0,.055,1.042q.153.678,1.1.779v.136h-4.253v-.136a1.45,1.45,0,0,0,.864-.4,1.083,1.083,0,0,0,.217-.627,7.719,7.719,0,0,0,.019-.8V49.952a5.835,5.835,0,0,0-.057-1.043q-.172-.72-1.2-.779v-.137l3.248-.465Z" transform="translate(-60.674 -47.527)" fill="#5e5e5e"/>
      <path id="Path_28" data-name="Path 28" d="M164.385,50.334a6.366,6.366,0,0,1,2.164.364,4.851,4.851,0,0,1,1.709,1.018,4.029,4.029,0,0,1,1.254,3.051,4.076,4.076,0,0,1-1.548,3.339,5.368,5.368,0,0,1-1.76.921,7.045,7.045,0,0,1-2.16.334,6.519,6.519,0,0,1-2.35-.408,4.5,4.5,0,0,1-1.752-1.152,4.2,4.2,0,0,1-1.1-2.941,4.1,4.1,0,0,1,1.462-3.221A5.981,5.981,0,0,1,164.385,50.334Zm-.332.838a3.25,3.25,0,0,0-1.337.28,2.728,2.728,0,0,0-1.026.772A3.619,3.619,0,0,0,161,54.555a4.838,4.838,0,0,0,.646,2.5,2.768,2.768,0,0,0,2.563,1.441,3.108,3.108,0,0,0,1.917-.627,3.393,3.393,0,0,0,1.234-2.907,4.349,4.349,0,0,0-.683-2.482A2.957,2.957,0,0,0,164.054,51.172Z" transform="translate(-59.263 -47.155)" fill="#5e5e5e"/>
      <path id="Path_29" data-name="Path 29" d="M175.154,50.334a6.371,6.371,0,0,1,2.164.364,4.851,4.851,0,0,1,1.709,1.018,4.032,4.032,0,0,1,1.253,3.051,4.078,4.078,0,0,1-1.547,3.339,5.373,5.373,0,0,1-1.761.921,7.04,7.04,0,0,1-2.16.334,6.513,6.513,0,0,1-2.349-.408,4.491,4.491,0,0,1-1.752-1.152,4.2,4.2,0,0,1-1.1-2.941,4.1,4.1,0,0,1,1.462-3.221A5.982,5.982,0,0,1,175.154,50.334Zm-.332.838a3.256,3.256,0,0,0-1.339.28,2.714,2.714,0,0,0-1.025.772,3.619,3.619,0,0,0-.693,2.331,4.827,4.827,0,0,0,.646,2.5,2.765,2.765,0,0,0,2.563,1.441,3.11,3.11,0,0,0,1.917-.627,3.393,3.393,0,0,0,1.234-2.907,4.34,4.34,0,0,0-.684-2.482A2.955,2.955,0,0,0,174.822,51.172Z" transform="translate(-57.837 -47.155)" fill="#5e5e5e"/>
      <path id="Path_30" data-name="Path 30" d="M183.195,47.527V57.605a5.839,5.839,0,0,0,.057,1.042q.172.713,1.178.779v.136h-4.339v-.136a1.465,1.465,0,0,0,.874-.4,1.083,1.083,0,0,0,.217-.627,7.719,7.719,0,0,0,.019-.8V49.952a5.835,5.835,0,0,0-.057-1.043c-.114-.486-.515-.745-1.206-.779v-.137Z" transform="translate(-56.468 -47.527)" fill="#5e5e5e"/>
    </g>
  </g>
</svg>
